<svg width="128" height="128" viewBox="0 0 128 128" fill="none" xmlns="http://www.w3.org/2000/svg">
<path d="M64 109.6C48.1666 109.6 34.17 101.493 26 89.3333C26.19 76.6667 51.3333 69.7 64 69.7C76.6666 69.7 101.81 76.6667 102 89.3333C93.83 101.493 79.8333 109.6 64 109.6ZM64 19.6667C69.0391 19.6667 73.8718 21.6684 77.435 25.2316C80.9982 28.7948 83 33.6275 83 38.6667C83 43.7058 80.9982 48.5385 77.435 52.1017C73.8718 55.6649 69.0391 57.6667 64 57.6667C58.9608 57.6667 54.1281 55.6649 50.5649 52.1017C47.0017 48.5385 45 43.7058 45 38.6667C45 33.6275 47.0017 28.7948 50.5649 25.2316C54.1281 21.6684 58.9608 19.6667 64 19.6667ZM64 0.666656C55.6829 0.666656 47.4473 2.30482 39.7633 5.48762C32.0794 8.67042 25.0976 13.3355 19.2165 19.2166C7.33923 31.0939 0.666626 47.2029 0.666626 64C0.666626 80.797 7.33923 96.9061 19.2165 108.783C25.0976 114.664 32.0794 119.33 39.7633 122.512C47.4473 125.695 55.6829 127.333 64 127.333C80.797 127.333 96.9061 120.661 108.783 108.783C120.661 96.9061 127.333 80.797 127.333 64C127.333 28.9767 98.8333 0.666656 64 0.666656Z" fill="white"/>
</svg>
