<svg width="25" height="25" viewBox="0 0 25 25" fill="none" xmlns="http://www.w3.org/2000/svg">
<path d="M11.7638 15.4374H13.7638V17.4374H11.7638V15.4374ZM11.7638 7.43739H13.7638V13.4374H11.7638V7.43739ZM12.7638 2.43739C7.23379 2.43739 2.76379 6.93739 2.76379 12.4374C2.76379 15.0896 3.81736 17.6331 5.69273 19.5085C6.62131 20.437 7.7237 21.1736 8.93696 21.6762C10.1502 22.1787 11.4506 22.4374 12.7638 22.4374C15.416 22.4374 17.9595 21.3838 19.8349 19.5085C21.7102 17.6331 22.7638 15.0896 22.7638 12.4374C22.7638 11.1242 22.5051 9.82381 22.0026 8.61056C21.5 7.3973 20.7634 6.29491 19.8349 5.36633C18.9063 4.43774 17.8039 3.70114 16.5906 3.1986C15.3774 2.69605 14.077 2.43739 12.7638 2.43739ZM12.7638 20.4374C10.6421 20.4374 8.60723 19.5945 7.10694 18.0942C5.60665 16.594 4.76379 14.5591 4.76379 12.4374C4.76379 10.3157 5.60665 8.28083 7.10694 6.78054C8.60723 5.28025 10.6421 4.43739 12.7638 4.43739C14.8855 4.43739 16.9204 5.28025 18.4206 6.78054C19.9209 8.28083 20.7638 10.3157 20.7638 12.4374C20.7638 14.5591 19.9209 16.594 18.4206 18.0942C16.9204 19.5945 14.8855 20.4374 12.7638 20.4374Z" fill="black"/>
</svg>
