<svg width="25" height="25" viewBox="0 0 25 25" fill="none" xmlns="http://www.w3.org/2000/svg">
<path d="M4.60834 4.48987H7.60834L9.60834 2.48987H15.6083L17.6083 4.48987H20.6083C21.1388 4.48987 21.6475 4.70058 22.0226 5.07565C22.3976 5.45073 22.6083 5.95944 22.6083 6.48987V18.4899C22.6083 19.0203 22.3976 19.529 22.0226 19.9041C21.6475 20.2792 21.1388 20.4899 20.6083 20.4899H4.60834C4.0779 20.4899 3.5692 20.2792 3.19412 19.9041C2.81905 19.529 2.60834 19.0203 2.60834 18.4899V6.48987C2.60834 5.95944 2.81905 5.45073 3.19412 5.07565C3.5692 4.70058 4.0779 4.48987 4.60834 4.48987ZM12.6083 7.48987C11.2823 7.48987 10.0105 8.01665 9.0728 8.95433C8.13512 9.89202 7.60834 11.1638 7.60834 12.4899C7.60834 13.816 8.13512 15.0877 9.0728 16.0254C10.0105 16.9631 11.2823 17.4899 12.6083 17.4899C13.9344 17.4899 15.2062 16.9631 16.1439 16.0254C17.0816 15.0877 17.6083 13.816 17.6083 12.4899C17.6083 11.1638 17.0816 9.89202 16.1439 8.95433C15.2062 8.01665 13.9344 7.48987 12.6083 7.48987ZM12.6083 9.48987C13.404 9.48987 14.167 9.80594 14.7297 10.3685C15.2923 10.9312 15.6083 11.6942 15.6083 12.4899C15.6083 13.2855 15.2923 14.0486 14.7297 14.6112C14.167 15.1738 13.404 15.4899 12.6083 15.4899C11.8127 15.4899 11.0496 15.1738 10.487 14.6112C9.92441 14.0486 9.60834 13.2855 9.60834 12.4899C9.60834 11.6942 9.92441 10.9312 10.487 10.3685C11.0496 9.80594 11.8127 9.48987 12.6083 9.48987Z" fill="black"/>
</svg>
