<svg width="20" height="20" viewBox="0 0 20 20" fill="none" xmlns="http://www.w3.org/2000/svg">
<path d="M9.99996 16.6667C13.6666 16.6667 16.6666 13.6667 16.6666 10C16.6666 6.33335 13.6666 3.33335 9.99996 3.33335C6.33329 3.33335 3.33329 6.33335 3.33329 10C3.33329 13.6667 6.33329 16.6667 9.99996 16.6667ZM9.99996 1.66669C14.5833 1.66669 18.3333 5.41669 18.3333 10C18.3333 14.5834 14.5833 18.3334 9.99996 18.3334C5.41663 18.3334 1.66663 14.5834 1.66663 10C1.66663 5.41669 5.41663 1.66669 9.99996 1.66669ZM14.1666 11.5834L13.5833 12.6667L9.16663 10.25V5.83335H10.4166V9.50002L14.1666 11.5834Z" fill="black"/>
</svg>
