<svg width="25" height="25" viewBox="0 0 25 25" fill="none" xmlns="http://www.w3.org/2000/svg">
<path d="M12.5 8.75C13.5609 8.75 14.5783 9.17143 15.3284 9.92157C16.0786 10.6717 16.5 11.6891 16.5 12.75C16.5 13.8109 16.0786 14.8283 15.3284 15.5784C14.5783 16.3286 13.5609 16.75 12.5 16.75C11.4391 16.75 10.4217 16.3286 9.67157 15.5784C8.92143 14.8283 8.5 13.8109 8.5 12.75C8.5 11.6891 8.92143 10.6717 9.67157 9.92157C10.4217 9.17143 11.4391 8.75 12.5 8.75ZM3.55 13.75H1.5V11.75H3.55C4 7.58 7.33 4.25 11.5 3.8V1.75H13.5V3.8C17.67 4.25 21 7.58 21.45 11.75H23.5V13.75H21.45C21 17.92 17.67 21.25 13.5 21.7V23.75H11.5V21.7C7.33 21.25 4 17.92 3.55 13.75ZM12.5 5.75C10.6435 5.75 8.86301 6.4875 7.55025 7.80025C6.2375 9.11301 5.5 10.8935 5.5 12.75C5.5 14.6065 6.2375 16.387 7.55025 17.6997C8.86301 19.0125 10.6435 19.75 12.5 19.75C14.3565 19.75 16.137 19.0125 17.4497 17.6997C18.7625 16.387 19.5 14.6065 19.5 12.75C19.5 10.8935 18.7625 9.11301 17.4497 7.80025C16.137 6.4875 14.3565 5.75 12.5 5.75Z" fill="black"/>
</svg>
