<svg width="24" height="25" viewBox="0 0 24 25" fill="none" xmlns="http://www.w3.org/2000/svg">
<path d="M14.0001 15.0001V12.5001H10.0001V15.5001H8.00006V11.5001C8.00006 11.2348 8.10542 10.9805 8.29295 10.793C8.48049 10.6054 8.73484 10.5001 9.00006 10.5001H14.0001V8.00006L17.5001 11.5001M21.7101 11.7901L12.7101 2.79006H12.7001C12.3101 2.40006 11.6801 2.40006 11.2901 2.79006L2.29006 11.7901C1.90006 12.1801 1.90006 12.8201 2.29006 13.2101L11.2901 22.2101C11.6801 22.5901 12.3101 22.6001 12.7101 22.2101L21.7101 13.2101C22.1001 12.8201 22.1001 12.1801 21.7101 11.7901Z" fill="black"/>
</svg>
