<svg width="26" height="37" viewBox="0 0 26 37" fill="none" xmlns="http://www.w3.org/2000/svg">
<g clip-path="url(#clip0_42_478)">
<path d="M22.6959 7.00591L19.6487 3.89198C19.2831 3.51835 18.6316 3.56493 18.1937 3.99604L11.6977 10.3906C11.2597 10.8217 11.2011 11.4741 11.5667 11.8477L14.614 14.9616C14.9796 15.3353 15.631 15.2887 16.069 14.8576L22.565 8.46302C23.0029 8.03191 23.0615 7.37955 22.6959 7.00591Z" stroke="#388E3C" stroke-width="0.755906" stroke-linecap="square"/>
<path d="M19.0142 6.46374C18.9183 6.52877 18.8008 6.55337 18.6871 6.53218C18.5734 6.51099 18.4727 6.44576 18.4068 6.35057C18.3409 6.25538 18.3152 6.13792 18.3352 6.02367C18.3552 5.90943 18.4193 5.80757 18.5136 5.74022C18.6079 5.67285 18.7248 5.64537 18.839 5.66377C18.9532 5.68218 19.0555 5.74497 19.1236 5.83853C19.1918 5.93208 19.2203 6.04886 19.2031 6.16356C19.1859 6.27826 19.1243 6.38164 19.0317 6.45127" stroke="#388E3C" stroke-width="0.188977" stroke-miterlimit="0" stroke-linecap="square" stroke-linejoin="round"/>
<path d="M17.7551 7.67671C17.6592 7.74174 17.5416 7.76634 17.4279 7.74515C17.3143 7.72396 17.2136 7.65869 17.1477 7.5635C17.0819 7.46831 17.0561 7.35085 17.0761 7.2366C17.0961 7.12235 17.1602 7.0205 17.2545 6.95314C17.3488 6.88577 17.4657 6.85834 17.5799 6.87674C17.6941 6.89515 17.7963 6.95794 17.8645 7.0515C17.9326 7.14505 17.9612 7.26183 17.944 7.37652C17.9268 7.49121 17.8652 7.59456 17.7726 7.66419" stroke="#388E3C" stroke-width="0.188977" stroke-miterlimit="0" stroke-linecap="square" stroke-linejoin="round"/>
<path d="M16.5126 8.90647C16.4167 8.9715 16.2992 8.9961 16.1855 8.97491C16.0718 8.95372 15.9711 8.88845 15.9052 8.79326C15.8394 8.69807 15.8136 8.58065 15.8336 8.46641C15.8536 8.35217 15.9177 8.25031 16.012 8.18295C16.1063 8.11558 16.2232 8.08814 16.3374 8.10654C16.4515 8.12495 16.5538 8.18774 16.622 8.2813C16.6901 8.37486 16.7187 8.49164 16.7015 8.60633C16.6843 8.72103 16.6227 8.82441 16.53 8.89404" stroke="#388E3C" stroke-width="0.188977" stroke-miterlimit="0" stroke-linecap="square" stroke-linejoin="round"/>
<path d="M15.2701 10.1362C15.1742 10.2013 15.0567 10.2258 14.943 10.2047C14.8293 10.1835 14.7286 10.1182 14.6627 10.023C14.5969 9.92782 14.5712 9.81036 14.5911 9.69611C14.6111 9.58186 14.6752 9.48005 14.7695 9.41269C14.8638 9.34533 14.9807 9.31784 15.0949 9.33625C15.2091 9.35466 15.3113 9.41745 15.3795 9.511C15.4477 9.60455 15.4762 9.72134 15.459 9.83603C15.4418 9.95072 15.3802 10.0541 15.2876 10.1237" stroke="#388E3C" stroke-width="0.188977" stroke-miterlimit="0" stroke-linecap="square" stroke-linejoin="round"/>
<path d="M14.0441 11.3828C13.9482 11.4479 13.8307 11.4725 13.717 11.4513C13.6033 11.4301 13.5027 11.3648 13.4368 11.2696C13.3709 11.1744 13.3452 11.057 13.3652 10.9427C13.3852 10.8285 13.4492 10.7267 13.5435 10.6593C13.6378 10.5919 13.7548 10.5645 13.869 10.5829C13.9831 10.6013 14.0854 10.6641 14.1535 10.7576C14.2217 10.8512 14.2503 10.968 14.2331 11.0826C14.2159 11.1973 14.1543 11.3007 14.0616 11.3703" stroke="#388E3C" stroke-width="0.188977" stroke-miterlimit="0" stroke-linecap="square" stroke-linejoin="round"/>
<path d="M20.6299 8.08346C20.533 8.14753 20.4126 8.16915 20.2946 8.14362C20.1766 8.1181 20.0706 8.04752 19.9997 7.94713C19.9287 7.84673 19.8984 7.72463 19.9154 7.60731C19.9323 7.49 19.9952 7.3869 20.0903 7.32038C20.1855 7.25385 20.3052 7.22923 20.4236 7.2519C20.542 7.27457 20.6495 7.34269 20.7228 7.44147C20.7961 7.54025 20.8293 7.66174 20.8152 7.77961C20.8011 7.89748 20.7409 8.00223 20.6475 8.07115" stroke="#388E3C" stroke-width="0.188977" stroke-miterlimit="0" stroke-linecap="square" stroke-linejoin="round"/>
<path d="M19.3697 9.29541C19.2728 9.35948 19.1523 9.3811 19.0344 9.35557C18.9164 9.33004 18.8105 9.25942 18.7395 9.15903C18.6685 9.05863 18.6382 8.93653 18.6552 8.81922C18.6721 8.7019 18.735 8.5988 18.8301 8.53228C18.9253 8.46575 19.045 8.44118 19.1634 8.46385C19.2818 8.48652 19.3893 8.55463 19.4626 8.65342C19.5359 8.75219 19.5691 8.87368 19.555 8.99154C19.5409 9.10941 19.4807 9.21413 19.3873 9.28305" stroke="#388E3C" stroke-width="0.188977" stroke-miterlimit="0" stroke-linecap="square" stroke-linejoin="round"/>
<path d="M18.1271 10.5252C18.0303 10.5893 17.9098 10.6109 17.7918 10.5854C17.6739 10.5598 17.5679 10.4892 17.4969 10.3888C17.4259 10.2884 17.3956 10.1664 17.4126 10.0491C17.4296 9.93175 17.4924 9.82864 17.5876 9.76212C17.6827 9.69559 17.8024 9.67101 17.9208 9.69368C18.0392 9.71635 18.1467 9.78447 18.22 9.88325C18.2933 9.98203 18.3265 10.1035 18.3124 10.2214C18.2983 10.3393 18.2381 10.444 18.1447 10.5129" stroke="#388E3C" stroke-width="0.188977" stroke-miterlimit="0" stroke-linecap="square" stroke-linejoin="round"/>
<path d="M16.8846 11.755C16.7877 11.8191 16.6673 11.8407 16.5493 11.8152C16.4313 11.7896 16.3254 11.719 16.2544 11.6186C16.1834 11.5182 16.1531 11.3961 16.1701 11.2788C16.1871 11.1615 16.2499 11.0584 16.345 10.9919C16.4402 10.9254 16.5599 10.9008 16.6783 10.9234C16.7967 10.9461 16.9042 11.0142 16.9775 11.113C17.0508 11.2118 17.084 11.3333 17.0699 11.4511C17.0558 11.569 16.9956 11.6737 16.9023 11.7426" stroke="#388E3C" stroke-width="0.188977" stroke-miterlimit="0" stroke-linecap="square" stroke-linejoin="round"/>
<path d="M15.6596 13.0027C15.5628 13.0668 15.4423 13.0884 15.3243 13.0629C15.2064 13.0374 15.1004 12.9667 15.0294 12.8664C14.9584 12.766 14.9282 12.6439 14.9451 12.5265C14.9621 12.4092 15.0249 12.3062 15.12 12.2397C15.2152 12.1731 15.3349 12.1485 15.4533 12.1712C15.5717 12.1938 15.6792 12.262 15.7525 12.3607C15.8258 12.4595 15.859 12.581 15.8449 12.6989C15.8308 12.8167 15.7706 12.9215 15.6773 12.9904" stroke="#388E3C" stroke-width="0.188977" stroke-miterlimit="0" stroke-linecap="square" stroke-linejoin="round"/>
<path d="M4.67718 1.07931L2.05661 3.65309C1.74217 3.96192 1.78348 4.51489 2.14888 4.88821L7.56878 10.4256C7.93418 10.7989 8.48528 10.8512 8.79972 10.5424L11.4203 7.96861C11.7347 7.65979 11.6934 7.10682 11.328 6.7335L5.90812 1.19609C5.54272 0.822774 4.99162 0.770492 4.67718 1.07931Z" stroke="#388E3C" stroke-width="0.755906" stroke-linecap="square"/>
<path d="M4.23039 4.20149C4.2856 4.28312 4.30673 4.38297 4.28917 4.47937C4.27162 4.57576 4.21684 4.66097 4.13665 4.71649C4.05646 4.77202 3.95734 4.79338 3.86079 4.77598C3.76425 4.75857 3.67804 4.70378 3.62087 4.6235C3.56369 4.54321 3.54013 4.44388 3.55533 4.34705C3.57053 4.25023 3.62325 4.1637 3.70206 4.10622C3.78086 4.04874 3.8794 4.02495 3.97631 4.04C4.07323 4.05505 4.16072 4.10774 4.2198 4.18663" stroke="#388E3C" stroke-width="0.188977" stroke-miterlimit="0" stroke-linecap="square" stroke-linejoin="round"/>
<path d="M5.25858 5.27472C5.3138 5.35635 5.33492 5.4562 5.31737 5.55259C5.29982 5.64899 5.245 5.73416 5.16481 5.78968C5.08462 5.8452 4.9855 5.86657 4.88896 5.84916C4.79241 5.83176 4.7062 5.77697 4.64903 5.69668C4.59186 5.6164 4.56833 5.51711 4.58353 5.42028C4.59873 5.32345 4.65145 5.23692 4.73026 5.17945C4.80905 5.12197 4.90759 5.09819 5.0045 5.11324C5.10141 5.12829 5.18888 5.18094 5.24796 5.25982" stroke="#388E3C" stroke-width="0.188977" stroke-miterlimit="0" stroke-linecap="square" stroke-linejoin="round"/>
<path d="M6.3009 6.3339C6.35612 6.41553 6.37724 6.51538 6.35969 6.61177C6.34214 6.70817 6.28732 6.79334 6.20713 6.84886C6.12694 6.90438 6.02786 6.92577 5.93132 6.90837C5.83478 6.89097 5.74856 6.83618 5.69139 6.7559C5.63421 6.67562 5.61069 6.57633 5.62589 6.4795C5.64109 6.38267 5.69381 6.29614 5.77261 6.23867C5.85141 6.18119 5.94995 6.1574 6.04687 6.17245C6.14378 6.1875 6.23127 6.24019 6.29036 6.31908" stroke="#388E3C" stroke-width="0.188977" stroke-miterlimit="0" stroke-linecap="square" stroke-linejoin="round"/>
<path d="M7.34315 7.39304C7.39836 7.47467 7.41949 7.57452 7.40194 7.67091C7.38438 7.76731 7.32956 7.85248 7.24938 7.908C7.16918 7.96352 7.07006 7.98489 6.97352 7.96748C6.87698 7.95008 6.7908 7.89533 6.73364 7.81504C6.67646 7.73476 6.6529 7.63543 6.6681 7.5386C6.68329 7.44177 6.73602 7.35524 6.81482 7.29777C6.89362 7.24029 6.99216 7.21651 7.08907 7.23156C7.18598 7.2466 7.27344 7.29926 7.33253 7.37814" stroke="#388E3C" stroke-width="0.188977" stroke-miterlimit="0" stroke-linecap="square" stroke-linejoin="round"/>
<path d="M8.39964 8.43826C8.45485 8.51989 8.47598 8.61974 8.45842 8.71614C8.44087 8.81253 8.38605 8.8977 8.30586 8.95322C8.22567 9.00875 8.12655 9.03011 8.03001 9.01271C7.93346 8.9953 7.84729 8.94055 7.79012 8.86027C7.73295 8.77998 7.70938 8.68065 7.72458 8.58382C7.73978 8.487 7.7925 8.40047 7.87131 8.34299C7.95011 8.28552 8.04864 8.26173 8.14555 8.27678C8.24246 8.29183 8.32993 8.34448 8.38902 8.42337" stroke="#388E3C" stroke-width="0.188977" stroke-miterlimit="0" stroke-linecap="square" stroke-linejoin="round"/>
<path d="M5.5934 2.83663C5.6478 2.91908 5.66642 3.0214 5.64522 3.12141C5.62402 3.22142 5.56473 3.31108 5.48016 3.37093C5.39559 3.43079 5.29257 3.45601 5.19344 3.44116C5.09431 3.4263 5.00705 3.37255 4.95059 3.29156C4.89412 3.21057 4.87297 3.10886 4.89176 3.00848C4.91055 2.9081 4.96775 2.81714 5.05095 2.75532C5.13415 2.69349 5.23665 2.66578 5.33623 2.6782C5.43582 2.69061 5.52447 2.74216 5.58295 2.82165" stroke="#388E3C" stroke-width="0.188976" stroke-miterlimit="0" stroke-linecap="square" stroke-linejoin="round"/>
<path d="M6.62072 3.91081C6.67511 3.99325 6.69374 4.09558 6.67253 4.19558C6.65133 4.29559 6.59201 4.38522 6.50744 4.44507C6.42287 4.50492 6.31984 4.53015 6.22072 4.51529C6.12159 4.50044 6.03433 4.44668 5.97787 4.36569C5.9214 4.28471 5.90028 4.18303 5.91907 4.08265C5.93786 3.98227 5.99506 3.89131 6.07826 3.82949C6.16146 3.76767 6.26396 3.73997 6.36354 3.75238C6.46311 3.76479 6.55174 3.8163 6.61022 3.89578" stroke="#388E3C" stroke-width="0.188976" stroke-miterlimit="0" stroke-linecap="square" stroke-linejoin="round"/>
<path d="M7.66306 4.97003C7.71746 5.05247 7.73608 5.1548 7.71488 5.25481C7.69368 5.35482 7.63435 5.44444 7.54979 5.50429C7.46522 5.56414 7.36223 5.58939 7.26311 5.57454C7.16399 5.55969 7.07672 5.50593 7.02025 5.42495C6.96378 5.34397 6.94267 5.24229 6.96146 5.14191C6.98024 5.04153 7.03744 4.95058 7.12064 4.88875C7.20385 4.82692 7.30635 4.79922 7.40593 4.81163C7.50552 4.82405 7.59416 4.87559 7.65265 4.95508" stroke="#388E3C" stroke-width="0.188976" stroke-miterlimit="0" stroke-linecap="square" stroke-linejoin="round"/>
<path d="M8.70537 6.02921C8.75977 6.11165 8.77839 6.21398 8.75719 6.31399C8.73598 6.414 8.67666 6.50362 8.59209 6.56347C8.50752 6.62333 8.4045 6.64855 8.30537 6.6337C8.20625 6.61884 8.11902 6.56513 8.06256 6.48414C8.00609 6.40315 7.98494 6.30143 8.00373 6.20106C8.02251 6.10068 8.07971 6.00972 8.16292 5.94789C8.24611 5.88607 8.34861 5.85837 8.44819 5.87079C8.54777 5.8832 8.63639 5.93471 8.69488 6.01419" stroke="#388E3C" stroke-width="0.188976" stroke-miterlimit="0" stroke-linecap="square" stroke-linejoin="round"/>
<path d="M9.76277 7.07353C9.81717 7.15598 9.8358 7.2583 9.81459 7.35831C9.79339 7.45832 9.73407 7.54795 9.6495 7.6078C9.56493 7.66765 9.4619 7.69287 9.36278 7.67802C9.26365 7.66317 9.17643 7.60945 9.11997 7.52846C9.0635 7.44747 9.04234 7.34576 9.06113 7.24538C9.07992 7.145 9.13712 7.05404 9.22032 6.99222C9.30352 6.9304 9.40602 6.9027 9.50559 6.91511C9.60517 6.92752 9.6938 6.97903 9.75228 7.05851" stroke="#388E3C" stroke-width="0.188976" stroke-miterlimit="0" stroke-linecap="square" stroke-linejoin="round"/>
<path d="M23.7335 9.66881H2.26646C1.84354 9.66881 1.5007 10.2544 1.5007 10.9767C1.5007 11.6991 1.84354 12.2846 2.26646 12.2846H23.7335C24.1564 12.2846 24.4993 11.6991 24.4993 10.9767C24.4993 10.2544 24.1564 9.66881 23.7335 9.66881Z" fill="white" stroke="#388E3C" stroke-width="1.51181"/>
<path fill-rule="evenodd" clip-rule="evenodd" d="M4.08592 12.2846H19.3464H23.4531L21.087 34.1859C20.9943 35.044 20.3871 35.7452 19.5177 35.7443L6.49929 35.7292C5.62989 35.7283 5.02458 35.0286 4.92999 34.1708L2.5166 12.2831L4.08592 12.2846Z" fill="white" stroke="#388E3C" stroke-width="1.51181"/>
<path d="M9.30131 17.5055C9.30131 16.7985 8.75311 16.2254 8.07686 16.2254C7.4006 16.2254 6.85239 16.7985 6.85239 17.5055V27.3026C6.85239 28.0096 7.4006 28.5827 8.07686 28.5827C8.75311 28.5827 9.30131 28.0096 9.30131 27.3026V17.5055Z" stroke="#388E3C" stroke-width="1.13386"/>
<path d="M14.2089 17.5055C14.2089 16.7985 13.6607 16.2254 12.9845 16.2254C12.3082 16.2254 11.76 16.7985 11.76 17.5055V27.3026C11.76 28.0096 12.3082 28.5827 12.9845 28.5827C13.6607 28.5827 14.2089 28.0096 14.2089 27.3026V17.5055Z" stroke="#388E3C" stroke-width="1.13386"/>
<path d="M19.1165 17.5055C19.1165 16.7985 18.5683 16.2254 17.8921 16.2254C17.2158 16.2254 16.6676 16.7985 16.6676 17.5055V27.3026C16.6676 28.0096 17.2158 28.5827 17.8921 28.5827C18.5683 28.5827 19.1165 28.0096 19.1165 27.3026V17.5055Z" stroke="#388E3C" stroke-width="1.13386"/>
</g>
<defs>
<clipPath id="clip0_42_478">
<rect width="24.5104" height="36.0005" fill="white" transform="translate(0.744812 0.499767)"/>
</clipPath>
</defs>
</svg>
