<svg width="25" height="25" viewBox="0 0 25 25" fill="none" xmlns="http://www.w3.org/2000/svg">
<path d="M12.2562 9.51805L15.4262 12.6781C15.4262 12.6281 15.4262 12.5681 15.4262 12.5181C15.4262 11.7224 15.1101 10.9593 14.5475 10.3967C13.9849 9.83412 13.2218 9.51805 12.4262 9.51805C12.3662 9.51805 12.3162 9.51805 12.2562 9.51805ZM7.95618 10.3181L9.50618 11.8681C9.45618 12.0781 9.42618 12.2881 9.42618 12.5181C9.42618 13.3137 9.74225 14.0768 10.3049 14.6394C10.8675 15.202 11.6305 15.5181 12.4262 15.5181C12.6462 15.5181 12.8662 15.4881 13.0762 15.4381L14.6262 16.9881C13.9562 17.3181 13.2162 17.5181 12.4262 17.5181C11.1001 17.5181 9.82833 16.9913 8.89064 16.0536C7.95296 15.1159 7.42618 13.8441 7.42618 12.5181C7.42618 11.7281 7.62618 10.9881 7.95618 10.3181ZM2.42618 4.78805L4.70618 7.06805L5.15618 7.51805C3.50618 8.81805 2.20618 10.5181 1.42618 12.5181C3.15618 16.9081 7.42618 20.0181 12.4262 20.0181C13.9762 20.0181 15.4562 19.7181 16.8062 19.1781L17.2362 19.5981L20.1562 22.5181L21.4262 21.2481L3.69618 3.51805M12.4262 7.51805C13.7523 7.51805 15.024 8.04484 15.9617 8.98252C16.8994 9.9202 17.4262 11.192 17.4262 12.5181C17.4262 13.1581 17.2962 13.7781 17.0662 14.3381L19.9962 17.2681C21.4962 16.0181 22.6962 14.3781 23.4262 12.5181C21.6962 8.12805 17.4262 5.01805 12.4262 5.01805C11.0262 5.01805 9.68618 5.26805 8.42618 5.71805L10.5962 7.86805C11.1662 7.64805 11.7762 7.51805 12.4262 7.51805Z" fill="black"/>
</svg>
