<svg width="25" height="25" viewBox="0 0 25 25" fill="none" xmlns="http://www.w3.org/2000/svg">
<path d="M12.0876 9.25314C11.2919 9.25314 10.5289 9.56921 9.96626 10.1318C9.40366 10.6944 9.08759 11.4575 9.08759 12.2531C9.08759 13.0488 9.40366 13.8119 9.96626 14.3745C10.5289 14.9371 11.2919 15.2531 12.0876 15.2531C12.8832 15.2531 13.6463 14.9371 14.2089 14.3745C14.7715 13.8119 15.0876 13.0488 15.0876 12.2531C15.0876 11.4575 14.7715 10.6944 14.2089 10.1318C13.6463 9.56921 12.8832 9.25314 12.0876 9.25314ZM12.0876 17.2531C10.7615 17.2531 9.48973 16.7264 8.55205 15.7887C7.61437 14.851 7.08759 13.5792 7.08759 12.2531C7.08759 10.9271 7.61437 9.65529 8.55205 8.71761C9.48973 7.77993 10.7615 7.25314 12.0876 7.25314C13.4137 7.25314 14.6854 7.77993 15.6231 8.71761C16.5608 9.65529 17.0876 10.9271 17.0876 12.2531C17.0876 13.5792 16.5608 14.851 15.6231 15.7887C14.6854 16.7264 13.4137 17.2531 12.0876 17.2531ZM12.0876 4.75314C7.08759 4.75314 2.81759 7.86314 1.08759 12.2531C2.81759 16.6431 7.08759 19.7531 12.0876 19.7531C17.0876 19.7531 21.3576 16.6431 23.0876 12.2531C21.3576 7.86314 17.0876 4.75314 12.0876 4.75314Z" fill="black"/>
</svg>
