<svg width="25" height="25" viewBox="0 0 25 25" fill="none" xmlns="http://www.w3.org/2000/svg">
<g clip-path="url(#clip0_415_671)">
<path d="M21.4262 18.3688H15.4262V15.3688H13.7262C12.6262 17.7688 10.1262 19.3688 7.42618 19.3688C3.52618 19.3688 0.426178 16.2688 0.426178 12.3688C0.426178 8.46884 3.52618 5.36884 7.42618 5.36884C10.1262 5.36884 12.6262 6.96884 13.7262 9.36884H24.4262V15.3688H21.4262V18.3688ZM17.4262 16.3688H19.4262V13.3688H22.4262V11.3688H12.3262L12.1262 10.6688C11.4262 8.66884 9.52618 7.36884 7.42618 7.36884C4.62618 7.36884 2.42618 9.56884 2.42618 12.3688C2.42618 15.1688 4.62618 17.3688 7.42618 17.3688C9.52618 17.3688 11.4262 16.0688 12.1262 14.0688L12.3262 13.3688H17.4262V16.3688ZM7.42618 15.3688C5.72618 15.3688 4.42618 14.0688 4.42618 12.3688C4.42618 10.6688 5.72618 9.36884 7.42618 9.36884C9.12618 9.36884 10.4262 10.6688 10.4262 12.3688C10.4262 14.0688 9.12618 15.3688 7.42618 15.3688ZM7.42618 11.3688C6.82618 11.3688 6.42618 11.7688 6.42618 12.3688C6.42618 12.9688 6.82618 13.3688 7.42618 13.3688C8.02618 13.3688 8.42618 12.9688 8.42618 12.3688C8.42618 11.7688 8.02618 11.3688 7.42618 11.3688Z" fill="black"/>
</g>
<defs>
<clipPath id="clip0_415_671">
<rect width="24" height="24" fill="white" transform="translate(0.426178 0.368835)"/>
</clipPath>
</defs>
</svg>
