<svg width="17" height="17" viewBox="0 0 17 17" fill="none" xmlns="http://www.w3.org/2000/svg">
<path d="M8.50004 8.16667C8.05801 8.16667 7.63409 7.99107 7.32153 7.67851C7.00897 7.36595 6.83337 6.94203 6.83337 6.5C6.83337 6.05797 7.00897 5.63405 7.32153 5.32149C7.63409 5.00893 8.05801 4.83334 8.50004 4.83334C8.94207 4.83334 9.36599 5.00893 9.67855 5.32149C9.99111 5.63405 10.1667 6.05797 10.1667 6.5C10.1667 6.71887 10.1236 6.9356 10.0398 7.13781C9.95608 7.34002 9.83332 7.52375 9.67855 7.67851C9.52379 7.83328 9.34006 7.95604 9.13785 8.0398C8.93564 8.12356 8.71891 8.16667 8.50004 8.16667ZM8.50004 1.83334C7.26236 1.83334 6.07538 2.325 5.20021 3.20017C4.32504 4.07534 3.83337 5.26233 3.83337 6.5C3.83337 10 8.50004 15.1667 8.50004 15.1667C8.50004 15.1667 13.1667 10 13.1667 6.5C13.1667 5.26233 12.675 4.07534 11.7999 3.20017C10.9247 2.325 9.73772 1.83334 8.50004 1.83334Z" fill="black"/>
</svg>
