<svg width="390" height="161" viewBox="0 0 390 161" fill="none" xmlns="http://www.w3.org/2000/svg">
<g clip-path="url(#clip0_6_659)">
<path d="M203.145 28.1095C201.797 31.409 197.658 34.3328 191.624 36.2472C185.59 38.1616 178.147 38.9122 170.91 38.3365C163.673 37.7608 157.224 35.905 152.961 33.1715C148.698 30.4379 146.965 27.0469 148.137 23.7334C149.309 20.4199 153.292 17.4509 159.222 15.4701C165.153 13.4892 172.553 12.6561 179.818 13.1512C187.084 13.6464 193.63 15.43 198.037 18.1154C202.444 20.8007 204.357 24.1716 203.362 27.4971" stroke="#388E3C" stroke-width="2.64567" stroke-miterlimit="0" stroke-linecap="round"/>
<path d="M187.652 14.1791L165.215 37.5921" stroke="#388E3C" stroke-width="2.64567" stroke-miterlimit="0" stroke-linejoin="bevel"/>
<path d="M147.763 25.8948V39.7413C147.763 39.7413 151.8 53.3174 175.744 53.3174C199.688 53.3174 203.661 39.7413 203.661 39.7413V25.8948" stroke="#388E3C" stroke-width="2.64567" stroke-miterlimit="0" stroke-linejoin="bevel"/>
<path d="M175.744 46.3943V60.2407C175.744 60.2407 179.78 73.8169 203.725 73.8169C227.669 73.8169 231.641 60.2407 231.641 60.2407V46.3943" fill="white"/>
<path d="M175.744 46.3943V60.2407C175.744 60.2407 179.78 73.8169 203.725 73.8169C227.669 73.8169 231.641 60.2407 231.641 60.2407V46.3943" stroke="#388E3C" stroke-width="2.64567" stroke-miterlimit="0" stroke-linejoin="bevel"/>
<path d="M231.126 48.6089C229.778 51.9084 225.638 54.8322 219.604 56.7466C213.57 58.661 206.128 59.4116 198.891 58.8359C191.654 58.2601 185.205 56.4044 180.942 53.6709C176.679 50.9373 174.946 47.5463 176.118 44.2328C177.29 40.9193 181.273 37.9503 187.203 35.9694C193.134 33.9886 200.534 33.1554 207.799 33.6506C215.065 34.1458 221.611 35.9294 226.018 38.6147C230.425 41.3001 232.338 44.6709 231.343 47.9965" fill="white"/>
<path d="M231.126 48.6089C229.778 51.9084 225.638 54.8322 219.604 56.7466C213.57 58.661 206.128 59.4116 198.891 58.8359C191.654 58.2601 185.205 56.4044 180.942 53.6709C176.679 50.9373 174.946 47.5463 176.118 44.2328C177.29 40.9193 181.273 37.9503 187.203 35.9694C193.134 33.9886 200.534 33.1554 207.799 33.6506C215.065 34.1458 221.611 35.9294 226.018 38.6147C230.425 41.3001 232.338 44.6709 231.343 47.9965" stroke="#388E3C" stroke-width="2.64567" stroke-miterlimit="0" stroke-linecap="round"/>
<path d="M192.807 35.059L216.022 57.7111" stroke="#388E3C" stroke-width="2.64567" stroke-miterlimit="0" stroke-linejoin="bevel"/>
<path d="M235.778 15.3544C235.203 18.4214 233.437 21.1391 230.863 22.9185C228.29 24.698 225.116 25.3957 222.029 24.8606C218.942 24.3254 216.191 22.6004 214.373 20.0596C212.555 17.5187 211.816 14.3667 212.315 11.2868C212.815 8.20689 214.514 5.44722 217.044 3.606C219.573 1.76479 222.729 0.990388 225.828 1.45066C228.927 1.91093 231.719 3.56877 233.599 6.06485C235.479 8.56093 236.295 11.6941 235.87 14.7852" stroke="#388E3C" stroke-width="2.64566" stroke-miterlimit="0" stroke-linecap="round" stroke-linejoin="round"/>
<path d="M232.263 22.0229L242.238 32.0152" stroke="#388E3C" stroke-width="2.64566" stroke-miterlimit="0" stroke-linecap="round" stroke-linejoin="round"/>
</g>
<path d="M48.5278 120.136H38.6606V103.003H48.5278V105.98H42.2934V109.741H48.0942V112.718H42.2934V117.136H48.5278V120.136ZM58.7939 106.788C60.1923 106.788 61.3173 107.171 62.1689 107.937C63.0205 108.694 63.4463 109.913 63.4463 111.593V120.136H59.872V112.483C59.872 111.546 59.7002 110.839 59.3564 110.362C59.0205 109.886 58.4892 109.648 57.7627 109.648C56.6689 109.648 55.9228 110.019 55.5244 110.761C55.1259 111.503 54.9267 112.573 54.9267 113.972V120.136H51.3525V107.034H54.083L54.5634 108.71H54.7627C55.0439 108.257 55.3916 107.89 55.8056 107.608C56.2275 107.327 56.6923 107.12 57.2002 106.987C57.7158 106.855 58.247 106.788 58.7939 106.788ZM71.9663 120.37C70.6694 120.37 69.5639 120.136 68.6498 119.667C67.7358 119.19 67.0405 118.456 66.5639 117.464C66.0873 116.472 65.8491 115.202 65.8491 113.655C65.8491 112.054 66.1186 110.749 66.6577 109.741C67.2045 108.726 67.9584 107.98 68.9194 107.503C69.8881 107.026 71.0092 106.788 72.2827 106.788C73.1889 106.788 73.9702 106.878 74.6264 107.058C75.2905 107.23 75.8686 107.437 76.3608 107.679L75.3061 110.444C74.7436 110.218 74.2202 110.034 73.7358 109.894C73.2514 109.745 72.767 109.671 72.2827 109.671C71.6577 109.671 71.1381 109.819 70.7241 110.116C70.31 110.405 70.0014 110.843 69.7983 111.429C69.5952 112.015 69.4936 112.749 69.4936 113.632C69.4936 114.499 69.603 115.218 69.8217 115.788C70.0405 116.358 70.3569 116.784 70.7709 117.065C71.185 117.339 71.6889 117.476 72.2827 117.476C73.0248 117.476 73.685 117.378 74.2631 117.183C74.8413 116.98 75.4038 116.698 75.9506 116.339V119.398C75.4038 119.741 74.8295 119.987 74.228 120.136C73.6342 120.292 72.8803 120.37 71.9663 120.37ZM90.4238 113.562C90.4238 114.655 90.2753 115.624 89.9784 116.468C89.6894 117.312 89.2636 118.026 88.7011 118.612C88.1464 119.19 87.4745 119.628 86.6855 119.925C85.9042 120.222 85.0214 120.37 84.037 120.37C83.1152 120.37 82.2675 120.222 81.4941 119.925C80.7284 119.628 80.0605 119.19 79.4902 118.612C78.9277 118.026 78.4902 117.312 78.1777 116.468C77.873 115.624 77.7206 114.655 77.7206 113.562C77.7206 112.108 77.9784 110.878 78.4941 109.87C79.0097 108.862 79.7441 108.097 80.6972 107.573C81.6503 107.05 82.787 106.788 84.1073 106.788C85.3339 106.788 86.4198 107.05 87.3652 107.573C88.3183 108.097 89.0644 108.862 89.6034 109.87C90.1503 110.878 90.4238 112.108 90.4238 113.562ZM81.3652 113.562C81.3652 114.421 81.4589 115.144 81.6464 115.73C81.8339 116.315 82.1269 116.757 82.5253 117.054C82.9238 117.351 83.4433 117.499 84.0839 117.499C84.7167 117.499 85.2284 117.351 85.6191 117.054C86.0175 116.757 86.3066 116.315 86.4863 115.73C86.6738 115.144 86.7675 114.421 86.7675 113.562C86.7675 112.694 86.6738 111.976 86.4863 111.405C86.3066 110.827 86.0175 110.394 85.6191 110.105C85.2206 109.815 84.7011 109.671 84.0605 109.671C83.1152 109.671 82.4277 109.995 81.998 110.644C81.5761 111.292 81.3652 112.265 81.3652 113.562ZM100.338 106.788C101.737 106.788 102.862 107.171 103.713 107.937C104.565 108.694 104.991 109.913 104.991 111.593V120.136H101.416V112.483C101.416 111.546 101.245 110.839 100.901 110.362C100.565 109.886 100.034 109.648 99.307 109.648C98.2133 109.648 97.4672 110.019 97.0688 110.761C96.6703 111.503 96.4711 112.573 96.4711 113.972V120.136H92.8969V107.034H95.6273L96.1078 108.71H96.307C96.5883 108.257 96.9359 107.89 97.35 107.608C97.7719 107.327 98.2367 107.12 98.7445 106.987C99.2602 106.855 99.7914 106.788 100.338 106.788ZM113.71 117.523C114.1 117.523 114.479 117.483 114.847 117.405C115.222 117.327 115.593 117.23 115.96 117.112V119.773C115.577 119.944 115.1 120.085 114.53 120.194C113.968 120.312 113.35 120.37 112.679 120.37C111.897 120.37 111.194 120.245 110.569 119.995C109.952 119.737 109.464 119.296 109.104 118.671C108.753 118.038 108.577 117.159 108.577 116.034V109.718H106.866V108.206L108.835 107.011L109.866 104.245H112.151V107.034H115.819V109.718H112.151V116.034C112.151 116.534 112.292 116.909 112.573 117.159C112.862 117.401 113.241 117.523 113.71 117.523ZM125.453 106.788C125.632 106.788 125.839 106.8 126.074 106.823C126.316 106.839 126.511 106.862 126.66 106.894L126.39 110.245C126.273 110.206 126.105 110.179 125.886 110.163C125.675 110.14 125.492 110.128 125.335 110.128C124.874 110.128 124.425 110.187 123.988 110.304C123.558 110.421 123.171 110.612 122.828 110.878C122.484 111.136 122.21 111.48 122.007 111.909C121.812 112.331 121.714 112.851 121.714 113.468V120.136H118.14V107.034H120.847L121.374 109.237H121.55C121.808 108.792 122.128 108.386 122.511 108.019C122.902 107.644 123.343 107.347 123.835 107.128C124.335 106.901 124.874 106.788 125.453 106.788ZM133.961 106.788C135.172 106.788 136.215 107.023 137.09 107.491C137.965 107.952 138.64 108.624 139.117 109.507C139.594 110.39 139.832 111.468 139.832 112.741V114.476H131.383C131.422 115.483 131.723 116.276 132.285 116.855C132.855 117.425 133.644 117.71 134.652 117.71C135.488 117.71 136.254 117.624 136.949 117.452C137.644 117.28 138.359 117.023 139.094 116.679V119.444C138.445 119.765 137.765 119.999 137.055 120.148C136.351 120.296 135.496 120.37 134.488 120.37C133.176 120.37 132.012 120.128 130.996 119.644C129.988 119.159 129.195 118.421 128.617 117.429C128.047 116.437 127.762 115.187 127.762 113.679C127.762 112.148 128.019 110.874 128.535 109.858C129.058 108.835 129.785 108.069 130.715 107.562C131.644 107.046 132.726 106.788 133.961 106.788ZM133.984 109.331C133.289 109.331 132.711 109.554 132.25 109.999C131.797 110.444 131.535 111.144 131.465 112.097H136.48C136.473 111.565 136.375 111.093 136.187 110.679C136.008 110.265 135.734 109.937 135.367 109.694C135.008 109.452 134.547 109.331 133.984 109.331ZM157.153 116.245C157.153 117.136 156.942 117.89 156.52 118.507C156.106 119.116 155.485 119.581 154.657 119.901C153.829 120.214 152.798 120.37 151.563 120.37C150.649 120.37 149.864 120.312 149.208 120.194C148.559 120.077 147.903 119.882 147.239 119.608V116.655C147.95 116.976 148.712 117.241 149.524 117.452C150.345 117.655 151.063 117.757 151.68 117.757C152.376 117.757 152.872 117.655 153.169 117.452C153.473 117.241 153.626 116.968 153.626 116.632C153.626 116.413 153.563 116.218 153.438 116.046C153.321 115.866 153.063 115.667 152.665 115.448C152.266 115.222 151.641 114.929 150.79 114.569C149.97 114.226 149.294 113.878 148.763 113.526C148.239 113.175 147.848 112.761 147.591 112.284C147.341 111.8 147.216 111.187 147.216 110.444C147.216 109.233 147.684 108.323 148.622 107.714C149.567 107.097 150.829 106.788 152.407 106.788C153.22 106.788 153.993 106.87 154.727 107.034C155.47 107.198 156.231 107.46 157.013 107.819L155.934 110.398C155.286 110.116 154.673 109.886 154.095 109.706C153.524 109.526 152.942 109.437 152.348 109.437C151.825 109.437 151.43 109.507 151.165 109.648C150.899 109.788 150.766 110.003 150.766 110.292C150.766 110.503 150.833 110.69 150.966 110.855C151.106 111.019 151.372 111.202 151.763 111.405C152.161 111.601 152.743 111.855 153.509 112.167C154.251 112.472 154.895 112.792 155.442 113.128C155.989 113.456 156.411 113.866 156.708 114.358C157.005 114.843 157.153 115.472 157.153 116.245ZM164.865 106.788C166.075 106.788 167.118 107.023 167.993 107.491C168.868 107.952 169.544 108.624 170.021 109.507C170.497 110.39 170.736 111.468 170.736 112.741V114.476H162.286C162.325 115.483 162.626 116.276 163.189 116.855C163.759 117.425 164.548 117.71 165.556 117.71C166.392 117.71 167.158 117.624 167.853 117.452C168.548 117.28 169.263 117.023 169.997 116.679V119.444C169.349 119.765 168.669 119.999 167.958 120.148C167.255 120.296 166.4 120.37 165.392 120.37C164.079 120.37 162.915 120.128 161.9 119.644C160.892 119.159 160.099 118.421 159.521 117.429C158.95 116.437 158.665 115.187 158.665 113.679C158.665 112.148 158.923 110.874 159.439 109.858C159.962 108.835 160.689 108.069 161.618 107.562C162.548 107.046 163.63 106.788 164.865 106.788ZM164.888 109.331C164.193 109.331 163.615 109.554 163.154 109.999C162.7 110.444 162.439 111.144 162.368 112.097H167.384C167.376 111.565 167.279 111.093 167.091 110.679C166.911 110.265 166.638 109.937 166.271 109.694C165.911 109.452 165.45 109.331 164.888 109.331ZM185.185 107.034V120.136H182.443L181.963 118.46H181.775C181.494 118.905 181.142 119.269 180.72 119.55C180.299 119.831 179.834 120.038 179.326 120.171C178.818 120.304 178.291 120.37 177.744 120.37C176.806 120.37 175.99 120.206 175.295 119.878C174.599 119.542 174.056 119.023 173.666 118.319C173.283 117.616 173.092 116.702 173.092 115.577V107.034H176.666V114.687C176.666 115.624 176.834 116.331 177.17 116.808C177.506 117.284 178.041 117.523 178.775 117.523C179.502 117.523 180.072 117.358 180.486 117.03C180.9 116.694 181.189 116.206 181.353 115.565C181.525 114.917 181.611 114.128 181.611 113.198V107.034H185.185ZM209.596 106.788C211.081 106.788 212.202 107.171 212.96 107.937C213.725 108.694 214.108 109.913 214.108 111.593V120.136H210.522V112.483C210.522 111.546 210.362 110.839 210.042 110.362C209.721 109.886 209.225 109.648 208.553 109.648C207.608 109.648 206.936 109.987 206.538 110.667C206.139 111.339 205.94 112.304 205.94 113.562V120.136H202.366V112.483C202.366 111.858 202.296 111.335 202.155 110.913C202.014 110.491 201.8 110.175 201.51 109.964C201.221 109.753 200.85 109.648 200.397 109.648C199.733 109.648 199.21 109.815 198.827 110.151C198.452 110.48 198.182 110.968 198.018 111.616C197.862 112.257 197.784 113.042 197.784 113.972V120.136H194.21V107.034H196.94L197.421 108.71H197.62C197.885 108.257 198.217 107.89 198.616 107.608C199.022 107.327 199.467 107.12 199.952 106.987C200.436 106.855 200.928 106.788 201.428 106.788C202.389 106.788 203.202 106.944 203.866 107.257C204.538 107.569 205.053 108.054 205.413 108.71H205.729C206.12 108.038 206.671 107.55 207.382 107.245C208.1 106.94 208.839 106.788 209.596 106.788ZM222.71 106.788C223.921 106.788 224.964 107.023 225.839 107.491C226.714 107.952 227.39 108.624 227.866 109.507C228.343 110.39 228.581 111.468 228.581 112.741V114.476H220.132C220.171 115.483 220.472 116.276 221.034 116.855C221.605 117.425 222.394 117.71 223.402 117.71C224.238 117.71 225.003 117.624 225.698 117.452C226.394 117.28 227.109 117.023 227.843 116.679V119.444C227.195 119.765 226.515 119.999 225.804 120.148C225.101 120.296 224.245 120.37 223.238 120.37C221.925 120.37 220.761 120.128 219.745 119.644C218.738 119.159 217.945 118.421 217.366 117.429C216.796 116.437 216.511 115.187 216.511 113.679C216.511 112.148 216.769 110.874 217.284 109.858C217.808 108.835 218.534 108.069 219.464 107.562C220.394 107.046 221.476 106.788 222.71 106.788ZM222.734 109.331C222.038 109.331 221.46 109.554 220.999 109.999C220.546 110.444 220.284 111.144 220.214 112.097H225.23C225.222 111.565 225.124 111.093 224.937 110.679C224.757 110.265 224.484 109.937 224.116 109.694C223.757 109.452 223.296 109.331 222.734 109.331ZM235.156 120.37C233.695 120.37 232.504 119.8 231.582 118.659C230.668 117.511 230.211 115.827 230.211 113.608C230.211 111.366 230.675 109.671 231.605 108.523C232.535 107.366 233.75 106.788 235.25 106.788C235.875 106.788 236.425 106.874 236.902 107.046C237.379 107.218 237.789 107.448 238.133 107.737C238.484 108.026 238.781 108.351 239.023 108.71H239.14C239.093 108.46 239.035 108.093 238.965 107.608C238.902 107.116 238.871 106.612 238.871 106.097V101.901H242.457V120.136H239.715L239.023 118.437H238.871C238.644 118.796 238.359 119.124 238.015 119.421C237.679 119.71 237.277 119.94 236.808 120.112C236.34 120.284 235.789 120.37 235.156 120.37ZM236.41 117.523C237.386 117.523 238.074 117.233 238.472 116.655C238.879 116.069 239.093 115.19 239.117 114.019V113.632C239.117 112.358 238.922 111.386 238.531 110.714C238.14 110.034 237.414 109.694 236.351 109.694C235.562 109.694 234.945 110.034 234.5 110.714C234.054 111.394 233.832 112.374 233.832 113.655C233.832 114.937 234.054 115.901 234.5 116.55C234.953 117.198 235.59 117.523 236.41 117.523ZM249.289 107.034V120.136H245.715V107.034H249.289ZM247.508 101.901C248.039 101.901 248.496 102.026 248.879 102.276C249.262 102.519 249.453 102.976 249.453 103.648C249.453 104.312 249.262 104.773 248.879 105.03C248.496 105.28 248.039 105.405 247.508 105.405C246.969 105.405 246.508 105.28 246.125 105.03C245.75 104.773 245.563 104.312 245.563 103.648C245.563 102.976 245.75 102.519 246.125 102.276C246.508 102.026 246.969 101.901 247.508 101.901ZM257.891 120.37C256.594 120.37 255.489 120.136 254.575 119.667C253.661 119.19 252.965 118.456 252.489 117.464C252.012 116.472 251.774 115.202 251.774 113.655C251.774 112.054 252.044 110.749 252.583 109.741C253.13 108.726 253.883 107.98 254.844 107.503C255.813 107.026 256.934 106.788 258.208 106.788C259.114 106.788 259.895 106.878 260.551 107.058C261.215 107.23 261.794 107.437 262.286 107.679L261.231 110.444C260.669 110.218 260.145 110.034 259.661 109.894C259.176 109.745 258.692 109.671 258.208 109.671C257.583 109.671 257.063 109.819 256.649 110.116C256.235 110.405 255.926 110.843 255.723 111.429C255.52 112.015 255.419 112.749 255.419 113.632C255.419 114.499 255.528 115.218 255.747 115.788C255.965 116.358 256.282 116.784 256.696 117.065C257.11 117.339 257.614 117.476 258.208 117.476C258.95 117.476 259.61 117.378 260.188 117.183C260.766 116.98 261.329 116.698 261.876 116.339V119.398C261.329 119.741 260.755 119.987 260.153 120.136C259.559 120.292 258.805 120.37 257.891 120.37ZM269.81 106.765C271.568 106.765 272.915 107.148 273.853 107.913C274.79 108.679 275.259 109.843 275.259 111.405V120.136H272.763L272.071 118.355H271.978C271.603 118.823 271.22 119.206 270.829 119.503C270.439 119.8 269.989 120.019 269.482 120.159C268.974 120.3 268.357 120.37 267.63 120.37C266.857 120.37 266.161 120.222 265.544 119.925C264.935 119.628 264.454 119.175 264.103 118.565C263.751 117.948 263.575 117.167 263.575 116.222C263.575 114.831 264.064 113.808 265.04 113.151C266.017 112.487 267.482 112.12 269.435 112.05L271.708 111.98V111.405C271.708 110.718 271.528 110.214 271.169 109.894C270.81 109.573 270.31 109.413 269.669 109.413C269.036 109.413 268.415 109.503 267.806 109.683C267.196 109.862 266.587 110.089 265.978 110.362L264.794 107.948C265.489 107.581 266.267 107.292 267.126 107.081C267.993 106.87 268.888 106.765 269.81 106.765ZM271.708 114.065L270.325 114.112C269.169 114.144 268.364 114.351 267.911 114.733C267.466 115.116 267.243 115.62 267.243 116.245C267.243 116.792 267.403 117.183 267.724 117.417C268.044 117.644 268.462 117.757 268.978 117.757C269.743 117.757 270.388 117.53 270.911 117.077C271.443 116.624 271.708 115.98 271.708 115.144V114.065ZM293.857 106.788C295.341 106.788 296.463 107.171 297.22 107.937C297.986 108.694 298.369 109.913 298.369 111.593V120.136H294.783V112.483C294.783 111.546 294.623 110.839 294.302 110.362C293.982 109.886 293.486 109.648 292.814 109.648C291.869 109.648 291.197 109.987 290.798 110.667C290.4 111.339 290.201 112.304 290.201 113.562V120.136H286.627V112.483C286.627 111.858 286.556 111.335 286.416 110.913C286.275 110.491 286.06 110.175 285.771 109.964C285.482 109.753 285.111 109.648 284.658 109.648C283.994 109.648 283.47 109.815 283.088 110.151C282.713 110.48 282.443 110.968 282.279 111.616C282.123 112.257 282.045 113.042 282.045 113.972V120.136H278.47V107.034H281.201L281.681 108.71H281.88C282.146 108.257 282.478 107.89 282.877 107.608C283.283 107.327 283.728 107.12 284.213 106.987C284.697 106.855 285.189 106.788 285.689 106.788C286.65 106.788 287.463 106.944 288.127 107.257C288.798 107.569 289.314 108.054 289.673 108.71H289.99C290.38 108.038 290.931 107.55 291.642 107.245C292.361 106.94 293.099 106.788 293.857 106.788ZM306.971 106.788C308.182 106.788 309.225 107.023 310.1 107.491C310.975 107.952 311.65 108.624 312.127 109.507C312.604 110.39 312.842 111.468 312.842 112.741V114.476H304.393C304.432 115.483 304.732 116.276 305.295 116.855C305.865 117.425 306.654 117.71 307.662 117.71C308.498 117.71 309.264 117.624 309.959 117.452C310.654 117.28 311.369 117.023 312.104 116.679V119.444C311.455 119.765 310.775 119.999 310.065 120.148C309.361 120.296 308.506 120.37 307.498 120.37C306.186 120.37 305.022 120.128 304.006 119.644C302.998 119.159 302.205 118.421 301.627 117.429C301.057 116.437 300.772 115.187 300.772 113.679C300.772 112.148 301.029 110.874 301.545 109.858C302.068 108.835 302.795 108.069 303.725 107.562C304.654 107.046 305.736 106.788 306.971 106.788ZM306.994 109.331C306.299 109.331 305.721 109.554 305.26 109.999C304.807 110.444 304.545 111.144 304.475 112.097H309.49C309.482 111.565 309.385 111.093 309.197 110.679C309.018 110.265 308.744 109.937 308.377 109.694C308.018 109.452 307.557 109.331 306.994 109.331ZM322.71 106.788C324.108 106.788 325.233 107.171 326.085 107.937C326.936 108.694 327.362 109.913 327.362 111.593V120.136H323.788V112.483C323.788 111.546 323.616 110.839 323.272 110.362C322.936 109.886 322.405 109.648 321.678 109.648C320.585 109.648 319.838 110.019 319.44 110.761C319.042 111.503 318.842 112.573 318.842 113.972V120.136H315.268V107.034H317.999L318.479 108.71H318.678C318.96 108.257 319.307 107.89 319.721 107.608C320.143 107.327 320.608 107.12 321.116 106.987C321.631 106.855 322.163 106.788 322.71 106.788ZM336.081 117.523C336.472 117.523 336.851 117.483 337.218 117.405C337.593 117.327 337.964 117.23 338.331 117.112V119.773C337.948 119.944 337.472 120.085 336.901 120.194C336.339 120.312 335.722 120.37 335.05 120.37C334.269 120.37 333.565 120.245 332.94 119.995C332.323 119.737 331.835 119.296 331.476 118.671C331.124 118.038 330.948 117.159 330.948 116.034V109.718H329.237V108.206L331.206 107.011L332.237 104.245H334.523V107.034H338.19V109.718H334.523V116.034C334.523 116.534 334.663 116.909 334.944 117.159C335.233 117.401 335.612 117.523 336.081 117.523ZM352.417 113.562C352.417 114.655 352.269 115.624 351.972 116.468C351.683 117.312 351.257 118.026 350.695 118.612C350.14 119.19 349.468 119.628 348.679 119.925C347.898 120.222 347.015 120.37 346.031 120.37C345.109 120.37 344.261 120.222 343.488 119.925C342.722 119.628 342.054 119.19 341.484 118.612C340.921 118.026 340.484 117.312 340.171 116.468C339.867 115.624 339.714 114.655 339.714 113.562C339.714 112.108 339.972 110.878 340.488 109.87C341.003 108.862 341.738 108.097 342.691 107.573C343.644 107.05 344.781 106.788 346.101 106.788C347.328 106.788 348.414 107.05 349.359 107.573C350.312 108.097 351.058 108.862 351.597 109.87C352.144 110.878 352.417 112.108 352.417 113.562ZM343.359 113.562C343.359 114.421 343.453 115.144 343.64 115.73C343.828 116.315 344.121 116.757 344.519 117.054C344.917 117.351 345.437 117.499 346.078 117.499C346.71 117.499 347.222 117.351 347.613 117.054C348.011 116.757 348.3 116.315 348.48 115.73C348.667 115.144 348.761 114.421 348.761 113.562C348.761 112.694 348.667 111.976 348.48 111.405C348.3 110.827 348.011 110.394 347.613 110.105C347.214 109.815 346.695 109.671 346.054 109.671C345.109 109.671 344.421 109.995 343.992 110.644C343.57 111.292 343.359 112.265 343.359 113.562Z" fill="black"/>
<path d="M38.6263 129.714C40.1002 129.714 41.1757 130.003 41.8528 130.581C42.5351 131.154 42.8763 131.977 42.8763 133.05C42.8763 133.534 42.7955 133.995 42.6341 134.433C42.4778 134.865 42.2226 135.248 41.8684 135.581C41.5143 135.909 41.0481 136.17 40.47 136.362C39.8971 136.55 39.194 136.644 38.3606 136.644H36.97V141.136H35.6419V129.714H38.6263ZM38.5013 130.847H36.97V135.503H38.2122C38.9414 135.503 39.5481 135.425 40.0325 135.269C40.5221 135.112 40.8893 134.86 41.1341 134.511C41.3789 134.157 41.5013 133.688 41.5013 133.105C41.5013 132.344 41.2591 131.779 40.7747 131.409C40.2903 131.034 39.5325 130.847 38.5013 130.847ZM48.0484 132.417C48.7776 132.417 49.4026 132.578 49.9234 132.901C50.4443 133.224 50.8427 133.677 51.1188 134.261C51.3948 134.839 51.5328 135.516 51.5328 136.292V137.097H45.6188C45.6344 138.102 45.8844 138.868 46.3688 139.394C46.8531 139.92 47.5354 140.183 48.4156 140.183C48.9573 140.183 49.4365 140.133 49.8531 140.034C50.2698 139.935 50.7021 139.789 51.15 139.597V140.737C50.7177 140.93 50.288 141.071 49.8609 141.159C49.4391 141.248 48.9391 141.292 48.3609 141.292C47.538 141.292 46.8193 141.125 46.2047 140.792C45.5953 140.453 45.1214 139.959 44.7828 139.308C44.4443 138.657 44.275 137.86 44.275 136.917C44.275 135.995 44.4286 135.198 44.7359 134.526C45.0484 133.849 45.4859 133.328 46.0484 132.964C46.6161 132.599 47.2828 132.417 48.0484 132.417ZM48.0328 133.48C47.3401 133.48 46.788 133.706 46.3766 134.159C45.9651 134.612 45.7203 135.245 45.6422 136.058H50.1734C50.1682 135.547 50.0875 135.099 49.9313 134.714C49.7802 134.323 49.5484 134.021 49.2359 133.808C48.9234 133.589 48.5224 133.48 48.0328 133.48ZM58.955 138.792C58.955 139.339 58.817 139.8 58.5409 140.175C58.2701 140.545 57.8795 140.823 57.3691 141.011C56.8639 141.198 56.2597 141.292 55.5566 141.292C54.9576 141.292 54.4394 141.245 54.0019 141.151C53.5644 141.058 53.1816 140.925 52.8534 140.753V139.558C53.2024 139.73 53.6191 139.886 54.1034 140.026C54.5878 140.167 55.0826 140.237 55.5878 140.237C56.3274 140.237 56.8639 140.118 57.1972 139.878C57.5305 139.638 57.6972 139.313 57.6972 138.901C57.6972 138.667 57.6295 138.461 57.4941 138.284C57.3639 138.102 57.1425 137.927 56.83 137.761C56.5175 137.589 56.0852 137.401 55.5331 137.198C54.9863 136.99 54.5123 136.784 54.1113 136.581C53.7154 136.373 53.4081 136.12 53.1894 135.823C52.9758 135.526 52.8691 135.141 52.8691 134.667C52.8691 133.943 53.1607 133.388 53.7441 133.003C54.3326 132.612 55.1034 132.417 56.0566 132.417C56.5722 132.417 57.054 132.469 57.5019 132.573C57.955 132.672 58.3769 132.808 58.7675 132.98L58.33 134.019C57.9758 133.868 57.5982 133.74 57.1972 133.636C56.7961 133.532 56.3873 133.48 55.9706 133.48C55.3717 133.48 54.9107 133.578 54.5878 133.776C54.2701 133.974 54.1113 134.245 54.1113 134.589C54.1113 134.855 54.1842 135.073 54.33 135.245C54.481 135.417 54.7206 135.578 55.0488 135.73C55.3769 135.881 55.8092 136.058 56.3456 136.261C56.8821 136.459 57.3456 136.664 57.7363 136.878C58.1269 137.086 58.4264 137.342 58.6347 137.644C58.8482 137.94 58.955 138.323 58.955 138.792ZM66.4631 144.964V141.292C66.4631 141.089 66.4683 140.855 66.4788 140.589C66.4892 140.323 66.5074 140.094 66.5334 139.901H66.4475C66.2079 140.297 65.8668 140.628 65.4241 140.894C64.9814 141.159 64.411 141.292 63.7131 141.292C62.6663 141.292 61.8251 140.922 61.1897 140.183C60.5543 139.443 60.2366 138.339 60.2366 136.87C60.2366 135.907 60.3824 135.094 60.6741 134.433C60.9657 133.771 61.3772 133.271 61.9084 132.933C62.4449 132.589 63.0699 132.417 63.7834 132.417C64.4657 132.417 65.023 132.552 65.4553 132.823C65.8876 133.089 66.2261 133.414 66.4709 133.8H66.5334L66.7288 132.573H67.76V144.964H66.4631ZM63.9553 140.214C64.5595 140.214 65.0439 140.102 65.4084 139.878C65.773 139.649 66.0386 139.305 66.2053 138.847C66.3772 138.388 66.4683 137.818 66.4788 137.136V136.862C66.4788 135.758 66.2913 134.922 65.9163 134.355C65.5413 133.782 64.8876 133.495 63.9553 133.495C63.1532 133.495 62.5569 133.802 62.1663 134.417C61.7756 135.026 61.5803 135.855 61.5803 136.901C61.5803 137.948 61.7756 138.763 62.1663 139.347C62.5569 139.925 63.1532 140.214 63.9553 140.214ZM77.2681 132.573V141.136H76.2056L76.0181 139.933H75.9478C75.7707 140.23 75.5416 140.48 75.2603 140.683C74.9791 140.886 74.6614 141.037 74.3072 141.136C73.9582 141.24 73.5858 141.292 73.19 141.292C72.5129 141.292 71.9452 141.183 71.4869 140.964C71.0285 140.745 70.6822 140.407 70.4478 139.948C70.2186 139.49 70.1041 138.901 70.1041 138.183V132.573H71.4166V138.089C71.4166 138.802 71.578 139.336 71.9009 139.69C72.2239 140.039 72.716 140.214 73.3775 140.214C74.0129 140.214 74.5181 140.094 74.8931 139.855C75.2733 139.615 75.5468 139.263 75.7134 138.8C75.8801 138.331 75.9634 137.758 75.9634 137.081V132.573H77.2681ZM80.9872 132.573V141.136H79.6903V132.573H80.9872ZM80.3544 129.37C80.5679 129.37 80.7502 129.44 80.9013 129.581C81.0575 129.717 81.1356 129.93 81.1356 130.222C81.1356 130.508 81.0575 130.722 80.9013 130.862C80.7502 131.003 80.5679 131.073 80.3544 131.073C80.1304 131.073 79.9429 131.003 79.7919 130.862C79.646 130.722 79.5731 130.508 79.5731 130.222C79.5731 129.93 79.646 129.717 79.7919 129.581C79.9429 129.44 80.1304 129.37 80.3544 129.37ZM88.9563 138.792C88.9563 139.339 88.8182 139.8 88.5422 140.175C88.2714 140.545 87.8807 140.823 87.3703 141.011C86.8651 141.198 86.2609 141.292 85.5578 141.292C84.9589 141.292 84.4406 141.245 84.0031 141.151C83.5656 141.058 83.1828 140.925 82.8547 140.753V139.558C83.2036 139.73 83.6203 139.886 84.1047 140.026C84.5891 140.167 85.0839 140.237 85.5891 140.237C86.3286 140.237 86.8651 140.118 87.1984 139.878C87.5318 139.638 87.6984 139.313 87.6984 138.901C87.6984 138.667 87.6307 138.461 87.4953 138.284C87.3651 138.102 87.1438 137.927 86.8313 137.761C86.5188 137.589 86.0865 137.401 85.5344 137.198C84.9875 136.99 84.5135 136.784 84.1125 136.581C83.7167 136.373 83.4094 136.12 83.1906 135.823C82.9771 135.526 82.8703 135.141 82.8703 134.667C82.8703 133.943 83.162 133.388 83.7453 133.003C84.3339 132.612 85.1047 132.417 86.0578 132.417C86.5734 132.417 87.0552 132.469 87.5031 132.573C87.9563 132.672 88.3781 132.808 88.7688 132.98L88.3313 134.019C87.9771 133.868 87.5995 133.74 87.1984 133.636C86.7974 133.532 86.3885 133.48 85.9719 133.48C85.3729 133.48 84.912 133.578 84.5891 133.776C84.2714 133.974 84.1125 134.245 84.1125 134.589C84.1125 134.855 84.1854 135.073 84.3313 135.245C84.4823 135.417 84.7219 135.578 85.05 135.73C85.3781 135.881 85.8104 136.058 86.3469 136.261C86.8833 136.459 87.3469 136.664 87.7375 136.878C88.1281 137.086 88.4276 137.342 88.6359 137.644C88.8495 137.94 88.9563 138.323 88.9563 138.792ZM94.0191 132.417C94.7482 132.417 95.3732 132.578 95.8941 132.901C96.4149 133.224 96.8133 133.677 97.0894 134.261C97.3654 134.839 97.5034 135.516 97.5034 136.292V137.097H91.5894C91.605 138.102 91.855 138.868 92.3394 139.394C92.8237 139.92 93.506 140.183 94.3862 140.183C94.9279 140.183 95.4071 140.133 95.8237 140.034C96.2404 139.935 96.6727 139.789 97.1206 139.597V140.737C96.6883 140.93 96.2586 141.071 95.8316 141.159C95.4097 141.248 94.9097 141.292 94.3316 141.292C93.5086 141.292 92.7899 141.125 92.1753 140.792C91.5659 140.453 91.092 139.959 90.7534 139.308C90.4149 138.657 90.2456 137.86 90.2456 136.917C90.2456 135.995 90.3993 135.198 90.7066 134.526C91.0191 133.849 91.4566 133.328 92.0191 132.964C92.5868 132.599 93.2534 132.417 94.0191 132.417ZM94.0034 133.48C93.3107 133.48 92.7586 133.706 92.3472 134.159C91.9357 134.612 91.6909 135.245 91.6128 136.058H96.1441C96.1389 135.547 96.0581 135.099 95.9019 134.714C95.7508 134.323 95.5191 134.021 95.2066 133.808C94.8941 133.589 94.493 133.48 94.0034 133.48ZM110.606 136.839C110.606 137.542 110.514 138.17 110.332 138.722C110.15 139.274 109.887 139.74 109.543 140.12C109.199 140.5 108.783 140.792 108.293 140.995C107.809 141.193 107.259 141.292 106.645 141.292C106.072 141.292 105.546 141.193 105.067 140.995C104.593 140.792 104.181 140.5 103.832 140.12C103.488 139.74 103.22 139.274 103.028 138.722C102.84 138.17 102.746 137.542 102.746 136.839C102.746 135.901 102.905 135.105 103.223 134.448C103.541 133.787 103.994 133.284 104.582 132.94C105.176 132.592 105.882 132.417 106.699 132.417C107.481 132.417 108.163 132.592 108.746 132.94C109.335 133.289 109.791 133.795 110.113 134.456C110.442 135.112 110.606 135.907 110.606 136.839ZM104.09 136.839C104.09 137.526 104.181 138.123 104.363 138.628C104.546 139.133 104.827 139.524 105.207 139.8C105.587 140.076 106.077 140.214 106.676 140.214C107.27 140.214 107.757 140.076 108.137 139.8C108.522 139.524 108.806 139.133 108.988 138.628C109.171 138.123 109.262 137.526 109.262 136.839C109.262 136.157 109.171 135.568 108.988 135.073C108.806 134.573 108.525 134.188 108.145 133.917C107.764 133.646 107.272 133.511 106.668 133.511C105.778 133.511 105.124 133.805 104.707 134.394C104.296 134.982 104.09 135.797 104.09 136.839ZM118.067 138.792C118.067 139.339 117.929 139.8 117.653 140.175C117.382 140.545 116.991 140.823 116.481 141.011C115.976 141.198 115.372 141.292 114.668 141.292C114.069 141.292 113.551 141.245 113.114 141.151C112.676 141.058 112.293 140.925 111.965 140.753V139.558C112.314 139.73 112.731 139.886 113.215 140.026C113.7 140.167 114.194 140.237 114.7 140.237C115.439 140.237 115.976 140.118 116.309 139.878C116.642 139.638 116.809 139.313 116.809 138.901C116.809 138.667 116.741 138.461 116.606 138.284C116.476 138.102 116.254 137.927 115.942 137.761C115.629 137.589 115.197 137.401 114.645 137.198C114.098 136.99 113.624 136.784 113.223 136.581C112.827 136.373 112.52 136.12 112.301 135.823C112.088 135.526 111.981 135.141 111.981 134.667C111.981 133.943 112.273 133.388 112.856 133.003C113.444 132.612 114.215 132.417 115.168 132.417C115.684 132.417 116.166 132.469 116.614 132.573C117.067 132.672 117.489 132.808 117.879 132.98L117.442 134.019C117.088 133.868 116.71 133.74 116.309 133.636C115.908 133.532 115.499 133.48 115.083 133.48C114.484 133.48 114.023 133.578 113.7 133.776C113.382 133.974 113.223 134.245 113.223 134.589C113.223 134.855 113.296 135.073 113.442 135.245C113.593 135.417 113.833 135.578 114.161 135.73C114.489 135.881 114.921 136.058 115.458 136.261C115.994 136.459 116.458 136.664 116.848 136.878C117.239 137.086 117.538 137.342 117.747 137.644C117.96 137.94 118.067 138.323 118.067 138.792ZM132.966 132.417C133.909 132.417 134.62 132.664 135.099 133.159C135.578 133.649 135.818 134.438 135.818 135.526V141.136H134.536V135.589C134.536 134.896 134.385 134.378 134.083 134.034C133.786 133.685 133.344 133.511 132.755 133.511C131.927 133.511 131.325 133.75 130.95 134.23C130.575 134.709 130.388 135.414 130.388 136.347V141.136H129.099V135.589C129.099 135.125 129.031 134.74 128.896 134.433C128.765 134.125 128.568 133.896 128.302 133.745C128.041 133.589 127.711 133.511 127.31 133.511C126.742 133.511 126.286 133.628 125.943 133.862C125.599 134.097 125.349 134.446 125.193 134.909C125.041 135.368 124.966 135.933 124.966 136.605V141.136H123.669V132.573H124.716L124.911 133.784H124.982C125.153 133.487 125.37 133.237 125.63 133.034C125.89 132.831 126.182 132.677 126.505 132.573C126.828 132.469 127.172 132.417 127.536 132.417C128.187 132.417 128.732 132.539 129.169 132.784C129.612 133.024 129.932 133.391 130.13 133.886H130.2C130.482 133.391 130.867 133.024 131.357 132.784C131.846 132.539 132.383 132.417 132.966 132.417ZM141.458 132.417C142.188 132.417 142.813 132.578 143.333 132.901C143.854 133.224 144.253 133.677 144.529 134.261C144.805 134.839 144.943 135.516 144.943 136.292V137.097H139.029C139.044 138.102 139.294 138.868 139.779 139.394C140.263 139.92 140.945 140.183 141.826 140.183C142.367 140.183 142.846 140.133 143.263 140.034C143.68 139.935 144.112 139.789 144.56 139.597V140.737C144.128 140.93 143.698 141.071 143.271 141.159C142.849 141.248 142.349 141.292 141.771 141.292C140.948 141.292 140.229 141.125 139.615 140.792C139.005 140.453 138.531 139.959 138.193 139.308C137.854 138.657 137.685 137.86 137.685 136.917C137.685 135.995 137.839 135.198 138.146 134.526C138.458 133.849 138.896 133.328 139.458 132.964C140.026 132.599 140.693 132.417 141.458 132.417ZM141.443 133.48C140.75 133.48 140.198 133.706 139.787 134.159C139.375 134.612 139.13 135.245 139.052 136.058H143.583C143.578 135.547 143.497 135.099 143.341 134.714C143.19 134.323 142.958 134.021 142.646 133.808C142.333 133.589 141.932 133.48 141.443 133.48ZM149.873 141.292C148.789 141.292 147.93 140.922 147.295 140.183C146.664 139.443 146.349 138.344 146.349 136.886C146.349 135.412 146.672 134.3 147.318 133.55C147.964 132.795 148.823 132.417 149.896 132.417C150.349 132.417 150.745 132.477 151.084 132.597C151.422 132.717 151.714 132.878 151.959 133.081C152.204 133.279 152.409 133.506 152.576 133.761H152.67C152.649 133.599 152.628 133.378 152.607 133.097C152.586 132.815 152.576 132.586 152.576 132.409V128.98H153.873V141.136H152.826L152.631 139.917H152.576C152.414 140.172 152.209 140.404 151.959 140.612C151.714 140.821 151.42 140.987 151.076 141.112C150.737 141.232 150.336 141.292 149.873 141.292ZM150.076 140.214C150.993 140.214 151.641 139.953 152.021 139.433C152.401 138.912 152.592 138.138 152.592 137.112V136.878C152.592 135.789 152.409 134.953 152.045 134.37C151.685 133.787 151.029 133.495 150.076 133.495C149.279 133.495 148.683 133.802 148.287 134.417C147.891 135.026 147.693 135.86 147.693 136.917C147.693 137.969 147.888 138.782 148.279 139.355C148.675 139.927 149.274 140.214 150.076 140.214ZM157.6 132.573V141.136H156.303V132.573H157.6ZM156.967 129.37C157.18 129.37 157.363 129.44 157.514 129.581C157.67 129.717 157.748 129.93 157.748 130.222C157.748 130.508 157.67 130.722 157.514 130.862C157.363 131.003 157.18 131.073 156.967 131.073C156.743 131.073 156.555 131.003 156.404 130.862C156.259 130.722 156.186 130.508 156.186 130.222C156.186 129.93 156.259 129.717 156.404 129.581C156.555 129.44 156.743 129.37 156.967 129.37ZM163.459 141.292C162.689 141.292 162.009 141.133 161.42 140.815C160.832 140.498 160.373 140.013 160.045 139.362C159.717 138.711 159.553 137.891 159.553 136.901C159.553 135.865 159.725 135.019 160.069 134.362C160.418 133.701 160.897 133.211 161.506 132.894C162.116 132.576 162.808 132.417 163.584 132.417C164.011 132.417 164.423 132.461 164.819 132.55C165.22 132.633 165.548 132.74 165.803 132.87L165.413 133.956C165.152 133.852 164.85 133.758 164.506 133.675C164.168 133.592 163.85 133.55 163.553 133.55C162.959 133.55 162.465 133.677 162.069 133.933C161.678 134.188 161.384 134.563 161.186 135.058C160.993 135.552 160.897 136.162 160.897 136.886C160.897 137.578 160.991 138.17 161.178 138.659C161.371 139.149 161.655 139.524 162.03 139.784C162.41 140.039 162.884 140.167 163.452 140.167C163.905 140.167 164.314 140.12 164.678 140.026C165.043 139.927 165.373 139.813 165.67 139.683V140.839C165.384 140.985 165.064 141.097 164.709 141.175C164.36 141.253 163.944 141.292 163.459 141.292ZM170.585 132.433C171.606 132.433 172.363 132.662 172.858 133.12C173.353 133.578 173.6 134.31 173.6 135.315V141.136H172.655L172.405 139.87H172.342C172.103 140.183 171.853 140.446 171.592 140.659C171.332 140.868 171.03 141.026 170.686 141.136C170.348 141.24 169.931 141.292 169.436 141.292C168.915 141.292 168.452 141.201 168.046 141.019C167.645 140.836 167.327 140.56 167.092 140.19C166.863 139.821 166.749 139.352 166.749 138.784C166.749 137.93 167.087 137.274 167.764 136.815C168.441 136.357 169.473 136.107 170.858 136.065L172.335 136.003V135.48C172.335 134.74 172.176 134.222 171.858 133.925C171.54 133.628 171.092 133.48 170.514 133.48C170.066 133.48 169.639 133.545 169.233 133.675C168.827 133.805 168.441 133.959 168.077 134.136L167.678 133.151C168.064 132.953 168.507 132.784 169.007 132.644C169.507 132.503 170.033 132.433 170.585 132.433ZM172.319 136.917L171.014 136.972C169.947 137.013 169.194 137.188 168.757 137.495C168.319 137.802 168.1 138.237 168.1 138.8C168.1 139.289 168.249 139.651 168.546 139.886C168.842 140.12 169.236 140.237 169.725 140.237C170.486 140.237 171.108 140.026 171.592 139.605C172.077 139.183 172.319 138.55 172.319 137.706V136.917ZM185.249 132.417C186.192 132.417 186.903 132.664 187.382 133.159C187.861 133.649 188.101 134.438 188.101 135.526V141.136H186.819V135.589C186.819 134.896 186.668 134.378 186.366 134.034C186.069 133.685 185.627 133.511 185.038 133.511C184.21 133.511 183.608 133.75 183.233 134.23C182.858 134.709 182.671 135.414 182.671 136.347V141.136H181.382V135.589C181.382 135.125 181.314 134.74 181.179 134.433C181.049 134.125 180.851 133.896 180.585 133.745C180.325 133.589 179.994 133.511 179.593 133.511C179.025 133.511 178.569 133.628 178.226 133.862C177.882 134.097 177.632 134.446 177.476 134.909C177.325 135.368 177.249 135.933 177.249 136.605V141.136H175.952V132.573H176.999L177.194 133.784H177.265C177.437 133.487 177.653 133.237 177.913 133.034C178.174 132.831 178.465 132.677 178.788 132.573C179.111 132.469 179.455 132.417 179.819 132.417C180.47 132.417 181.015 132.539 181.452 132.784C181.895 133.024 182.215 133.391 182.413 133.886H182.483C182.765 133.391 183.15 133.024 183.64 132.784C184.129 132.539 184.666 132.417 185.249 132.417ZM193.742 132.417C194.471 132.417 195.096 132.578 195.617 132.901C196.137 133.224 196.536 133.677 196.812 134.261C197.088 134.839 197.226 135.516 197.226 136.292V137.097H191.312C191.327 138.102 191.577 138.868 192.062 139.394C192.546 139.92 193.229 140.183 194.109 140.183C194.65 140.183 195.13 140.133 195.546 140.034C195.963 139.935 196.395 139.789 196.843 139.597V140.737C196.411 140.93 195.981 141.071 195.554 141.159C195.132 141.248 194.632 141.292 194.054 141.292C193.231 141.292 192.512 141.125 191.898 140.792C191.288 140.453 190.814 139.959 190.476 139.308C190.137 138.657 189.968 137.86 189.968 136.917C189.968 135.995 190.122 135.198 190.429 134.526C190.742 133.849 191.179 133.328 191.742 132.964C192.309 132.599 192.976 132.417 193.742 132.417ZM193.726 133.48C193.033 133.48 192.481 133.706 192.07 134.159C191.658 134.612 191.413 135.245 191.335 136.058H195.867C195.861 135.547 195.781 135.099 195.624 134.714C195.473 134.323 195.242 134.021 194.929 133.808C194.617 133.589 194.216 133.48 193.726 133.48ZM203.164 132.417C204.179 132.417 204.948 132.667 205.468 133.167C205.989 133.662 206.25 134.459 206.25 135.558V141.136H204.968V135.644C204.968 134.93 204.804 134.396 204.476 134.042C204.153 133.688 203.656 133.511 202.984 133.511C202.036 133.511 201.369 133.779 200.984 134.315C200.599 134.852 200.406 135.631 200.406 136.651V141.136H199.109V132.573H200.156L200.351 133.808H200.422C200.604 133.506 200.836 133.253 201.117 133.05C201.398 132.842 201.713 132.685 202.062 132.581C202.411 132.472 202.778 132.417 203.164 132.417ZM211.367 140.23C211.581 140.23 211.799 140.211 212.023 140.175C212.247 140.138 212.43 140.094 212.57 140.042V141.05C212.419 141.118 212.208 141.175 211.938 141.222C211.672 141.269 211.411 141.292 211.156 141.292C210.703 141.292 210.292 141.214 209.922 141.058C209.552 140.896 209.255 140.625 209.031 140.245C208.812 139.865 208.703 139.339 208.703 138.667V133.589H207.484V132.956L208.711 132.448L209.227 130.589H210.008V132.573H212.516V133.589H210.008V138.628C210.008 139.164 210.13 139.565 210.375 139.831C210.625 140.097 210.956 140.23 211.367 140.23ZM221.368 136.839C221.368 137.542 221.276 138.17 221.094 138.722C220.912 139.274 220.649 139.74 220.305 140.12C219.961 140.5 219.545 140.792 219.055 140.995C218.571 141.193 218.021 141.292 217.407 141.292C216.834 141.292 216.308 141.193 215.828 140.995C215.354 140.792 214.943 140.5 214.594 140.12C214.25 139.74 213.982 139.274 213.789 138.722C213.602 138.17 213.508 137.542 213.508 136.839C213.508 135.901 213.667 135.105 213.985 134.448C214.302 133.787 214.756 133.284 215.344 132.94C215.938 132.592 216.644 132.417 217.461 132.417C218.243 132.417 218.925 132.592 219.508 132.94C220.097 133.289 220.552 133.795 220.875 134.456C221.203 135.112 221.368 135.907 221.368 136.839ZM214.852 136.839C214.852 137.526 214.943 138.123 215.125 138.628C215.308 139.133 215.589 139.524 215.969 139.8C216.349 140.076 216.839 140.214 217.438 140.214C218.032 140.214 218.519 140.076 218.899 139.8C219.284 139.524 219.568 139.133 219.75 138.628C219.933 138.123 220.024 137.526 220.024 136.839C220.024 136.157 219.933 135.568 219.75 135.073C219.568 134.573 219.287 134.188 218.907 133.917C218.526 133.646 218.034 133.511 217.43 133.511C216.539 133.511 215.886 133.805 215.469 134.394C215.058 134.982 214.852 135.797 214.852 136.839ZM228.829 138.792C228.829 139.339 228.691 139.8 228.415 140.175C228.144 140.545 227.753 140.823 227.243 141.011C226.738 141.198 226.133 141.292 225.43 141.292C224.831 141.292 224.313 141.245 223.876 141.151C223.438 141.058 223.055 140.925 222.727 140.753V139.558C223.076 139.73 223.493 139.886 223.977 140.026C224.462 140.167 224.956 140.237 225.462 140.237C226.201 140.237 226.738 140.118 227.071 139.878C227.404 139.638 227.571 139.313 227.571 138.901C227.571 138.667 227.503 138.461 227.368 138.284C227.238 138.102 227.016 137.927 226.704 137.761C226.391 137.589 225.959 137.401 225.407 137.198C224.86 136.99 224.386 136.784 223.985 136.581C223.589 136.373 223.282 136.12 223.063 135.823C222.85 135.526 222.743 135.141 222.743 134.667C222.743 133.943 223.034 133.388 223.618 133.003C224.206 132.612 224.977 132.417 225.93 132.417C226.446 132.417 226.928 132.469 227.376 132.573C227.829 132.672 228.251 132.808 228.641 132.98L228.204 134.019C227.85 133.868 227.472 133.74 227.071 133.636C226.67 133.532 226.261 133.48 225.844 133.48C225.245 133.48 224.784 133.578 224.462 133.776C224.144 133.974 223.985 134.245 223.985 134.589C223.985 134.855 224.058 135.073 224.204 135.245C224.355 135.417 224.594 135.578 224.923 135.73C225.251 135.881 225.683 136.058 226.219 136.261C226.756 136.459 227.219 136.664 227.61 136.878C228.001 137.086 228.3 137.342 228.508 137.644C228.722 137.94 228.829 138.323 228.829 138.792ZM240.173 144.964V141.292C240.173 141.089 240.178 140.855 240.189 140.589C240.199 140.323 240.217 140.094 240.243 139.901H240.158C239.918 140.297 239.577 140.628 239.134 140.894C238.691 141.159 238.121 141.292 237.423 141.292C236.376 141.292 235.535 140.922 234.9 140.183C234.264 139.443 233.947 138.339 233.947 136.87C233.947 135.907 234.092 135.094 234.384 134.433C234.676 133.771 235.087 133.271 235.618 132.933C236.155 132.589 236.78 132.417 237.493 132.417C238.176 132.417 238.733 132.552 239.165 132.823C239.598 133.089 239.936 133.414 240.181 133.8H240.243L240.439 132.573H241.47V144.964H240.173ZM237.665 140.214C238.269 140.214 238.754 140.102 239.118 139.878C239.483 139.649 239.749 139.305 239.915 138.847C240.087 138.388 240.178 137.818 240.189 137.136V136.862C240.189 135.758 240.001 134.922 239.626 134.355C239.251 133.782 238.598 133.495 237.665 133.495C236.863 133.495 236.267 133.802 235.876 134.417C235.486 135.026 235.29 135.855 235.29 136.901C235.29 137.948 235.486 138.763 235.876 139.347C236.267 139.925 236.863 140.214 237.665 140.214ZM250.978 132.573V141.136H249.916L249.728 139.933H249.658C249.481 140.23 249.252 140.48 248.97 140.683C248.689 140.886 248.371 141.037 248.017 141.136C247.668 141.24 247.296 141.292 246.9 141.292C246.223 141.292 245.655 141.183 245.197 140.964C244.739 140.745 244.392 140.407 244.158 139.948C243.929 139.49 243.814 138.901 243.814 138.183V132.573H245.127V138.089C245.127 138.802 245.288 139.336 245.611 139.69C245.934 140.039 246.426 140.214 247.087 140.214C247.723 140.214 248.228 140.094 248.603 139.855C248.983 139.615 249.257 139.263 249.423 138.8C249.59 138.331 249.673 137.758 249.673 137.081V132.573H250.978ZM256.697 132.417C257.426 132.417 258.051 132.578 258.572 132.901C259.093 133.224 259.491 133.677 259.768 134.261C260.044 134.839 260.182 135.516 260.182 136.292V137.097H254.268C254.283 138.102 254.533 138.868 255.018 139.394C255.502 139.92 256.184 140.183 257.064 140.183C257.606 140.183 258.085 140.133 258.502 140.034C258.919 139.935 259.351 139.789 259.799 139.597V140.737C259.366 140.93 258.937 141.071 258.51 141.159C258.088 141.248 257.588 141.292 257.01 141.292C256.187 141.292 255.468 141.125 254.853 140.792C254.244 140.453 253.77 139.959 253.432 139.308C253.093 138.657 252.924 137.86 252.924 136.917C252.924 135.995 253.077 135.198 253.385 134.526C253.697 133.849 254.135 133.328 254.697 132.964C255.265 132.599 255.932 132.417 256.697 132.417ZM256.682 133.48C255.989 133.48 255.437 133.706 255.025 134.159C254.614 134.612 254.369 135.245 254.291 136.058H258.822C258.817 135.547 258.736 135.099 258.58 134.714C258.429 134.323 258.197 134.021 257.885 133.808C257.572 133.589 257.171 133.48 256.682 133.48ZM268.948 141.292C267.864 141.292 267.005 140.922 266.37 140.183C265.739 139.443 265.424 138.344 265.424 136.886C265.424 135.412 265.747 134.3 266.393 133.55C267.039 132.795 267.898 132.417 268.971 132.417C269.424 132.417 269.82 132.477 270.159 132.597C270.497 132.717 270.789 132.878 271.034 133.081C271.279 133.279 271.484 133.506 271.651 133.761H271.745C271.724 133.599 271.703 133.378 271.682 133.097C271.661 132.815 271.651 132.586 271.651 132.409V128.98H272.948V141.136H271.901L271.706 139.917H271.651C271.489 140.172 271.284 140.404 271.034 140.612C270.789 140.821 270.495 140.987 270.151 141.112C269.812 141.232 269.411 141.292 268.948 141.292ZM269.151 140.214C270.068 140.214 270.716 139.953 271.096 139.433C271.476 138.912 271.667 138.138 271.667 137.112V136.878C271.667 135.789 271.484 134.953 271.12 134.37C270.76 133.787 270.104 133.495 269.151 133.495C268.354 133.495 267.758 133.802 267.362 134.417C266.966 135.026 266.768 135.86 266.768 136.917C266.768 137.969 266.963 138.782 267.354 139.355C267.75 139.927 268.349 140.214 269.151 140.214ZM278.675 132.417C279.404 132.417 280.029 132.578 280.55 132.901C281.071 133.224 281.469 133.677 281.745 134.261C282.021 134.839 282.159 135.516 282.159 136.292V137.097H276.245C276.261 138.102 276.511 138.868 276.995 139.394C277.479 139.92 278.162 140.183 279.042 140.183C279.584 140.183 280.063 140.133 280.479 140.034C280.896 139.935 281.328 139.789 281.776 139.597V140.737C281.344 140.93 280.914 141.071 280.487 141.159C280.065 141.248 279.565 141.292 278.987 141.292C278.164 141.292 277.446 141.125 276.831 140.792C276.222 140.453 275.748 139.959 275.409 139.308C275.071 138.657 274.901 137.86 274.901 136.917C274.901 135.995 275.055 135.198 275.362 134.526C275.675 133.849 276.112 133.328 276.675 132.964C277.242 132.599 277.909 132.417 278.675 132.417ZM278.659 133.48C277.966 133.48 277.414 133.706 277.003 134.159C276.591 134.612 276.347 135.245 276.268 136.058H280.8C280.794 135.547 280.714 135.099 280.557 134.714C280.406 134.323 280.175 134.021 279.862 133.808C279.55 133.589 279.149 133.48 278.659 133.48ZM289.581 138.792C289.581 139.339 289.443 139.8 289.167 140.175C288.896 140.545 288.506 140.823 287.995 141.011C287.49 141.198 286.886 141.292 286.183 141.292C285.584 141.292 285.066 141.245 284.628 141.151C284.191 141.058 283.808 140.925 283.48 140.753V139.558C283.829 139.73 284.245 139.886 284.73 140.026C285.214 140.167 285.709 140.237 286.214 140.237C286.954 140.237 287.49 140.118 287.823 139.878C288.157 139.638 288.323 139.313 288.323 138.901C288.323 138.667 288.256 138.461 288.12 138.284C287.99 138.102 287.769 137.927 287.456 137.761C287.144 137.589 286.711 137.401 286.159 137.198C285.613 136.99 285.139 136.784 284.738 136.581C284.342 136.373 284.034 136.12 283.816 135.823C283.602 135.526 283.495 135.141 283.495 134.667C283.495 133.943 283.787 133.388 284.37 133.003C284.959 132.612 285.73 132.417 286.683 132.417C287.198 132.417 287.68 132.469 288.128 132.573C288.581 132.672 289.003 132.808 289.394 132.98L288.956 134.019C288.602 133.868 288.224 133.74 287.823 133.636C287.422 133.532 287.014 133.48 286.597 133.48C285.998 133.48 285.537 133.578 285.214 133.776C284.896 133.974 284.738 134.245 284.738 134.589C284.738 134.855 284.81 135.073 284.956 135.245C285.107 135.417 285.347 135.578 285.675 135.73C286.003 135.881 286.435 136.058 286.972 136.261C287.508 136.459 287.972 136.664 288.363 136.878C288.753 137.086 289.053 137.342 289.261 137.644C289.474 137.94 289.581 138.323 289.581 138.792ZM294.644 132.417C295.373 132.417 295.998 132.578 296.519 132.901C297.04 133.224 297.438 133.677 297.714 134.261C297.99 134.839 298.128 135.516 298.128 136.292V137.097H292.214C292.23 138.102 292.48 138.868 292.964 139.394C293.449 139.92 294.131 140.183 295.011 140.183C295.553 140.183 296.032 140.133 296.449 140.034C296.865 139.935 297.298 139.789 297.746 139.597V140.737C297.313 140.93 296.884 141.071 296.457 141.159C296.035 141.248 295.535 141.292 294.957 141.292C294.134 141.292 293.415 141.125 292.8 140.792C292.191 140.453 291.717 139.959 291.378 139.308C291.04 138.657 290.871 137.86 290.871 136.917C290.871 135.995 291.024 135.198 291.332 134.526C291.644 133.849 292.082 133.328 292.644 132.964C293.212 132.599 293.878 132.417 294.644 132.417ZM294.628 133.48C293.936 133.48 293.384 133.706 292.972 134.159C292.561 134.612 292.316 135.245 292.238 136.058H296.769C296.764 135.547 296.683 135.099 296.527 134.714C296.376 134.323 296.144 134.021 295.832 133.808C295.519 133.589 295.118 133.48 294.628 133.48ZM298.98 144.98C298.715 144.98 298.483 144.959 298.285 144.917C298.087 144.881 297.915 144.836 297.769 144.784V143.73C297.931 143.782 298.095 143.821 298.262 143.847C298.428 143.878 298.616 143.894 298.824 143.894C299.178 143.894 299.465 143.795 299.683 143.597C299.902 143.399 300.012 143.039 300.012 142.519V132.573H301.308V142.487C301.308 143.008 301.225 143.453 301.058 143.823C300.892 144.198 300.637 144.485 300.293 144.683C299.949 144.881 299.512 144.98 298.98 144.98ZM299.894 130.222C299.894 129.93 299.967 129.717 300.113 129.581C300.264 129.44 300.452 129.37 300.676 129.37C300.889 129.37 301.071 129.44 301.223 129.581C301.379 129.717 301.457 129.93 301.457 130.222C301.457 130.508 301.379 130.722 301.223 130.862C301.071 131.003 300.889 131.073 300.676 131.073C300.452 131.073 300.264 131.003 300.113 130.862C299.967 130.722 299.894 130.508 299.894 130.222ZM306.942 132.433C307.962 132.433 308.72 132.662 309.215 133.12C309.71 133.578 309.957 134.31 309.957 135.315V141.136H309.012L308.762 139.87H308.699C308.46 140.183 308.21 140.446 307.949 140.659C307.689 140.868 307.387 141.026 307.043 141.136C306.705 141.24 306.288 141.292 305.793 141.292C305.272 141.292 304.809 141.201 304.402 141.019C304.001 140.836 303.684 140.56 303.449 140.19C303.22 139.821 303.106 139.352 303.106 138.784C303.106 137.93 303.444 137.274 304.121 136.815C304.798 136.357 305.83 136.107 307.215 136.065L308.692 136.003V135.48C308.692 134.74 308.533 134.222 308.215 133.925C307.897 133.628 307.449 133.48 306.871 133.48C306.423 133.48 305.996 133.545 305.59 133.675C305.184 133.805 304.798 133.959 304.434 134.136L304.035 133.151C304.421 132.953 304.863 132.784 305.363 132.644C305.863 132.503 306.389 132.433 306.942 132.433ZM308.676 136.917L307.371 136.972C306.304 137.013 305.551 137.188 305.113 137.495C304.676 137.802 304.457 138.237 304.457 138.8C304.457 139.289 304.606 139.651 304.902 139.886C305.199 140.12 305.593 140.237 306.082 140.237C306.843 140.237 307.465 140.026 307.949 139.605C308.434 139.183 308.676 138.55 308.676 137.706V136.917ZM319.442 132.417C320.171 132.417 320.796 132.578 321.317 132.901C321.838 133.224 322.236 133.677 322.513 134.261C322.789 134.839 322.927 135.516 322.927 136.292V137.097H317.013C317.028 138.102 317.278 138.868 317.763 139.394C318.247 139.92 318.929 140.183 319.809 140.183C320.351 140.183 320.83 140.133 321.247 140.034C321.664 139.935 322.096 139.789 322.544 139.597V140.737C322.111 140.93 321.682 141.071 321.255 141.159C320.833 141.248 320.333 141.292 319.755 141.292C318.932 141.292 318.213 141.125 317.598 140.792C316.989 140.453 316.515 139.959 316.177 139.308C315.838 138.657 315.669 137.86 315.669 136.917C315.669 135.995 315.822 135.198 316.13 134.526C316.442 133.849 316.88 133.328 317.442 132.964C318.01 132.599 318.677 132.417 319.442 132.417ZM319.427 133.48C318.734 133.48 318.182 133.706 317.77 134.159C317.359 134.612 317.114 135.245 317.036 136.058H321.567C321.562 135.547 321.481 135.099 321.325 134.714C321.174 134.323 320.942 134.021 320.63 133.808C320.317 133.589 319.916 133.48 319.427 133.48ZM330.529 141.136L327.279 132.573H328.669L330.552 137.753C330.682 138.107 330.815 138.498 330.951 138.925C331.086 139.352 331.18 139.696 331.232 139.956H331.287C331.349 139.696 331.453 139.352 331.599 138.925C331.745 138.493 331.878 138.102 331.997 137.753L333.88 132.573H335.271L332.013 141.136H330.529ZM339.623 132.417C340.352 132.417 340.977 132.578 341.498 132.901C342.019 133.224 342.417 133.677 342.693 134.261C342.969 134.839 343.107 135.516 343.107 136.292V137.097H337.193C337.209 138.102 337.459 138.868 337.943 139.394C338.427 139.92 339.11 140.183 339.99 140.183C340.532 140.183 341.011 140.133 341.427 140.034C341.844 139.935 342.276 139.789 342.724 139.597V140.737C342.292 140.93 341.862 141.071 341.435 141.159C341.013 141.248 340.513 141.292 339.935 141.292C339.112 141.292 338.394 141.125 337.779 140.792C337.17 140.453 336.696 139.959 336.357 139.308C336.019 138.657 335.849 137.86 335.849 136.917C335.849 135.995 336.003 135.198 336.31 134.526C336.623 133.849 337.06 133.328 337.623 132.964C338.191 132.599 338.857 132.417 339.623 132.417ZM339.607 133.48C338.914 133.48 338.362 133.706 337.951 134.159C337.539 134.612 337.295 135.245 337.217 136.058H341.748C341.743 135.547 341.662 135.099 341.506 134.714C341.355 134.323 341.123 134.021 340.81 133.808C340.498 133.589 340.097 133.48 339.607 133.48ZM343.959 144.98C343.693 144.98 343.462 144.959 343.264 144.917C343.066 144.881 342.894 144.836 342.748 144.784V143.73C342.91 143.782 343.074 143.821 343.24 143.847C343.407 143.878 343.594 143.894 343.803 143.894C344.157 143.894 344.443 143.795 344.662 143.597C344.881 143.399 344.99 143.039 344.99 142.519V132.573H346.287V142.487C346.287 143.008 346.204 143.453 346.037 143.823C345.871 144.198 345.615 144.485 345.272 144.683C344.928 144.881 344.49 144.98 343.959 144.98ZM344.873 130.222C344.873 129.93 344.946 129.717 345.092 129.581C345.243 129.44 345.43 129.37 345.654 129.37C345.868 129.37 346.05 129.44 346.201 129.581C346.358 129.717 346.436 129.93 346.436 130.222C346.436 130.508 346.358 130.722 346.201 130.862C346.05 131.003 345.868 131.073 345.654 131.073C345.43 131.073 345.243 131.003 345.092 130.862C344.946 130.722 344.873 130.508 344.873 130.222ZM351.92 132.433C352.941 132.433 353.699 132.662 354.194 133.12C354.689 133.578 354.936 134.31 354.936 135.315V141.136H353.991L353.741 139.87H353.678C353.439 140.183 353.189 140.446 352.928 140.659C352.668 140.868 352.366 141.026 352.022 141.136C351.683 141.24 351.267 141.292 350.772 141.292C350.251 141.292 349.788 141.201 349.381 141.019C348.98 140.836 348.663 140.56 348.428 140.19C348.199 139.821 348.084 139.352 348.084 138.784C348.084 137.93 348.423 137.274 349.1 136.815C349.777 136.357 350.808 136.107 352.194 136.065L353.67 136.003V135.48C353.67 134.74 353.511 134.222 353.194 133.925C352.876 133.628 352.428 133.48 351.85 133.48C351.402 133.48 350.975 133.545 350.569 133.675C350.163 133.805 349.777 133.959 349.413 134.136L349.014 133.151C349.399 132.953 349.842 132.784 350.342 132.644C350.842 132.503 351.368 132.433 351.92 132.433ZM353.655 136.917L352.35 136.972C351.282 137.013 350.53 137.188 350.092 137.495C349.655 137.802 349.436 138.237 349.436 138.8C349.436 139.289 349.584 139.651 349.881 139.886C350.178 140.12 350.571 140.237 351.061 140.237C351.821 140.237 352.444 140.026 352.928 139.605C353.413 139.183 353.655 138.55 353.655 137.706V136.917ZM36.2119 148.433C37.2327 148.433 37.9905 148.662 38.4853 149.12C38.9801 149.578 39.2275 150.31 39.2275 151.315V157.136H38.2822L38.0322 155.87H37.9697C37.7301 156.183 37.4801 156.446 37.2197 156.659C36.9593 156.868 36.6572 157.026 36.3134 157.136C35.9749 157.24 35.5582 157.292 35.0634 157.292C34.5426 157.292 34.0791 157.201 33.6728 157.019C33.2718 156.836 32.9541 156.56 32.7197 156.19C32.4905 155.821 32.3759 155.352 32.3759 154.784C32.3759 153.93 32.7145 153.274 33.3916 152.815C34.0686 152.357 35.0999 152.107 36.4853 152.065L37.9619 152.003V151.48C37.9619 150.74 37.803 150.222 37.4853 149.925C37.1676 149.628 36.7197 149.48 36.1416 149.48C35.6936 149.48 35.2666 149.545 34.8603 149.675C34.4541 149.805 34.0686 149.959 33.7041 150.136L33.3056 149.151C33.691 148.953 34.1337 148.784 34.6337 148.644C35.1337 148.503 35.6598 148.433 36.2119 148.433ZM37.9462 152.917L36.6416 152.972C35.5738 153.013 34.8212 153.188 34.3837 153.495C33.9462 153.802 33.7275 154.237 33.7275 154.8C33.7275 155.289 33.8759 155.651 34.1728 155.886C34.4697 156.12 34.8629 156.237 35.3525 156.237C36.1129 156.237 36.7353 156.026 37.2197 155.605C37.7041 155.183 37.9462 154.55 37.9462 153.706V152.917ZM48.4625 157.292C47.3792 157.292 46.5198 156.922 45.8844 156.183C45.2542 155.443 44.9391 154.344 44.9391 152.886C44.9391 151.412 45.262 150.3 45.9078 149.55C46.5536 148.795 47.413 148.417 48.4859 148.417C48.9391 148.417 49.3349 148.477 49.6734 148.597C50.012 148.717 50.3036 148.878 50.5484 149.081C50.7932 149.279 50.999 149.506 51.1656 149.761H51.2594C51.2385 149.599 51.2177 149.378 51.1969 149.097C51.176 148.815 51.1656 148.586 51.1656 148.409V144.98H52.4625V157.136H51.4156L51.2203 155.917H51.1656C51.0042 156.172 50.7984 156.404 50.5484 156.612C50.3036 156.821 50.0094 156.987 49.6656 157.112C49.3271 157.232 48.926 157.292 48.4625 157.292ZM48.6656 156.214C49.5823 156.214 50.2307 155.953 50.6109 155.433C50.9911 154.912 51.1812 154.138 51.1812 153.112V152.878C51.1812 151.789 50.999 150.953 50.6344 150.37C50.275 149.787 49.6187 149.495 48.6656 149.495C47.8687 149.495 47.2724 149.802 46.8766 150.417C46.4807 151.026 46.2828 151.86 46.2828 152.917C46.2828 153.969 46.4781 154.782 46.8687 155.355C47.2646 155.927 47.8635 156.214 48.6656 156.214ZM56.1894 148.573V157.136H54.8925V148.573H56.1894ZM55.5566 145.37C55.7701 145.37 55.9524 145.44 56.1034 145.581C56.2597 145.717 56.3378 145.93 56.3378 146.222C56.3378 146.508 56.2597 146.722 56.1034 146.862C55.9524 147.003 55.7701 147.073 55.5566 147.073C55.3326 147.073 55.1451 147.003 54.9941 146.862C54.8482 146.722 54.7753 146.508 54.7753 146.222C54.7753 145.93 54.8482 145.717 54.9941 145.581C55.1451 145.44 55.3326 145.37 55.5566 145.37ZM64.1584 154.792C64.1584 155.339 64.0204 155.8 63.7444 156.175C63.4735 156.545 63.0829 156.823 62.5725 157.011C62.0673 157.198 61.4631 157.292 60.76 157.292C60.161 157.292 59.6428 157.245 59.2053 157.151C58.7678 157.058 58.385 156.925 58.0569 156.753V155.558C58.4058 155.73 58.8225 155.886 59.3069 156.026C59.7912 156.167 60.286 156.237 60.7912 156.237C61.5308 156.237 62.0673 156.118 62.4006 155.878C62.734 155.638 62.9006 155.313 62.9006 154.901C62.9006 154.667 62.8329 154.461 62.6975 154.284C62.5673 154.102 62.3459 153.927 62.0334 153.761C61.7209 153.589 61.2886 153.401 60.7366 153.198C60.1897 152.99 59.7157 152.784 59.3147 152.581C58.9188 152.373 58.6116 152.12 58.3928 151.823C58.1793 151.526 58.0725 151.141 58.0725 150.667C58.0725 149.943 58.3642 149.388 58.9475 149.003C59.536 148.612 60.3069 148.417 61.26 148.417C61.7756 148.417 62.2574 148.469 62.7053 148.573C63.1584 148.672 63.5803 148.808 63.9709 148.98L63.5334 150.019C63.1793 149.868 62.8017 149.74 62.4006 149.636C61.9996 149.532 61.5907 149.48 61.1741 149.48C60.5751 149.48 60.1142 149.578 59.7912 149.776C59.4735 149.974 59.3147 150.245 59.3147 150.589C59.3147 150.855 59.3876 151.073 59.5334 151.245C59.6845 151.417 59.9241 151.578 60.2522 151.73C60.5803 151.881 61.0126 152.058 61.5491 152.261C62.0855 152.459 62.5491 152.664 62.9397 152.878C63.3303 153.086 63.6298 153.342 63.8381 153.644C64.0517 153.94 64.1584 154.323 64.1584 154.792ZM69.9478 148.417C71.0155 148.417 71.8671 148.784 72.5025 149.519C73.1379 150.253 73.4556 151.357 73.4556 152.831C73.4556 153.805 73.3098 154.623 73.0181 155.284C72.7265 155.946 72.315 156.446 71.7837 156.784C71.2577 157.123 70.6353 157.292 69.9166 157.292C69.4634 157.292 69.065 157.232 68.7212 157.112C68.3775 156.993 68.0832 156.831 67.8384 156.628C67.5936 156.425 67.3905 156.203 67.2291 155.964H67.1353C67.1509 156.167 67.1692 156.412 67.19 156.698C67.216 156.985 67.2291 157.235 67.2291 157.448V160.964H65.9244V148.573H66.9947L67.1666 149.839H67.2291C67.3957 149.578 67.5988 149.342 67.8384 149.128C68.078 148.909 68.3697 148.737 68.7134 148.612C69.0624 148.482 69.4738 148.417 69.9478 148.417ZM69.7212 149.511C69.1275 149.511 68.6483 149.625 68.2837 149.855C67.9244 150.084 67.6613 150.427 67.4947 150.886C67.328 151.339 67.2395 151.909 67.2291 152.597V152.847C67.2291 153.571 67.3072 154.183 67.4634 154.683C67.6249 155.183 67.8879 155.563 68.2525 155.823C68.6223 156.084 69.1171 156.214 69.7369 156.214C70.2681 156.214 70.7108 156.071 71.065 155.784C71.4192 155.498 71.6822 155.099 71.8541 154.589C72.0311 154.073 72.1197 153.482 72.1197 152.815C72.1197 151.805 71.9218 151.003 71.5259 150.409C71.1353 149.81 70.5337 149.511 69.7212 149.511ZM82.7841 152.839C82.7841 153.542 82.6929 154.17 82.5106 154.722C82.3283 155.274 82.0653 155.74 81.7216 156.12C81.3778 156.5 80.9611 156.792 80.4716 156.995C79.9872 157.193 79.4377 157.292 78.8231 157.292C78.2502 157.292 77.7242 157.193 77.245 156.995C76.771 156.792 76.3596 156.5 76.0106 156.12C75.6669 155.74 75.3986 155.274 75.2059 154.722C75.0184 154.17 74.9247 153.542 74.9247 152.839C74.9247 151.901 75.0835 151.105 75.4012 150.448C75.719 149.787 76.1721 149.284 76.7606 148.94C77.3544 148.592 78.0601 148.417 78.8778 148.417C79.6591 148.417 80.3413 148.592 80.9247 148.94C81.5132 149.289 81.969 149.795 82.2919 150.456C82.62 151.112 82.7841 151.907 82.7841 152.839ZM76.2684 152.839C76.2684 153.526 76.3596 154.123 76.5419 154.628C76.7242 155.133 77.0054 155.524 77.3856 155.8C77.7658 156.076 78.2554 156.214 78.8544 156.214C79.4481 156.214 79.9351 156.076 80.3153 155.8C80.7007 155.524 80.9846 155.133 81.1669 154.628C81.3492 154.123 81.4403 153.526 81.4403 152.839C81.4403 152.157 81.3492 151.568 81.1669 151.073C80.9846 150.573 80.7033 150.188 80.3231 149.917C79.9429 149.646 79.4507 149.511 78.8466 149.511C77.9559 149.511 77.3023 149.805 76.8856 150.394C76.4742 150.982 76.2684 151.797 76.2684 152.839ZM88.7609 148.417C89.7766 148.417 90.5448 148.667 91.0656 149.167C91.5864 149.662 91.8469 150.459 91.8469 151.558V157.136H90.5656V151.644C90.5656 150.93 90.4016 150.396 90.0734 150.042C89.7505 149.688 89.2531 149.511 88.5812 149.511C87.6333 149.511 86.9667 149.779 86.5812 150.315C86.1958 150.852 86.0031 151.631 86.0031 152.651V157.136H84.7062V148.573H85.7531L85.9484 149.808H86.0187C86.201 149.506 86.4328 149.253 86.7141 149.05C86.9953 148.842 87.3104 148.685 87.6594 148.581C88.0083 148.472 88.3755 148.417 88.7609 148.417ZM95.4956 148.573V157.136H94.1987V148.573H95.4956ZM94.8628 145.37C95.0763 145.37 95.2586 145.44 95.4097 145.581C95.5659 145.717 95.6441 145.93 95.6441 146.222C95.6441 146.508 95.5659 146.722 95.4097 146.862C95.2586 147.003 95.0763 147.073 94.8628 147.073C94.6388 147.073 94.4513 147.003 94.3003 146.862C94.1545 146.722 94.0816 146.508 94.0816 146.222C94.0816 145.93 94.1545 145.717 94.3003 145.581C94.4513 145.44 94.6388 145.37 94.8628 145.37ZM99.2225 144.98V148.019C99.2225 148.368 99.2121 148.706 99.1912 149.034C99.1756 149.362 99.1626 149.618 99.1522 149.8H99.2225C99.4569 149.414 99.7954 149.089 100.238 148.823C100.681 148.558 101.246 148.425 101.933 148.425C103.006 148.425 103.861 148.797 104.496 149.542C105.137 150.282 105.457 151.383 105.457 152.847C105.457 153.81 105.311 154.623 105.019 155.284C104.728 155.946 104.316 156.446 103.785 156.784C103.254 157.123 102.626 157.292 101.902 157.292C101.225 157.292 100.668 157.167 100.23 156.917C99.798 156.662 99.4647 156.352 99.2303 155.987H99.1287L98.8631 157.136H97.9256V144.98H99.2225ZM101.722 149.511C101.103 149.511 100.611 149.633 100.246 149.878C99.8814 150.118 99.6183 150.482 99.4569 150.972C99.3006 151.456 99.2225 152.071 99.2225 152.815V152.886C99.2225 153.964 99.4022 154.789 99.7616 155.362C100.121 155.93 100.775 156.214 101.722 156.214C102.519 156.214 103.116 155.922 103.512 155.339C103.913 154.756 104.113 153.922 104.113 152.839C104.113 151.735 103.915 150.904 103.519 150.347C103.129 149.789 102.53 149.511 101.722 149.511ZM108.699 148.573V157.136H107.402V148.573H108.699ZM108.067 145.37C108.28 145.37 108.462 145.44 108.613 145.581C108.77 145.717 108.848 145.93 108.848 146.222C108.848 146.508 108.77 146.722 108.613 146.862C108.462 147.003 108.28 147.073 108.067 147.073C107.843 147.073 107.655 147.003 107.504 146.862C107.358 146.722 107.285 146.508 107.285 146.222C107.285 145.93 107.358 145.717 107.504 145.581C107.655 145.44 107.843 145.37 108.067 145.37ZM112.434 157.136H111.129V144.98H112.434V157.136ZM116.153 148.573V157.136H114.856V148.573H116.153ZM115.52 145.37C115.734 145.37 115.916 145.44 116.067 145.581C116.223 145.717 116.302 145.93 116.302 146.222C116.302 146.508 116.223 146.722 116.067 146.862C115.916 147.003 115.734 147.073 115.52 147.073C115.296 147.073 115.109 147.003 114.958 146.862C114.812 146.722 114.739 146.508 114.739 146.222C114.739 145.93 114.812 145.717 114.958 145.581C115.109 145.44 115.296 145.37 115.52 145.37ZM121.63 157.292C120.547 157.292 119.687 156.922 119.052 156.183C118.422 155.443 118.107 154.344 118.107 152.886C118.107 151.412 118.429 150.3 119.075 149.55C119.721 148.795 120.581 148.417 121.653 148.417C122.107 148.417 122.502 148.477 122.841 148.597C123.179 148.717 123.471 148.878 123.716 149.081C123.961 149.279 124.166 149.506 124.333 149.761H124.427C124.406 149.599 124.385 149.378 124.364 149.097C124.344 148.815 124.333 148.586 124.333 148.409V144.98H125.63V157.136H124.583L124.388 155.917H124.333C124.172 156.172 123.966 156.404 123.716 156.612C123.471 156.821 123.177 156.987 122.833 157.112C122.495 157.232 122.094 157.292 121.63 157.292ZM121.833 156.214C122.75 156.214 123.398 155.953 123.778 155.433C124.159 154.912 124.349 154.138 124.349 153.112V152.878C124.349 151.789 124.166 150.953 123.802 150.37C123.442 149.787 122.786 149.495 121.833 149.495C121.036 149.495 120.44 149.802 120.044 150.417C119.648 151.026 119.45 151.86 119.45 152.917C119.45 153.969 119.646 154.782 120.036 155.355C120.432 155.927 121.031 156.214 121.833 156.214ZM131.263 148.433C132.284 148.433 133.042 148.662 133.537 149.12C134.031 149.578 134.279 150.31 134.279 151.315V157.136H133.333L133.083 155.87H133.021C132.781 156.183 132.531 156.446 132.271 156.659C132.011 156.868 131.708 157.026 131.365 157.136C131.026 157.24 130.609 157.292 130.115 157.292C129.594 157.292 129.13 157.201 128.724 157.019C128.323 156.836 128.005 156.56 127.771 156.19C127.542 155.821 127.427 155.352 127.427 154.784C127.427 153.93 127.766 153.274 128.443 152.815C129.12 152.357 130.151 152.107 131.537 152.065L133.013 152.003V151.48C133.013 150.74 132.854 150.222 132.537 149.925C132.219 149.628 131.771 149.48 131.193 149.48C130.745 149.48 130.318 149.545 129.912 149.675C129.505 149.805 129.12 149.959 128.755 150.136L128.357 149.151C128.742 148.953 129.185 148.784 129.685 148.644C130.185 148.503 130.711 148.433 131.263 148.433ZM132.997 152.917L131.693 152.972C130.625 153.013 129.872 153.188 129.435 153.495C128.997 153.802 128.779 154.237 128.779 154.8C128.779 155.289 128.927 155.651 129.224 155.886C129.521 156.12 129.914 156.237 130.404 156.237C131.164 156.237 131.787 156.026 132.271 155.605C132.755 155.183 132.997 154.55 132.997 153.706V152.917ZM139.677 157.292C138.594 157.292 137.735 156.922 137.099 156.183C136.469 155.443 136.154 154.344 136.154 152.886C136.154 151.412 136.477 150.3 137.123 149.55C137.769 148.795 138.628 148.417 139.701 148.417C140.154 148.417 140.55 148.477 140.888 148.597C141.227 148.717 141.519 148.878 141.763 149.081C142.008 149.279 142.214 149.506 142.381 149.761H142.474C142.454 149.599 142.433 149.378 142.412 149.097C142.391 148.815 142.381 148.586 142.381 148.409V144.98H143.677V157.136H142.631L142.435 155.917H142.381C142.219 156.172 142.013 156.404 141.763 156.612C141.519 156.821 141.224 156.987 140.881 157.112C140.542 157.232 140.141 157.292 139.677 157.292ZM139.881 156.214C140.797 156.214 141.446 155.953 141.826 155.433C142.206 154.912 142.396 154.138 142.396 153.112V152.878C142.396 151.789 142.214 150.953 141.849 150.37C141.49 149.787 140.834 149.495 139.881 149.495C139.084 149.495 138.487 149.802 138.092 150.417C137.696 151.026 137.498 151.86 137.498 152.917C137.498 153.969 137.693 154.782 138.084 155.355C138.48 155.927 139.079 156.214 139.881 156.214ZM149.404 148.417C150.134 148.417 150.759 148.578 151.279 148.901C151.8 149.224 152.199 149.677 152.475 150.261C152.751 150.839 152.889 151.516 152.889 152.292V153.097H146.975C146.99 154.102 147.24 154.868 147.725 155.394C148.209 155.92 148.891 156.183 149.772 156.183C150.313 156.183 150.792 156.133 151.209 156.034C151.626 155.935 152.058 155.789 152.506 155.597V156.737C152.074 156.93 151.644 157.071 151.217 157.159C150.795 157.248 150.295 157.292 149.717 157.292C148.894 157.292 148.175 157.125 147.561 156.792C146.951 156.453 146.477 155.959 146.139 155.308C145.8 154.657 145.631 153.86 145.631 152.917C145.631 151.995 145.785 151.198 146.092 150.526C146.404 149.849 146.842 149.328 147.404 148.964C147.972 148.599 148.639 148.417 149.404 148.417ZM149.389 149.48C148.696 149.48 148.144 149.706 147.732 150.159C147.321 150.612 147.076 151.245 146.998 152.058H151.529C151.524 151.547 151.443 151.099 151.287 150.714C151.136 150.323 150.904 150.021 150.592 149.808C150.279 149.589 149.878 149.48 149.389 149.48ZM162.663 148.417C163.678 148.417 164.447 148.667 164.967 149.167C165.488 149.662 165.749 150.459 165.749 151.558V157.136H164.467V151.644C164.467 150.93 164.303 150.396 163.975 150.042C163.652 149.688 163.155 149.511 162.483 149.511C161.535 149.511 160.869 149.779 160.483 150.315C160.098 150.852 159.905 151.631 159.905 152.651V157.136H158.608V148.573H159.655L159.85 149.808H159.921C160.103 149.506 160.335 149.253 160.616 149.05C160.897 148.842 161.212 148.685 161.561 148.581C161.91 148.472 162.277 148.417 162.663 148.417ZM171.304 148.433C172.325 148.433 173.082 148.662 173.577 149.12C174.072 149.578 174.319 150.31 174.319 151.315V157.136H173.374L173.124 155.87H173.062C172.822 156.183 172.572 156.446 172.312 156.659C172.051 156.868 171.749 157.026 171.405 157.136C171.067 157.24 170.65 157.292 170.155 157.292C169.634 157.292 169.171 157.201 168.765 157.019C168.364 156.836 168.046 156.56 167.812 156.19C167.582 155.821 167.468 155.352 167.468 154.784C167.468 153.93 167.806 153.274 168.483 152.815C169.161 152.357 170.192 152.107 171.577 152.065L173.054 152.003V151.48C173.054 150.74 172.895 150.222 172.577 149.925C172.259 149.628 171.812 149.48 171.233 149.48C170.786 149.48 170.358 149.545 169.952 149.675C169.546 149.805 169.161 149.959 168.796 150.136L168.397 149.151C168.783 148.953 169.226 148.784 169.726 148.644C170.226 148.503 170.752 148.433 171.304 148.433ZM173.038 152.917L171.733 152.972C170.666 153.013 169.913 153.188 169.476 153.495C169.038 153.802 168.819 154.237 168.819 154.8C168.819 155.289 168.968 155.651 169.265 155.886C169.562 156.12 169.955 156.237 170.444 156.237C171.205 156.237 171.827 156.026 172.312 155.605C172.796 155.183 173.038 154.55 173.038 153.706V152.917ZM182.21 154.792C182.21 155.339 182.072 155.8 181.796 156.175C181.525 156.545 181.135 156.823 180.624 157.011C180.119 157.198 179.515 157.292 178.812 157.292C178.213 157.292 177.695 157.245 177.257 157.151C176.82 157.058 176.437 156.925 176.109 156.753V155.558C176.458 155.73 176.874 155.886 177.359 156.026C177.843 156.167 178.338 156.237 178.843 156.237C179.583 156.237 180.119 156.118 180.452 155.878C180.786 155.638 180.952 155.313 180.952 154.901C180.952 154.667 180.885 154.461 180.749 154.284C180.619 154.102 180.398 153.927 180.085 153.761C179.773 153.589 179.341 153.401 178.788 153.198C178.242 152.99 177.768 152.784 177.367 152.581C176.971 152.373 176.663 152.12 176.445 151.823C176.231 151.526 176.124 151.141 176.124 150.667C176.124 149.943 176.416 149.388 176.999 149.003C177.588 148.612 178.359 148.417 179.312 148.417C179.827 148.417 180.309 148.469 180.757 148.573C181.21 148.672 181.632 148.808 182.023 148.98L181.585 150.019C181.231 149.868 180.854 149.74 180.452 149.636C180.051 149.532 179.643 149.48 179.226 149.48C178.627 149.48 178.166 149.578 177.843 149.776C177.525 149.974 177.367 150.245 177.367 150.589C177.367 150.855 177.439 151.073 177.585 151.245C177.736 151.417 177.976 151.578 178.304 151.73C178.632 151.881 179.064 152.058 179.601 152.261C180.137 152.459 180.601 152.664 180.992 152.878C181.382 153.086 181.682 153.342 181.89 153.644C182.104 153.94 182.21 154.323 182.21 154.792ZM191.625 149.589H189.492V157.136H188.195V149.589H186.68V148.964L188.195 148.534V147.964C188.195 147.245 188.302 146.662 188.516 146.214C188.729 145.761 189.039 145.427 189.445 145.214C189.852 145 190.346 144.894 190.93 144.894C191.258 144.894 191.557 144.922 191.828 144.98C192.104 145.037 192.346 145.102 192.555 145.175L192.219 146.198C192.042 146.141 191.841 146.089 191.617 146.042C191.398 145.99 191.174 145.964 190.945 145.964C190.451 145.964 190.083 146.125 189.844 146.448C189.609 146.766 189.492 147.266 189.492 147.948V148.573H191.625V149.589ZM196.086 148.433C197.107 148.433 197.865 148.662 198.36 149.12C198.854 149.578 199.102 150.31 199.102 151.315V157.136H198.157L197.907 155.87H197.844C197.604 156.183 197.354 156.446 197.094 156.659C196.834 156.868 196.532 157.026 196.188 157.136C195.849 157.24 195.433 157.292 194.938 157.292C194.417 157.292 193.953 157.201 193.547 157.019C193.146 156.836 192.828 156.56 192.594 156.19C192.365 155.821 192.25 155.352 192.25 154.784C192.25 153.93 192.589 153.274 193.266 152.815C193.943 152.357 194.974 152.107 196.36 152.065L197.836 152.003V151.48C197.836 150.74 197.677 150.222 197.36 149.925C197.042 149.628 196.594 149.48 196.016 149.48C195.568 149.48 195.141 149.545 194.735 149.675C194.328 149.805 193.943 149.959 193.578 150.136L193.18 149.151C193.565 148.953 194.008 148.784 194.508 148.644C195.008 148.503 195.534 148.433 196.086 148.433ZM197.821 152.917L196.516 152.972C195.448 153.013 194.696 153.188 194.258 153.495C193.821 153.802 193.602 154.237 193.602 154.8C193.602 155.289 193.75 155.651 194.047 155.886C194.344 156.12 194.737 156.237 195.227 156.237C195.987 156.237 196.61 156.026 197.094 155.605C197.578 155.183 197.821 154.55 197.821 153.706V152.917ZM205.344 148.417C205.516 148.417 205.696 148.427 205.883 148.448C206.071 148.464 206.238 148.487 206.383 148.519L206.219 149.722C206.079 149.685 205.923 149.657 205.751 149.636C205.579 149.615 205.417 149.605 205.266 149.605C204.923 149.605 204.597 149.675 204.29 149.815C203.988 149.951 203.722 150.149 203.493 150.409C203.264 150.664 203.084 150.974 202.954 151.339C202.824 151.698 202.758 152.099 202.758 152.542V157.136H201.454V148.573H202.532L202.673 150.151H202.727C202.904 149.834 203.118 149.545 203.368 149.284C203.618 149.019 203.907 148.808 204.235 148.651C204.568 148.495 204.938 148.417 205.344 148.417ZM216.977 148.417C217.92 148.417 218.631 148.664 219.11 149.159C219.589 149.649 219.829 150.438 219.829 151.526V157.136H218.548V151.589C218.548 150.896 218.397 150.378 218.095 150.034C217.798 149.685 217.355 149.511 216.767 149.511C215.938 149.511 215.337 149.75 214.962 150.23C214.587 150.709 214.399 151.414 214.399 152.347V157.136H213.11V151.589C213.11 151.125 213.043 150.74 212.907 150.433C212.777 150.125 212.579 149.896 212.313 149.745C212.053 149.589 211.722 149.511 211.321 149.511C210.754 149.511 210.298 149.628 209.954 149.862C209.61 150.097 209.36 150.446 209.204 150.909C209.053 151.368 208.977 151.933 208.977 152.605V157.136H207.681V148.573H208.727L208.923 149.784H208.993C209.165 149.487 209.381 149.237 209.642 149.034C209.902 148.831 210.194 148.677 210.517 148.573C210.839 148.469 211.183 148.417 211.548 148.417C212.199 148.417 212.743 148.539 213.181 148.784C213.623 149.024 213.944 149.391 214.142 149.886H214.212C214.493 149.391 214.879 149.024 215.368 148.784C215.858 148.539 216.394 148.417 216.977 148.417ZM225.376 148.433C226.397 148.433 227.155 148.662 227.65 149.12C228.144 149.578 228.392 150.31 228.392 151.315V157.136H227.447L227.197 155.87H227.134C226.894 156.183 226.644 156.446 226.384 156.659C226.124 156.868 225.822 157.026 225.478 157.136C225.139 157.24 224.723 157.292 224.228 157.292C223.707 157.292 223.243 157.201 222.837 157.019C222.436 156.836 222.118 156.56 221.884 156.19C221.655 155.821 221.54 155.352 221.54 154.784C221.54 153.93 221.879 153.274 222.556 152.815C223.233 152.357 224.264 152.107 225.65 152.065L227.126 152.003V151.48C227.126 150.74 226.967 150.222 226.65 149.925C226.332 149.628 225.884 149.48 225.306 149.48C224.858 149.48 224.431 149.545 224.025 149.675C223.618 149.805 223.233 149.959 222.868 150.136L222.47 149.151C222.855 148.953 223.298 148.784 223.798 148.644C224.298 148.503 224.824 148.433 225.376 148.433ZM227.111 152.917L225.806 152.972C224.738 153.013 223.986 153.188 223.548 153.495C223.111 153.802 222.892 154.237 222.892 154.8C222.892 155.289 223.04 155.651 223.337 155.886C223.634 156.12 224.027 156.237 224.517 156.237C225.277 156.237 225.9 156.026 226.384 155.605C226.868 155.183 227.111 154.55 227.111 153.706V152.917ZM227.517 144.878V145.034C227.413 145.185 227.269 145.368 227.087 145.581C226.91 145.789 226.712 146.011 226.493 146.245C226.275 146.474 226.053 146.693 225.829 146.901C225.611 147.11 225.407 147.289 225.22 147.44H224.353V147.253C224.519 147.055 224.702 146.818 224.9 146.542C225.098 146.261 225.29 145.974 225.478 145.683C225.665 145.386 225.822 145.118 225.947 144.878H227.517ZM234.173 157.292C233.403 157.292 232.723 157.133 232.134 156.815C231.546 156.498 231.087 156.013 230.759 155.362C230.431 154.711 230.267 153.891 230.267 152.901C230.267 151.865 230.439 151.019 230.783 150.362C231.132 149.701 231.611 149.211 232.22 148.894C232.83 148.576 233.522 148.417 234.298 148.417C234.726 148.417 235.137 148.461 235.533 148.55C235.934 148.633 236.262 148.74 236.517 148.87L236.127 149.956C235.866 149.852 235.564 149.758 235.22 149.675C234.882 149.592 234.564 149.55 234.267 149.55C233.673 149.55 233.179 149.677 232.783 149.933C232.392 150.188 232.098 150.563 231.9 151.058C231.707 151.552 231.611 152.162 231.611 152.886C231.611 153.578 231.705 154.17 231.892 154.659C232.085 155.149 232.369 155.524 232.744 155.784C233.124 156.039 233.598 156.167 234.166 156.167C234.619 156.167 235.028 156.12 235.392 156.026C235.757 155.927 236.087 155.813 236.384 155.683V156.839C236.098 156.985 235.778 157.097 235.423 157.175C235.074 157.253 234.658 157.292 234.173 157.292ZM239.392 148.573V157.136H238.096V148.573H239.392ZM238.76 145.37C238.973 145.37 239.156 145.44 239.307 145.581C239.463 145.717 239.541 145.93 239.541 146.222C239.541 146.508 239.463 146.722 239.307 146.862C239.156 147.003 238.973 147.073 238.76 147.073C238.536 147.073 238.348 147.003 238.197 146.862C238.051 146.722 237.978 146.508 237.978 146.222C237.978 145.93 238.051 145.717 238.197 145.581C238.348 145.44 238.536 145.37 238.76 145.37ZM245.026 148.433C246.046 148.433 246.804 148.662 247.299 149.12C247.794 149.578 248.041 150.31 248.041 151.315V157.136H247.096L246.846 155.87H246.783C246.544 156.183 246.294 156.446 246.033 156.659C245.773 156.868 245.471 157.026 245.127 157.136C244.789 157.24 244.372 157.292 243.877 157.292C243.356 157.292 242.893 157.201 242.487 157.019C242.086 156.836 241.768 156.56 241.533 156.19C241.304 155.821 241.19 155.352 241.19 154.784C241.19 153.93 241.528 153.274 242.205 152.815C242.882 152.357 243.914 152.107 245.299 152.065L246.776 152.003V151.48C246.776 150.74 246.617 150.222 246.299 149.925C245.981 149.628 245.533 149.48 244.955 149.48C244.507 149.48 244.08 149.545 243.674 149.675C243.268 149.805 242.882 149.959 242.518 150.136L242.119 149.151C242.505 148.953 242.947 148.784 243.447 148.644C243.947 148.503 244.474 148.433 245.026 148.433ZM246.76 152.917L245.455 152.972C244.388 153.013 243.635 153.188 243.197 153.495C242.76 153.802 242.541 154.237 242.541 154.8C242.541 155.289 242.69 155.651 242.987 155.886C243.283 156.12 243.677 156.237 244.166 156.237C244.927 156.237 245.549 156.026 246.033 155.605C246.518 155.183 246.76 154.55 246.76 153.706V152.917ZM255.932 154.792C255.932 155.339 255.794 155.8 255.518 156.175C255.247 156.545 254.857 156.823 254.346 157.011C253.841 157.198 253.237 157.292 252.534 157.292C251.935 157.292 251.417 157.245 250.979 157.151C250.542 157.058 250.159 156.925 249.831 156.753V155.558C250.18 155.73 250.596 155.886 251.081 156.026C251.565 156.167 252.06 156.237 252.565 156.237C253.305 156.237 253.841 156.118 254.174 155.878C254.508 155.638 254.674 155.313 254.674 154.901C254.674 154.667 254.607 154.461 254.471 154.284C254.341 154.102 254.12 153.927 253.807 153.761C253.495 153.589 253.062 153.401 252.51 153.198C251.963 152.99 251.489 152.784 251.088 152.581C250.693 152.373 250.385 152.12 250.167 151.823C249.953 151.526 249.846 151.141 249.846 150.667C249.846 149.943 250.138 149.388 250.721 149.003C251.31 148.612 252.081 148.417 253.034 148.417C253.549 148.417 254.031 148.469 254.479 148.573C254.932 148.672 255.354 148.808 255.745 148.98L255.307 150.019C254.953 149.868 254.575 149.74 254.174 149.636C253.773 149.532 253.364 149.48 252.948 149.48C252.349 149.48 251.888 149.578 251.565 149.776C251.247 149.974 251.088 150.245 251.088 150.589C251.088 150.855 251.161 151.073 251.307 151.245C251.458 151.417 251.698 151.578 252.026 151.73C252.354 151.881 252.786 152.058 253.323 152.261C253.859 152.459 254.323 152.664 254.713 152.878C255.104 153.086 255.404 153.342 255.612 153.644C255.825 153.94 255.932 154.323 255.932 154.792ZM265.558 148.417C266.626 148.417 267.477 148.784 268.112 149.519C268.748 150.253 269.066 151.357 269.066 152.831C269.066 153.805 268.92 154.623 268.628 155.284C268.336 155.946 267.925 156.446 267.394 156.784C266.868 157.123 266.245 157.292 265.527 157.292C265.073 157.292 264.675 157.232 264.331 157.112C263.987 156.993 263.693 156.831 263.448 156.628C263.204 156.425 263.001 156.203 262.839 155.964H262.745C262.761 156.167 262.779 156.412 262.8 156.698C262.826 156.985 262.839 157.235 262.839 157.448V160.964H261.534V148.573H262.605L262.777 149.839H262.839C263.006 149.578 263.209 149.342 263.448 149.128C263.688 148.909 263.98 148.737 264.323 148.612C264.672 148.482 265.084 148.417 265.558 148.417ZM265.331 149.511C264.737 149.511 264.258 149.625 263.894 149.855C263.534 150.084 263.271 150.427 263.105 150.886C262.938 151.339 262.849 151.909 262.839 152.597V152.847C262.839 153.571 262.917 154.183 263.073 154.683C263.235 155.183 263.498 155.563 263.862 155.823C264.232 156.084 264.727 156.214 265.347 156.214C265.878 156.214 266.321 156.071 266.675 155.784C267.029 155.498 267.292 155.099 267.464 154.589C267.641 154.073 267.73 153.482 267.73 152.815C267.73 151.805 267.532 151.003 267.136 150.409C266.745 149.81 266.144 149.511 265.331 149.511ZM274.308 148.417C275.037 148.417 275.662 148.578 276.183 148.901C276.704 149.224 277.102 149.677 277.378 150.261C277.654 150.839 277.792 151.516 277.792 152.292V153.097H271.878C271.894 154.102 272.144 154.868 272.628 155.394C273.113 155.92 273.795 156.183 274.675 156.183C275.217 156.183 275.696 156.133 276.113 156.034C276.529 155.935 276.962 155.789 277.41 155.597V156.737C276.977 156.93 276.548 157.071 276.121 157.159C275.699 157.248 275.199 157.292 274.621 157.292C273.798 157.292 273.079 157.125 272.464 156.792C271.855 156.453 271.381 155.959 271.042 155.308C270.704 154.657 270.535 153.86 270.535 152.917C270.535 151.995 270.688 151.198 270.996 150.526C271.308 149.849 271.746 149.328 272.308 148.964C272.876 148.599 273.542 148.417 274.308 148.417ZM274.292 149.48C273.6 149.48 273.048 149.706 272.636 150.159C272.225 150.612 271.98 151.245 271.902 152.058H276.433C276.428 151.547 276.347 151.099 276.191 150.714C276.04 150.323 275.808 150.021 275.496 149.808C275.183 149.589 274.782 149.48 274.292 149.48ZM283.566 148.417C283.738 148.417 283.918 148.427 284.105 148.448C284.293 148.464 284.459 148.487 284.605 148.519L284.441 149.722C284.301 149.685 284.144 149.657 283.972 149.636C283.801 149.615 283.639 149.605 283.488 149.605C283.144 149.605 282.819 149.675 282.512 149.815C282.209 149.951 281.944 150.149 281.715 150.409C281.486 150.664 281.306 150.974 281.176 151.339C281.045 151.698 280.98 152.099 280.98 152.542V157.136H279.676V148.573H280.754L280.894 150.151H280.949C281.126 149.834 281.34 149.545 281.59 149.284C281.84 149.019 282.129 148.808 282.457 148.651C282.79 148.495 283.16 148.417 283.566 148.417ZM288.668 156.23C288.882 156.23 289.1 156.211 289.324 156.175C289.548 156.138 289.731 156.094 289.871 156.042V157.05C289.72 157.118 289.509 157.175 289.238 157.222C288.973 157.269 288.712 157.292 288.457 157.292C288.004 157.292 287.593 157.214 287.223 157.058C286.853 156.896 286.556 156.625 286.332 156.245C286.113 155.865 286.004 155.339 286.004 154.667V149.589H284.785V148.956L286.012 148.448L286.527 146.589H287.309V148.573H289.817V149.589H287.309V154.628C287.309 155.164 287.431 155.565 287.676 155.831C287.926 156.097 288.257 156.23 288.668 156.23ZM298.668 152.839C298.668 153.542 298.577 154.17 298.395 154.722C298.213 155.274 297.95 155.74 297.606 156.12C297.262 156.5 296.846 156.792 296.356 156.995C295.872 157.193 295.322 157.292 294.708 157.292C294.135 157.292 293.609 157.193 293.129 156.995C292.655 156.792 292.244 156.5 291.895 156.12C291.551 155.74 291.283 155.274 291.09 154.722C290.903 154.17 290.809 153.542 290.809 152.839C290.809 151.901 290.968 151.105 291.286 150.448C291.603 149.787 292.056 149.284 292.645 148.94C293.239 148.592 293.944 148.417 294.762 148.417C295.543 148.417 296.226 148.592 296.809 148.94C297.398 149.289 297.853 149.795 298.176 150.456C298.504 151.112 298.668 151.907 298.668 152.839ZM292.153 152.839C292.153 153.526 292.244 154.123 292.426 154.628C292.609 155.133 292.89 155.524 293.27 155.8C293.65 156.076 294.14 156.214 294.739 156.214C295.333 156.214 295.819 156.076 296.2 155.8C296.585 155.524 296.869 155.133 297.051 154.628C297.234 154.123 297.325 153.526 297.325 152.839C297.325 152.157 297.234 151.568 297.051 151.073C296.869 150.573 296.588 150.188 296.208 149.917C295.827 149.646 295.335 149.511 294.731 149.511C293.84 149.511 293.187 149.805 292.77 150.394C292.359 150.982 292.153 151.797 292.153 152.839ZM307.474 157.292C306.39 157.292 305.531 156.922 304.896 156.183C304.265 155.443 303.95 154.344 303.95 152.886C303.95 151.412 304.273 150.3 304.919 149.55C305.565 148.795 306.424 148.417 307.497 148.417C307.95 148.417 308.346 148.477 308.685 148.597C309.023 148.717 309.315 148.878 309.56 149.081C309.804 149.279 310.01 149.506 310.177 149.761H310.271C310.25 149.599 310.229 149.378 310.208 149.097C310.187 148.815 310.177 148.586 310.177 148.409V144.98H311.474V157.136H310.427L310.232 155.917H310.177C310.015 156.172 309.81 156.404 309.56 156.612C309.315 156.821 309.021 156.987 308.677 157.112C308.338 157.232 307.937 157.292 307.474 157.292ZM307.677 156.214C308.594 156.214 309.242 155.953 309.622 155.433C310.002 154.912 310.193 154.138 310.193 153.112V152.878C310.193 151.789 310.01 150.953 309.646 150.37C309.286 149.787 308.63 149.495 307.677 149.495C306.88 149.495 306.284 149.802 305.888 150.417C305.492 151.026 305.294 151.86 305.294 152.917C305.294 153.969 305.489 154.782 305.88 155.355C306.276 155.927 306.875 156.214 307.677 156.214ZM317.201 148.417C317.93 148.417 318.555 148.578 319.076 148.901C319.596 149.224 319.995 149.677 320.271 150.261C320.547 150.839 320.685 151.516 320.685 152.292V153.097H314.771C314.787 154.102 315.037 154.868 315.521 155.394C316.005 155.92 316.688 156.183 317.568 156.183C318.109 156.183 318.589 156.133 319.005 156.034C319.422 155.935 319.854 155.789 320.302 155.597V156.737C319.87 156.93 319.44 157.071 319.013 157.159C318.591 157.248 318.091 157.292 317.513 157.292C316.69 157.292 315.971 157.125 315.357 156.792C314.747 156.453 314.274 155.959 313.935 155.308C313.596 154.657 313.427 153.86 313.427 152.917C313.427 151.995 313.581 151.198 313.888 150.526C314.201 149.849 314.638 149.328 315.201 148.964C315.768 148.599 316.435 148.417 317.201 148.417ZM317.185 149.48C316.492 149.48 315.94 149.706 315.529 150.159C315.117 150.612 314.872 151.245 314.794 152.058H319.326C319.32 151.547 319.24 151.099 319.083 150.714C318.932 150.323 318.701 150.021 318.388 149.808C318.076 149.589 317.675 149.48 317.185 149.48ZM328.287 157.136L325.037 148.573H326.428L328.311 153.753C328.441 154.107 328.574 154.498 328.709 154.925C328.844 155.352 328.938 155.696 328.99 155.956H329.045C329.107 155.696 329.212 155.352 329.357 154.925C329.503 154.493 329.636 154.102 329.756 153.753L331.639 148.573H333.029L329.772 157.136H328.287ZM341.467 152.839C341.467 153.542 341.376 154.17 341.194 154.722C341.011 155.274 340.748 155.74 340.405 156.12C340.061 156.5 339.644 156.792 339.155 156.995C338.67 157.193 338.121 157.292 337.506 157.292C336.933 157.292 336.407 157.193 335.928 156.995C335.454 156.792 335.043 156.5 334.694 156.12C334.35 155.74 334.082 155.274 333.889 154.722C333.702 154.17 333.608 153.542 333.608 152.839C333.608 151.901 333.767 151.105 334.084 150.448C334.402 149.787 334.855 149.284 335.444 148.94C336.037 148.592 336.743 148.417 337.561 148.417C338.342 148.417 339.024 148.592 339.608 148.94C340.196 149.289 340.652 149.795 340.975 150.456C341.303 151.112 341.467 151.907 341.467 152.839ZM334.952 152.839C334.952 153.526 335.043 154.123 335.225 154.628C335.407 155.133 335.689 155.524 336.069 155.8C336.449 156.076 336.939 156.214 337.537 156.214C338.131 156.214 338.618 156.076 338.998 155.8C339.384 155.524 339.668 155.133 339.85 154.628C340.032 154.123 340.123 153.526 340.123 152.839C340.123 152.157 340.032 151.568 339.85 151.073C339.668 150.573 339.386 150.188 339.006 149.917C338.626 149.646 338.134 149.511 337.53 149.511C336.639 149.511 335.985 149.805 335.569 150.394C335.157 150.982 334.952 151.797 334.952 152.839ZM346.819 157.292C346.048 157.292 345.369 157.133 344.78 156.815C344.191 156.498 343.733 156.013 343.405 155.362C343.077 154.711 342.913 153.891 342.913 152.901C342.913 151.865 343.085 151.019 343.428 150.362C343.777 149.701 344.257 149.211 344.866 148.894C345.475 148.576 346.168 148.417 346.944 148.417C347.371 148.417 347.783 148.461 348.178 148.55C348.579 148.633 348.908 148.74 349.163 148.87L348.772 149.956C348.512 149.852 348.21 149.758 347.866 149.675C347.527 149.592 347.21 149.55 346.913 149.55C346.319 149.55 345.824 149.677 345.428 149.933C345.038 150.188 344.744 150.563 344.546 151.058C344.353 151.552 344.257 152.162 344.257 152.886C344.257 153.578 344.35 154.17 344.538 154.659C344.73 155.149 345.014 155.524 345.389 155.784C345.77 156.039 346.244 156.167 346.811 156.167C347.264 156.167 347.673 156.12 348.038 156.026C348.402 155.927 348.733 155.813 349.03 155.683V156.839C348.744 156.985 348.423 157.097 348.069 157.175C347.72 157.253 347.303 157.292 346.819 157.292ZM354.038 148.417C354.767 148.417 355.392 148.578 355.913 148.901C356.434 149.224 356.832 149.677 357.108 150.261C357.385 150.839 357.523 151.516 357.523 152.292V153.097H351.608C351.624 154.102 351.874 154.868 352.358 155.394C352.843 155.92 353.525 156.183 354.405 156.183C354.947 156.183 355.426 156.133 355.843 156.034C356.26 155.935 356.692 155.789 357.14 155.597V156.737C356.707 156.93 356.278 157.071 355.851 157.159C355.429 157.248 354.929 157.292 354.351 157.292C353.528 157.292 352.809 157.125 352.194 156.792C351.585 156.453 351.111 155.959 350.773 155.308C350.434 154.657 350.265 153.86 350.265 152.917C350.265 151.995 350.418 151.198 350.726 150.526C351.038 149.849 351.476 149.328 352.038 148.964C352.606 148.599 353.273 148.417 354.038 148.417ZM354.023 149.48C353.33 149.48 352.778 149.706 352.366 150.159C351.955 150.612 351.71 151.245 351.632 152.058H356.163C356.158 151.547 356.077 151.099 355.921 150.714C355.77 150.323 355.538 150.021 355.226 149.808C354.913 149.589 354.512 149.48 354.023 149.48ZM354.601 144.886C354.731 145.12 354.913 145.386 355.148 145.683C355.382 145.974 355.629 146.261 355.89 146.542C356.15 146.823 356.382 147.065 356.585 147.269V147.44H355.663C355.382 147.258 355.093 147.034 354.796 146.769C354.499 146.503 354.21 146.227 353.929 145.94C353.648 146.227 353.361 146.503 353.069 146.769C352.783 147.029 352.499 147.253 352.218 147.44H351.327V147.269C351.525 147.06 351.749 146.815 351.999 146.534C352.254 146.253 352.496 145.967 352.726 145.675C352.96 145.383 353.145 145.12 353.28 144.886H354.601Z" fill="black"/>
<defs>
<clipPath id="clip0_6_659">
<rect width="97.1272" height="75.1358" fill="white" transform="translate(146.436)"/>
</clipPath>
</defs>
</svg>
