<svg width="48" height="40" viewBox="0 0 48 40" fill="none" xmlns="http://www.w3.org/2000/svg">
<path d="M0 8C0 3.58172 3.58172 0 8 0H40C44.4183 0 48 3.58172 48 8V32C48 36.4183 44.4183 40 40 40H8C3.58172 40 0 36.4183 0 32V8Z" fill="white" fill-opacity="0.5"/>
<path d="M19.2357 23.5732H21.0223V19.7022H26.5012V22.2333L29.9553 18.8089L26.5012 15.3548V17.9156H20.129C19.8759 17.9156 19.6638 18.0012 19.4926 18.1725C19.3213 18.3437 19.2357 18.5558 19.2357 18.8089V23.5732ZM23.9985 32C23.7613 32 23.5285 31.9603 23.3002 31.8809C23.072 31.8015 22.8784 31.6824 22.7196 31.5236L12.4764 21.2804C12.3176 21.1216 12.1985 20.9275 12.1191 20.6982C12.0397 20.4689 12 20.2357 12 19.9985C12 19.7613 12.0397 19.5285 12.1191 19.3002C12.1985 19.072 12.3176 18.8784 12.4764 18.7196L22.7196 8.47643C22.8784 8.31762 23.0725 8.19851 23.3018 8.11911C23.5311 8.0397 23.7643 8 24.0015 8C24.2387 8 24.4715 8.0397 24.6998 8.11911C24.928 8.19851 25.1216 8.31762 25.2804 8.47643L35.5236 18.7196C35.6824 18.8784 35.8015 19.0725 35.8809 19.3018C35.9603 19.5311 36 19.7643 36 20.0015C36 20.2387 35.9603 20.4715 35.8809 20.6998C35.8015 20.928 35.6824 21.1216 35.5236 21.2804L25.2804 31.5236C25.1216 31.6824 24.9275 31.8015 24.6982 31.8809C24.4689 31.9603 24.2357 32 23.9985 32ZM18.8784 25.1216L24 30.2432L34.2432 20L24 9.75682L13.7568 20L18.8784 25.1216Z" fill="black"/>
</svg>
