<svg width="48" height="37" viewBox="0 0 48 37" fill="none" xmlns="http://www.w3.org/2000/svg">
<g clip-path="url(#clip0_17_458)">
<path d="M27.8953 13.9995C27.2506 15.5695 25.271 16.9607 22.3854 17.8716C19.4997 18.7826 15.9407 19.1398 12.4797 18.8658C9.01877 18.5918 5.93472 17.7088 3.89611 16.4081C1.8575 15.1074 1.0286 13.4938 1.58907 11.9171C2.14955 10.3405 4.05424 8.92774 6.89028 7.98518C9.72633 7.04262 13.2652 6.64619 16.7398 6.88181C20.2144 7.11743 23.3448 7.96611 25.4523 9.24391C27.5599 10.5217 28.4749 12.1257 27.9989 13.7081" stroke="#388E3C" stroke-width="1.51181" stroke-miterlimit="0" stroke-linecap="round"/>
<path d="M20.4863 7.37085L9.7562 18.5115" stroke="#388E3C" stroke-width="1.51181" stroke-miterlimit="0" stroke-linejoin="bevel"/>
<path d="M1.41028 12.9456V19.5342C1.41028 19.5342 3.34061 25.9942 14.7914 25.9942C26.2422 25.9942 28.1417 19.5342 28.1417 19.5342V12.9456" stroke="#388E3C" stroke-width="1.51181" stroke-miterlimit="0" stroke-linejoin="bevel"/>
<path d="M14.7914 22.6999V29.2885C14.7914 29.2885 16.7217 35.7485 28.1725 35.7485C39.6233 35.7485 41.5228 29.2885 41.5228 29.2885V22.6999" fill="white"/>
<path d="M14.7914 22.6999V29.2885C14.7914 29.2885 16.7217 35.7485 28.1725 35.7485C39.6233 35.7485 41.5228 29.2885 41.5228 29.2885V22.6999" stroke="#388E3C" stroke-width="1.51181" stroke-miterlimit="0" stroke-linejoin="bevel"/>
<path d="M41.2764 23.7537C40.6318 25.3237 38.6521 26.715 35.7665 27.6259C32.8809 28.5368 29.3218 28.894 25.8609 28.6201C22.3999 28.3461 19.3159 27.4631 17.2772 26.1624C15.2386 24.8617 14.4097 23.2481 14.9702 21.6714C15.5307 20.0947 17.4354 18.682 20.2714 17.7395C23.1075 16.7969 26.6463 16.4005 30.1209 16.6361C33.5955 16.8717 36.7259 17.7204 38.8335 18.9982C40.941 20.276 41.856 21.8799 41.38 23.4623" fill="white"/>
<path d="M41.2764 23.7537C40.6318 25.3237 38.6521 26.715 35.7665 27.6259C32.8809 28.5368 29.3218 28.894 25.8609 28.6201C22.3999 28.3461 19.3159 27.4631 17.2772 26.1624C15.2386 24.8617 14.4097 23.2481 14.9702 21.6714C15.5307 20.0947 17.4354 18.682 20.2714 17.7395C23.1075 16.7969 26.6463 16.4005 30.1209 16.6361C33.5955 16.8717 36.7259 17.7204 38.8335 18.9982C40.941 20.276 41.856 21.8799 41.38 23.4623" stroke="#388E3C" stroke-width="1.51181" stroke-miterlimit="0" stroke-linecap="round"/>
<path d="M22.9515 17.3062L34.0532 28.0848" stroke="#388E3C" stroke-width="1.51181" stroke-miterlimit="0" stroke-linejoin="bevel"/>
<path d="M43.501 7.93012C43.226 9.38946 42.3816 10.6826 41.1508 11.5294C39.9201 12.3761 38.402 12.7081 36.9259 12.4534C35.4497 12.1988 34.1343 11.378 33.2647 10.169C32.3952 8.95996 32.0417 7.46014 32.2807 5.9946C32.5198 4.52908 33.3322 3.21593 34.5418 2.33982C35.7515 1.46371 37.2609 1.09522 38.7429 1.31423C40.2249 1.53324 41.5601 2.3221 42.459 3.50982C43.3579 4.69754 43.7482 6.1884 43.5451 7.65926" stroke="#388E3C" stroke-width="1.51181" stroke-miterlimit="0" stroke-linecap="round" stroke-linejoin="round"/>
<path d="M41.8199 11.1032L46.5904 15.8579" stroke="#388E3C" stroke-width="1.51181" stroke-miterlimit="0" stroke-linecap="round" stroke-linejoin="round"/>
</g>
<defs>
<clipPath id="clip0_17_458">
<rect width="46.6996" height="36.0006" fill="white" transform="translate(0.650177 0.499723)"/>
</clipPath>
</defs>
</svg>
