<svg width="25" height="25" viewBox="0 0 25 25" fill="none" xmlns="http://www.w3.org/2000/svg">
<path d="M19.5 17.75H22.5L18.5 21.75L14.5 17.75H17.5V3.75H19.5V17.75ZM9.5 13.75H7.5C6.4 13.75 5.5 14.65 5.5 15.75V16.75C5.5 17.86 6.4 18.75 7.5 18.75H9.5V19.75H5.5V21.75H9.5C10.61 21.75 11.5 20.86 11.5 19.75V15.75C11.5 14.65 10.61 13.75 9.5 13.75ZM9.5 16.75H7.5V15.75H9.5V16.75ZM9.5 3.75H7.5C6.4 3.75 5.5 4.65 5.5 5.75V9.75C5.5 10.86 6.4 11.75 7.5 11.75H9.5C10.61 11.75 11.5 10.86 11.5 9.75V5.75C11.5 4.65 10.61 3.75 9.5 3.75ZM9.5 9.75H7.5V5.75H9.5V9.75Z" fill="black"/>
</svg>
