<svg width="128" height="128" viewBox="0 0 128 128" fill="none" xmlns="http://www.w3.org/2000/svg">
<g filter="url(#filter0_d_1_463)">
<rect width="120" height="120" rx="8" fill="#EA4335" shape-rendering="crispEdges"/>
<rect x="43.5" y="22.5" width="33" height="33" rx="2" fill="#34A853"/>
<rect x="60" y="24.0714" width="21.1122" height="21.1122" rx="2" transform="rotate(45 60 24.0714)" fill="#FBBC05"/>
<ellipse cx="59.8505" cy="39.2017" rx="8.44487" ry="8.79675" fill="#1358CB"/>
<circle cx="60.2023" cy="38.4981" r="8.79675" fill="#4285F4"/>
<path d="M51.6726 40.9267C54.45 39.3112 61.7578 36.3846 68.7692 37.6021" stroke="#1358CB"/>
<path d="M26.73 78.5H25.3188V66.3643H32.0757V67.6094H26.73V72.0586H31.752V73.2954H26.73V78.5ZM36.7969 69.2529C37.8815 69.2529 38.6867 69.4964 39.2124 69.9834C39.7381 70.4704 40.001 71.2479 40.001 72.3159V78.5H38.9966L38.731 77.1553H38.6646C38.41 77.4873 38.1444 77.7668 37.8677 77.9937C37.591 78.215 37.27 78.3838 36.9048 78.5C36.5451 78.6107 36.1024 78.666 35.5767 78.666C35.0233 78.666 34.5308 78.5692 34.0991 78.3755C33.673 78.1818 33.3354 77.8885 33.0864 77.4956C32.8429 77.1027 32.7212 76.6047 32.7212 76.0015C32.7212 75.0939 33.0809 74.3966 33.8003 73.9097C34.5197 73.4227 35.6154 73.1571 37.0874 73.1128L38.6562 73.0464V72.4902C38.6562 71.7044 38.4875 71.1538 38.1499 70.8384C37.8123 70.5229 37.3364 70.3652 36.7222 70.3652C36.2463 70.3652 35.7925 70.4344 35.3608 70.5728C34.9292 70.7111 34.5197 70.8743 34.1323 71.0625L33.709 70.0166C34.1185 69.8063 34.5889 69.6265 35.1201 69.4771C35.6514 69.3276 36.2103 69.2529 36.7969 69.2529ZM38.6396 74.0176L37.2534 74.0757C36.119 74.12 35.3193 74.3053 34.8545 74.6318C34.3896 74.9583 34.1572 75.4204 34.1572 76.0181C34.1572 76.5382 34.3149 76.9229 34.6304 77.1719C34.9458 77.4209 35.3636 77.5454 35.8838 77.5454C36.6917 77.5454 37.353 77.3213 37.8677 76.873C38.3823 76.4248 38.6396 75.7524 38.6396 74.856V74.0176ZM46.4736 69.2363C46.6562 69.2363 46.8472 69.2474 47.0464 69.2695C47.2456 69.2861 47.4227 69.311 47.5776 69.3442L47.4033 70.6226C47.2539 70.5838 47.0879 70.5534 46.9053 70.5312C46.7227 70.5091 46.5511 70.498 46.3906 70.498C46.0254 70.498 45.6795 70.5728 45.353 70.7222C45.0321 70.866 44.7498 71.0763 44.5063 71.353C44.2629 71.6242 44.0719 71.9535 43.9336 72.3408C43.7952 72.7227 43.7261 73.1488 43.7261 73.6191V78.5H42.3398V69.4023H43.4854L43.6348 71.0791H43.6929C43.881 70.7415 44.1079 70.4344 44.3735 70.1577C44.6392 69.8755 44.9463 69.6514 45.2949 69.4854C45.6491 69.3193 46.042 69.2363 46.4736 69.2363ZM58.6738 69.2363C59.6755 69.2363 60.4308 69.4992 60.9399 70.0249C61.4491 70.5451 61.7036 71.3835 61.7036 72.54V78.5H60.3423V72.6064C60.3423 71.8704 60.1818 71.3198 59.8608 70.9546C59.5454 70.5838 59.075 70.3984 58.4497 70.3984C57.5698 70.3984 56.9307 70.653 56.5322 71.1621C56.1338 71.6712 55.9346 72.4211 55.9346 73.4116V78.5H54.5649V72.6064C54.5649 72.1139 54.493 71.7044 54.3491 71.3779C54.2108 71.0514 54.0005 70.8079 53.7183 70.6475C53.4416 70.4814 53.0902 70.3984 52.6641 70.3984C52.0609 70.3984 51.5767 70.5229 51.2114 70.772C50.8462 71.021 50.5806 71.3918 50.4146 71.8843C50.2541 72.3713 50.1738 72.9717 50.1738 73.6855V78.5H48.7959V69.4023H49.9082L50.1157 70.689H50.1904C50.373 70.3735 50.6027 70.1079 50.8794 69.8921C51.1561 69.6763 51.466 69.513 51.8091 69.4023C52.1522 69.2917 52.5174 69.2363 52.9048 69.2363C53.5965 69.2363 54.1748 69.3664 54.6396 69.6265C55.11 69.881 55.4504 70.2712 55.6606 70.7969H55.7354C56.0342 70.2712 56.4437 69.881 56.9639 69.6265C57.484 69.3664 58.054 69.2363 58.6738 69.2363ZM67.4375 69.2529C68.5221 69.2529 69.3273 69.4964 69.853 69.9834C70.3787 70.4704 70.6416 71.2479 70.6416 72.3159V78.5H69.6372L69.3716 77.1553H69.3052C69.0506 77.4873 68.785 77.7668 68.5083 77.9937C68.2316 78.215 67.9106 78.3838 67.5454 78.5C67.1857 78.6107 66.743 78.666 66.2173 78.666C65.6639 78.666 65.1714 78.5692 64.7397 78.3755C64.3136 78.1818 63.9761 77.8885 63.7271 77.4956C63.4836 77.1027 63.3618 76.6047 63.3618 76.0015C63.3618 75.0939 63.7215 74.3966 64.4409 73.9097C65.1603 73.4227 66.256 73.1571 67.728 73.1128L69.2969 73.0464V72.4902C69.2969 71.7044 69.1281 71.1538 68.7905 70.8384C68.453 70.5229 67.9771 70.3652 67.3628 70.3652C66.8869 70.3652 66.4331 70.4344 66.0015 70.5728C65.5698 70.7111 65.1603 70.8743 64.7729 71.0625L64.3496 70.0166C64.7591 69.8063 65.2295 69.6265 65.7607 69.4771C66.292 69.3276 66.8509 69.2529 67.4375 69.2529ZM69.2803 74.0176L67.894 74.0757C66.7596 74.12 65.96 74.3053 65.4951 74.6318C65.0303 74.9583 64.7979 75.4204 64.7979 76.0181C64.7979 76.5382 64.9556 76.9229 65.271 77.1719C65.5864 77.4209 66.0042 77.5454 66.5244 77.5454C67.3324 77.5454 67.9937 77.3213 68.5083 76.873C69.0229 76.4248 69.2803 75.7524 69.2803 74.856V74.0176ZM76.6245 78.666C75.8055 78.666 75.0833 78.4972 74.458 78.1597C73.8327 77.8221 73.3457 77.3075 72.9971 76.6157C72.6484 75.924 72.4741 75.0524 72.4741 74.001C72.4741 72.8997 72.6567 72.0005 73.022 71.3032C73.3927 70.6004 73.9019 70.0802 74.5493 69.7427C75.1968 69.4051 75.9328 69.2363 76.7573 69.2363C77.2111 69.2363 77.6483 69.2834 78.0688 69.3774C78.495 69.466 78.8436 69.5794 79.1147 69.7178L78.6997 70.8716C78.423 70.7609 78.1021 70.6613 77.7368 70.5728C77.3771 70.4842 77.0396 70.4399 76.7241 70.4399C76.0933 70.4399 75.5675 70.5755 75.147 70.8467C74.7319 71.1178 74.4193 71.5163 74.209 72.042C74.0042 72.5677 73.9019 73.2152 73.9019 73.9844C73.9019 74.7204 74.0015 75.3485 74.2007 75.8687C74.4054 76.3888 74.707 76.7873 75.1055 77.064C75.5094 77.3351 76.013 77.4707 76.6162 77.4707C77.0977 77.4707 77.5321 77.4209 77.9194 77.3213C78.3068 77.2161 78.6582 77.0944 78.9736 76.9561V78.1846C78.6693 78.3395 78.3289 78.4585 77.9526 78.5415C77.5819 78.6245 77.1392 78.666 76.6245 78.666ZM82.0098 69.4023V78.5H80.6318V69.4023H82.0098ZM81.3374 65.999C81.5643 65.999 81.758 66.0737 81.9185 66.2231C82.0845 66.367 82.1675 66.5939 82.1675 66.9038C82.1675 67.2082 82.0845 67.4351 81.9185 67.5845C81.758 67.7339 81.5643 67.8086 81.3374 67.8086C81.0994 67.8086 80.9002 67.7339 80.7397 67.5845C80.5848 67.4351 80.5073 67.2082 80.5073 66.9038C80.5073 66.5939 80.5848 66.367 80.7397 66.2231C80.9002 66.0737 81.0994 65.999 81.3374 65.999ZM87.835 69.2529C88.9196 69.2529 89.7248 69.4964 90.2505 69.9834C90.7762 70.4704 91.0391 71.2479 91.0391 72.3159V78.5H90.0347L89.769 77.1553H89.7026C89.4481 77.4873 89.1825 77.7668 88.9058 77.9937C88.6291 78.215 88.3081 78.3838 87.9429 78.5C87.5832 78.6107 87.1405 78.666 86.6147 78.666C86.0614 78.666 85.5688 78.5692 85.1372 78.3755C84.7111 78.1818 84.3735 77.8885 84.1245 77.4956C83.881 77.1027 83.7593 76.6047 83.7593 76.0015C83.7593 75.0939 84.119 74.3966 84.8384 73.9097C85.5578 73.4227 86.6535 73.1571 88.1255 73.1128L89.6943 73.0464V72.4902C89.6943 71.7044 89.5256 71.1538 89.188 70.8384C88.8504 70.5229 88.3745 70.3652 87.7603 70.3652C87.2843 70.3652 86.8306 70.4344 86.3989 70.5728C85.9673 70.7111 85.5578 70.8743 85.1704 71.0625L84.7471 70.0166C85.1566 69.8063 85.627 69.6265 86.1582 69.4771C86.6895 69.3276 87.2484 69.2529 87.835 69.2529ZM89.6777 74.0176L88.2915 74.0757C87.1571 74.12 86.3574 74.3053 85.8926 74.6318C85.4277 74.9583 85.1953 75.4204 85.1953 76.0181C85.1953 76.5382 85.353 76.9229 85.6685 77.1719C85.9839 77.4209 86.4017 77.5454 86.9219 77.5454C87.7298 77.5454 88.3911 77.3213 88.9058 76.873C89.4204 76.4248 89.6777 75.7524 89.6777 74.856V74.0176ZM35.3359 83.3643C36.902 83.3643 38.0448 83.6714 38.7642 84.2856C39.4891 84.8944 39.8516 85.7687 39.8516 86.9087C39.8516 87.4233 39.7658 87.9131 39.5942 88.3779C39.4282 88.8372 39.1571 89.244 38.7808 89.5981C38.4045 89.9468 37.9092 90.2235 37.2949 90.4282C36.6862 90.6274 35.9391 90.7271 35.0537 90.7271H33.5762V95.5H32.165V83.3643H35.3359ZM35.2031 84.5679H33.5762V89.5151H34.896C35.6707 89.5151 36.3154 89.4321 36.8301 89.2661C37.3503 89.1001 37.7404 88.8317 38.0005 88.4609C38.2606 88.0846 38.3906 87.5866 38.3906 86.9668C38.3906 86.1589 38.1333 85.5584 37.6187 85.1655C37.104 84.7671 36.2988 84.5679 35.2031 84.5679ZM49.5283 90.9346C49.5283 91.6816 49.4315 92.3485 49.2378 92.9351C49.0441 93.5216 48.7646 94.0169 48.3994 94.4209C48.0342 94.8249 47.5915 95.1348 47.0713 95.3506C46.5566 95.5609 45.9728 95.666 45.3198 95.666C44.7111 95.666 44.1522 95.5609 43.6431 95.3506C43.1395 95.1348 42.7023 94.8249 42.3315 94.4209C41.9663 94.0169 41.6813 93.5216 41.4766 92.9351C41.2773 92.3485 41.1777 91.6816 41.1777 90.9346C41.1777 89.9385 41.3465 89.0918 41.6841 88.3945C42.0216 87.6917 42.5031 87.1577 43.1284 86.7925C43.7593 86.4217 44.5091 86.2363 45.3779 86.2363C46.208 86.2363 46.9329 86.4217 47.5527 86.7925C48.1781 87.1632 48.6623 87.7 49.0054 88.4028C49.354 89.1001 49.5283 89.944 49.5283 90.9346ZM42.6055 90.9346C42.6055 91.665 42.7023 92.2987 42.896 92.8354C43.0897 93.3722 43.3885 93.7873 43.7925 94.0806C44.1965 94.3739 44.7166 94.5205 45.353 94.5205C45.9839 94.5205 46.5013 94.3739 46.9053 94.0806C47.3148 93.7873 47.6164 93.3722 47.8101 92.8354C48.0037 92.2987 48.1006 91.665 48.1006 90.9346C48.1006 90.2096 48.0037 89.5843 47.8101 89.0586C47.6164 88.5273 47.3175 88.1178 46.9136 87.8301C46.5096 87.5423 45.9867 87.3984 45.3447 87.3984C44.3984 87.3984 43.7039 87.7111 43.2612 88.3364C42.8241 88.9618 42.6055 89.8278 42.6055 90.9346ZM55.6855 86.2363C56.82 86.2363 57.7248 86.6265 58.3999 87.4067C59.075 88.187 59.4126 89.3602 59.4126 90.9263C59.4126 91.9611 59.2576 92.8299 58.9478 93.5327C58.6379 94.2355 58.2007 94.7668 57.6362 95.1265C57.0773 95.4862 56.416 95.666 55.6523 95.666C55.1709 95.666 54.7476 95.6024 54.3823 95.4751C54.0171 95.3478 53.7044 95.1763 53.4443 94.9604C53.1842 94.7446 52.9684 94.5094 52.7969 94.2549H52.6973C52.7139 94.4707 52.7332 94.7308 52.7554 95.0352C52.783 95.3395 52.7969 95.6051 52.7969 95.832V99.5674H51.4106V86.4023H52.5479L52.7305 87.7471H52.7969C52.974 87.4704 53.1898 87.2186 53.4443 86.9917C53.6989 86.7593 54.0088 86.5767 54.374 86.4438C54.7448 86.3055 55.182 86.2363 55.6855 86.2363ZM55.4448 87.3984C54.814 87.3984 54.3049 87.5202 53.9175 87.7637C53.5356 88.0072 53.2562 88.3724 53.0791 88.8594C52.902 89.3408 52.8079 89.9468 52.7969 90.6772V90.9429C52.7969 91.7121 52.8799 92.3623 53.0459 92.8936C53.2174 93.4248 53.4969 93.8288 53.8843 94.1055C54.2772 94.3822 54.8029 94.5205 55.4614 94.5205C56.0259 94.5205 56.4963 94.3683 56.8726 94.064C57.2489 93.7596 57.5283 93.3363 57.7109 92.7939C57.8991 92.2461 57.9932 91.618 57.9932 90.9097C57.9932 89.8361 57.7829 88.9839 57.3623 88.353C56.9473 87.7166 56.3081 87.3984 55.4448 87.3984ZM68.832 86.4023V95.5H67.7031L67.5039 94.2217H67.4292C67.241 94.5371 66.9976 94.8027 66.6987 95.0186C66.3999 95.2344 66.0623 95.3949 65.686 95.5C65.3153 95.6107 64.9196 95.666 64.499 95.666C63.7796 95.666 63.1764 95.5498 62.6895 95.3174C62.2025 95.085 61.8345 94.7253 61.5854 94.2383C61.342 93.7513 61.2202 93.126 61.2202 92.3623V86.4023H62.6147V92.2627C62.6147 93.0208 62.7863 93.5881 63.1294 93.9644C63.4725 94.3351 63.9954 94.5205 64.6982 94.5205C65.3734 94.5205 65.9102 94.3932 66.3086 94.1387C66.7126 93.8841 67.0031 93.5106 67.1802 93.0181C67.3573 92.52 67.4458 91.9113 67.4458 91.1919V86.4023H68.832ZM72.6318 95.5H71.2456V82.584H72.6318V95.5ZM78.4487 86.2529C79.5334 86.2529 80.3385 86.4964 80.8643 86.9834C81.39 87.4704 81.6528 88.2479 81.6528 89.3159V95.5H80.6484L80.3828 94.1553H80.3164C80.0618 94.4873 79.7962 94.7668 79.5195 94.9937C79.2428 95.215 78.9219 95.3838 78.5566 95.5C78.1969 95.6107 77.7542 95.666 77.2285 95.666C76.6751 95.666 76.1826 95.5692 75.751 95.3755C75.3249 95.1818 74.9873 94.8885 74.7383 94.4956C74.4948 94.1027 74.373 93.6047 74.373 93.0015C74.373 92.0939 74.7327 91.3966 75.4521 90.9097C76.1715 90.4227 77.2673 90.1571 78.7393 90.1128L80.3081 90.0464V89.4902C80.3081 88.7044 80.1393 88.1538 79.8018 87.8384C79.4642 87.5229 78.9883 87.3652 78.374 87.3652C77.8981 87.3652 77.4443 87.4344 77.0127 87.5728C76.5811 87.7111 76.1715 87.8743 75.7842 88.0625L75.3608 87.0166C75.7703 86.8063 76.2407 86.6265 76.772 86.4771C77.3032 86.3276 77.8621 86.2529 78.4487 86.2529ZM80.2915 91.0176L78.9053 91.0757C77.7708 91.12 76.9712 91.3053 76.5063 91.6318C76.0415 91.9583 75.8091 92.4204 75.8091 93.0181C75.8091 93.5382 75.9668 93.9229 76.2822 94.1719C76.5977 94.4209 77.0155 94.5454 77.5356 94.5454C78.3436 94.5454 79.0049 94.3213 79.5195 93.873C80.0342 93.4248 80.2915 92.7524 80.2915 91.856V91.0176ZM88.1255 86.2363C88.3081 86.2363 88.499 86.2474 88.6982 86.2695C88.8975 86.2861 89.0745 86.311 89.2295 86.3442L89.0552 87.6226C88.9058 87.5838 88.7397 87.5534 88.5571 87.5312C88.3745 87.5091 88.203 87.498 88.0425 87.498C87.6772 87.498 87.3314 87.5728 87.0049 87.7222C86.6839 87.866 86.4017 88.0763 86.1582 88.353C85.9147 88.6242 85.7238 88.9535 85.5854 89.3408C85.4471 89.7227 85.3779 90.1488 85.3779 90.6191V95.5H83.9917V86.4023H85.1372L85.2866 88.0791H85.3447C85.5329 87.7415 85.7598 87.4344 86.0254 87.1577C86.291 86.8755 86.5981 86.6514 86.9468 86.4854C87.3009 86.3193 87.6938 86.2363 88.1255 86.2363Z" fill="black"/>
</g>
<defs>
<filter id="filter0_d_1_463" x="0" y="0" width="128" height="128" filterUnits="userSpaceOnUse" color-interpolation-filters="sRGB">
<feFlood flood-opacity="0" result="BackgroundImageFix"/>
<feColorMatrix in="SourceAlpha" type="matrix" values="0 0 0 0 0 0 0 0 0 0 0 0 0 0 0 0 0 0 127 0" result="hardAlpha"/>
<feOffset dx="4" dy="4"/>
<feGaussianBlur stdDeviation="2"/>
<feComposite in2="hardAlpha" operator="out"/>
<feColorMatrix type="matrix" values="0 0 0 0 0 0 0 0 0 0 0 0 0 0 0 0 0 0 0.25 0"/>
<feBlend mode="normal" in2="BackgroundImageFix" result="effect1_dropShadow_1_463"/>
<feBlend mode="normal" in="SourceGraphic" in2="effect1_dropShadow_1_463" result="shape"/>
</filter>
</defs>
</svg>
