<svg width="128" height="128" viewBox="0 0 128 128" fill="none" xmlns="http://www.w3.org/2000/svg">
<g filter="url(#filter0_d_1_452)">
<rect width="120" height="120" rx="8" fill="white" shape-rendering="crispEdges"/>
<g clip-path="url(#clip0_1_452)">
<path d="M72.0707 30.2559H47.9293C47.3833 30.2559 46.9408 30.698 46.9408 31.2435V63.7565C46.9408 64.3019 47.3833 64.7441 47.9293 64.7441H72.0707C72.6167 64.7441 73.0592 64.3019 73.0592 63.7565V31.2435C73.0592 30.698 72.6167 30.2559 72.0707 30.2559Z" stroke="#388E3C" stroke-width="1.51181"/>
<path d="M60 36.0987V43.9265" stroke="#388E3C" stroke-width="1.88976" stroke-miterlimit="0" stroke-linecap="round"/>
<path d="M55.9611 40.0126H64.0389" stroke="#388E3C" stroke-width="1.88976" stroke-miterlimit="0" stroke-linecap="round"/>
<path d="M51.8693 57.6452H68.1307" stroke="#388E3C" stroke-width="1.13386" stroke-miterlimit="0" stroke-linecap="round"/>
<path d="M51.8693 53.8786H68.1307" stroke="#388E3C" stroke-width="1.13386" stroke-miterlimit="0" stroke-linecap="round"/>
<path d="M51.8693 50.1119H68.1307" stroke="#388E3C" stroke-width="1.13386" stroke-miterlimit="0" stroke-linecap="round"/>
</g>
<path d="M44.8291 76.3639H48.2656C49.7819 76.3639 50.9219 76.5908 51.6855 77.0446C52.4492 77.4983 52.8311 78.2703 52.8311 79.3605C52.8311 79.8309 52.7397 80.2542 52.5571 80.6305C52.38 81.0013 52.12 81.3084 51.7769 81.5519C51.4338 81.7954 51.0104 81.9642 50.5068 82.0582V82.1412C51.0381 82.2242 51.5085 82.3764 51.918 82.5978C52.3275 82.8191 52.6484 83.129 52.8809 83.5275C53.1133 83.9259 53.2295 84.4323 53.2295 85.0465C53.2295 85.7936 53.0552 86.4244 52.7065 86.9391C52.3634 87.4537 51.8765 87.8439 51.2456 88.1095C50.6147 88.3696 49.8677 88.4996 49.0044 88.4996H44.8291V76.3639ZM46.2402 81.5685H48.5645C49.6214 81.5685 50.3519 81.3942 50.7559 81.0455C51.1654 80.6969 51.3701 80.1878 51.3701 79.5182C51.3701 78.8265 51.1266 78.3284 50.6396 78.024C50.1582 77.7197 49.389 77.5675 48.332 77.5675H46.2402V81.5685ZM46.2402 82.7555V87.296H48.7637C49.8428 87.296 50.6064 87.0857 51.0547 86.6652C51.5029 86.2391 51.7271 85.6663 51.7271 84.9469C51.7271 84.4876 51.6247 84.0947 51.4199 83.7682C51.2207 83.4417 50.8942 83.1927 50.4404 83.0211C49.9922 82.844 49.3918 82.7555 48.6392 82.7555H46.2402ZM62.624 79.402V88.4996H61.4951L61.2959 87.2213H61.2212C61.033 87.5367 60.7896 87.8024 60.4907 88.0182C60.1919 88.234 59.8543 88.3945 59.478 88.4996C59.1073 88.6103 58.7116 88.6656 58.291 88.6656C57.5716 88.6656 56.9684 88.5494 56.4814 88.317C55.9945 88.0846 55.6265 87.7249 55.3774 87.2379C55.134 86.7509 55.0122 86.1256 55.0122 85.3619V79.402H56.4067V85.2623C56.4067 86.0205 56.5783 86.5877 56.9214 86.964C57.2645 87.3348 57.7874 87.5201 58.4902 87.5201C59.1654 87.5201 59.7021 87.3929 60.1006 87.1383C60.5046 86.8837 60.7951 86.5102 60.9722 86.0177C61.1493 85.5197 61.2378 84.9109 61.2378 84.1915V79.402H62.624ZM66.4238 88.4996H65.0376V75.5836H66.4238V88.4996ZM72.2407 79.2526C73.3254 79.2526 74.1305 79.4961 74.6562 79.983C75.182 80.47 75.4448 81.2475 75.4448 82.3156V88.4996H74.4404L74.1748 87.1549H74.1084C73.8538 87.4869 73.5882 87.7664 73.3115 87.9933C73.0348 88.2146 72.7139 88.3834 72.3486 88.4996C71.9889 88.6103 71.5462 88.6656 71.0205 88.6656C70.4671 88.6656 69.9746 88.5688 69.543 88.3751C69.1169 88.1814 68.7793 87.8881 68.5303 87.4952C68.2868 87.1023 68.165 86.6043 68.165 86.0011C68.165 85.0935 68.5247 84.3963 69.2441 83.9093C69.9635 83.4223 71.0592 83.1567 72.5312 83.1124L74.1001 83.046V82.4899C74.1001 81.7041 73.9313 81.1534 73.5938 80.838C73.2562 80.5226 72.7803 80.3649 72.166 80.3649C71.6901 80.3649 71.2363 80.434 70.8047 80.5724C70.373 80.7107 69.9635 80.874 69.5762 81.0621L69.1528 80.0162C69.5623 79.8059 70.0327 79.6261 70.564 79.4767C71.0952 79.3273 71.6541 79.2526 72.2407 79.2526ZM74.0835 84.0172L72.6973 84.0753C71.5628 84.1196 70.7632 84.305 70.2983 84.6315C69.8335 84.958 69.6011 85.42 69.6011 86.0177C69.6011 86.5379 69.7588 86.9225 70.0742 87.1715C70.3896 87.4205 70.8075 87.545 71.3276 87.545C72.1356 87.545 72.7969 87.3209 73.3115 86.8727C73.8262 86.4244 74.0835 85.7521 74.0835 84.8556V84.0172Z" fill="#388E3C"/>
<rect x="0.5" y="0.5" width="119" height="119" rx="7.5" stroke="#388E3C" stroke-opacity="0.45" shape-rendering="crispEdges"/>
</g>
<defs>
<filter id="filter0_d_1_452" x="0" y="0" width="128" height="128" filterUnits="userSpaceOnUse" color-interpolation-filters="sRGB">
<feFlood flood-opacity="0" result="BackgroundImageFix"/>
<feColorMatrix in="SourceAlpha" type="matrix" values="0 0 0 0 0 0 0 0 0 0 0 0 0 0 0 0 0 0 127 0" result="hardAlpha"/>
<feOffset dx="4" dy="4"/>
<feGaussianBlur stdDeviation="2"/>
<feComposite in2="hardAlpha" operator="out"/>
<feColorMatrix type="matrix" values="0 0 0 0 0 0 0 0 0 0 0 0 0 0 0 0 0 0 0.25 0"/>
<feBlend mode="normal" in2="BackgroundImageFix" result="effect1_dropShadow_1_452"/>
<feBlend mode="normal" in="SourceGraphic" in2="effect1_dropShadow_1_452" result="shape"/>
</filter>
<clipPath id="clip0_1_452">
<rect width="27.631" height="35.9993" fill="white" transform="translate(46.1845 29.5004)"/>
</clipPath>
</defs>
</svg>
