<svg width="128" height="128" viewBox="0 0 128 128" fill="none" xmlns="http://www.w3.org/2000/svg">
<g filter="url(#filter0_d_1_447)">
<rect width="120" height="120" rx="8" fill="white" shape-rendering="crispEdges"/>
<path d="M51 58C51 58.7957 51.3161 59.5587 51.8787 60.1213C52.4413 60.6839 53.2044 61 54 61H66C66.7956 61 67.5587 60.6839 68.1213 60.1213C68.6839 59.5587 69 58.7957 69 58V40H51V58ZM54 43H66V58H54V43ZM65.25 35.5L63.75 34H56.25L54.75 35.5H49.5V38.5H70.5V35.5H65.25Z" fill="#388E3C"/>
<path d="M34.7983 82.3159C34.7983 83.6828 34.5493 84.8255 34.0513 85.7441C33.5532 86.6572 32.8311 87.3462 31.8848 87.811C30.944 88.2703 29.8013 88.5 28.4565 88.5H25.1611V76.3643H28.8218C30.0558 76.3643 31.1183 76.5911 32.0093 77.0449C32.9002 77.4932 33.5864 78.16 34.0679 79.0454C34.5549 79.9253 34.7983 81.0155 34.7983 82.3159ZM33.3125 82.3657C33.3125 81.2756 33.1299 80.3763 32.7646 79.668C32.4049 78.9596 31.8737 78.4339 31.1709 78.0908C30.4736 77.7422 29.6187 77.5679 28.606 77.5679H26.5723V87.2881H28.2905C29.9618 87.2881 31.2152 86.8758 32.0508 86.0513C32.8919 85.2267 33.3125 83.9982 33.3125 82.3657ZM40.2915 79.2363C41.0662 79.2363 41.7303 79.4079 42.2837 79.751C42.8371 80.0941 43.2604 80.5755 43.5537 81.1953C43.847 81.8096 43.9937 82.529 43.9937 83.3535V84.2085H37.71C37.7266 85.2765 37.9922 86.09 38.5068 86.6489C39.0215 87.2078 39.7464 87.4873 40.6816 87.4873C41.2572 87.4873 41.7663 87.4347 42.209 87.3296C42.6517 87.2244 43.111 87.0695 43.5869 86.8647V88.0767C43.1276 88.2814 42.6711 88.4308 42.2173 88.5249C41.769 88.619 41.2378 88.666 40.6235 88.666C39.7492 88.666 38.9855 88.4889 38.3325 88.1348C37.6851 87.7751 37.1815 87.2493 36.8218 86.5576C36.4621 85.8659 36.2822 85.0192 36.2822 84.0176C36.2822 83.0381 36.4455 82.1914 36.772 81.4775C37.104 80.7581 37.5688 80.2048 38.1665 79.8174C38.7697 79.43 39.478 79.2363 40.2915 79.2363ZM40.2749 80.3652C39.5389 80.3652 38.9523 80.606 38.5151 81.0874C38.078 81.5688 37.8179 82.2412 37.7349 83.1045H42.5493C42.5438 82.5622 42.458 82.0863 42.292 81.6768C42.1315 81.2617 41.8853 80.9408 41.5532 80.7139C41.2212 80.4814 40.7951 80.3652 40.2749 80.3652ZM51.7197 86.0098C51.7197 86.5908 51.5731 87.0806 51.2798 87.479C50.992 87.8719 50.577 88.168 50.0347 88.3672C49.4979 88.5664 48.856 88.666 48.1089 88.666C47.4725 88.666 46.9219 88.6162 46.457 88.5166C45.9922 88.417 45.5854 88.2759 45.2368 88.0933V86.8232C45.6076 87.0059 46.0503 87.1719 46.5649 87.3213C47.0796 87.4707 47.6053 87.5454 48.1421 87.5454C48.9279 87.5454 49.4979 87.4181 49.8521 87.1636C50.2062 86.909 50.3833 86.5632 50.3833 86.126C50.3833 85.877 50.3114 85.6584 50.1675 85.4702C50.0291 85.2765 49.7939 85.0911 49.4619 84.9141C49.1299 84.7314 48.6706 84.5322 48.084 84.3164C47.5029 84.0951 46.9993 83.8765 46.5732 83.6606C46.1527 83.4393 45.8262 83.1709 45.5938 82.8555C45.3669 82.54 45.2534 82.1305 45.2534 81.627C45.2534 80.8577 45.5633 80.2684 46.1831 79.8589C46.8084 79.4438 47.6274 79.2363 48.6401 79.2363C49.188 79.2363 49.6999 79.2917 50.1758 79.4023C50.6572 79.5075 51.1055 79.6514 51.5205 79.834L51.0557 80.938C50.6794 80.7775 50.2782 80.6419 49.8521 80.5312C49.4259 80.4206 48.9915 80.3652 48.5488 80.3652C47.9124 80.3652 47.4227 80.4704 47.0796 80.6807C46.742 80.891 46.5732 81.1787 46.5732 81.5439C46.5732 81.8262 46.6507 82.0586 46.8057 82.2412C46.9661 82.4238 47.2207 82.5954 47.5693 82.7559C47.918 82.9163 48.3773 83.1045 48.9473 83.3203C49.5173 83.5306 50.0098 83.7492 50.4248 83.9761C50.8398 84.1974 51.158 84.4686 51.3794 84.7896C51.6063 85.105 51.7197 85.5117 51.7197 86.0098ZM57.0801 88.666C56.2611 88.666 55.5389 88.4972 54.9136 88.1597C54.2882 87.8221 53.8013 87.3075 53.4526 86.6157C53.104 85.924 52.9297 85.0524 52.9297 84.001C52.9297 82.8997 53.1123 82.0005 53.4775 81.3032C53.8483 80.6004 54.3574 80.0802 55.0049 79.7427C55.6523 79.4051 56.3883 79.2363 57.2129 79.2363C57.6667 79.2363 58.1038 79.2834 58.5244 79.3774C58.9505 79.466 59.2992 79.5794 59.5703 79.7178L59.1553 80.8716C58.8786 80.7609 58.5576 80.6613 58.1924 80.5728C57.8327 80.4842 57.4951 80.4399 57.1797 80.4399C56.5488 80.4399 56.0231 80.5755 55.6025 80.8467C55.1875 81.1178 54.8748 81.5163 54.6646 82.042C54.4598 82.5677 54.3574 83.2152 54.3574 83.9844C54.3574 84.7204 54.457 85.3485 54.6562 85.8687C54.861 86.3888 55.1626 86.7873 55.561 87.064C55.965 87.3351 56.4686 87.4707 57.0718 87.4707C57.5532 87.4707 57.9876 87.4209 58.375 87.3213C58.7624 87.2161 59.1138 87.0944 59.4292 86.9561V88.1846C59.1248 88.3395 58.7845 88.4585 58.4082 88.5415C58.0374 88.6245 57.5947 88.666 57.0801 88.666ZM64.4907 79.2529C65.5754 79.2529 66.3805 79.4964 66.9062 79.9834C67.432 80.4704 67.6948 81.2479 67.6948 82.3159V88.5H66.6904L66.4248 87.1553H66.3584C66.1038 87.4873 65.8382 87.7668 65.5615 87.9937C65.2848 88.215 64.9639 88.3838 64.5986 88.5C64.2389 88.6107 63.7962 88.666 63.2705 88.666C62.7171 88.666 62.2246 88.5692 61.793 88.3755C61.3669 88.1818 61.0293 87.8885 60.7803 87.4956C60.5368 87.1027 60.415 86.6047 60.415 86.0015C60.415 85.0939 60.7747 84.3966 61.4941 83.9097C62.2135 83.4227 63.3092 83.1571 64.7812 83.1128L66.3501 83.0464V82.4902C66.3501 81.7044 66.1813 81.1538 65.8438 80.8384C65.5062 80.5229 65.0303 80.3652 64.416 80.3652C63.9401 80.3652 63.4863 80.4344 63.0547 80.5728C62.623 80.7111 62.2135 80.8743 61.8262 81.0625L61.4028 80.0166C61.8123 79.8063 62.2827 79.6265 62.814 79.4771C63.3452 79.3276 63.9041 79.2529 64.4907 79.2529ZM66.3335 84.0176L64.9473 84.0757C63.8128 84.12 63.0132 84.3053 62.5483 84.6318C62.0835 84.9583 61.8511 85.4204 61.8511 86.0181C61.8511 86.5382 62.0088 86.9229 62.3242 87.1719C62.6396 87.4209 63.0575 87.5454 63.5776 87.5454C64.3856 87.5454 65.0469 87.3213 65.5615 86.873C66.0762 86.4248 66.3335 85.7524 66.3335 84.856V84.0176ZM74.1675 79.2363C74.3501 79.2363 74.541 79.2474 74.7402 79.2695C74.9395 79.2861 75.1165 79.311 75.2715 79.3442L75.0972 80.6226C74.9478 80.5838 74.7817 80.5534 74.5991 80.5312C74.4165 80.5091 74.245 80.498 74.0845 80.498C73.7192 80.498 73.3734 80.5728 73.0469 80.7222C72.7259 80.866 72.4437 81.0763 72.2002 81.353C71.9567 81.6242 71.7658 81.9535 71.6274 82.3408C71.4891 82.7227 71.4199 83.1488 71.4199 83.6191V88.5H70.0337V79.4023H71.1792L71.3286 81.0791H71.3867C71.5749 80.7415 71.8018 80.4344 72.0674 80.1577C72.333 79.8755 72.6401 79.6514 72.9888 79.4854C73.3429 79.3193 73.7358 79.2363 74.1675 79.2363ZM79.4282 87.5371C79.6551 87.5371 79.8875 87.5177 80.1255 87.479C80.3634 87.4403 80.5571 87.3932 80.7065 87.3379V88.4087C80.5461 88.4806 80.3219 88.5415 80.0342 88.5913C79.752 88.6411 79.4753 88.666 79.2041 88.666C78.7227 88.666 78.2855 88.583 77.8926 88.417C77.4997 88.2454 77.1842 87.9577 76.9463 87.5537C76.7139 87.1497 76.5977 86.5908 76.5977 85.877V80.4814H75.3027V79.8091L76.606 79.2695L77.1538 77.2939H77.9839V79.4023H80.6484V80.4814H77.9839V85.8354C77.9839 86.4054 78.1139 86.8315 78.374 87.1138C78.6396 87.396 78.991 87.5371 79.4282 87.5371ZM85.4526 79.2529C86.5373 79.2529 87.3424 79.4964 87.8682 79.9834C88.3939 80.4704 88.6567 81.2479 88.6567 82.3159V88.5H87.6523L87.3867 87.1553H87.3203C87.0658 87.4873 86.8001 87.7668 86.5234 87.9937C86.2467 88.215 85.9258 88.3838 85.5605 88.5C85.2008 88.6107 84.7581 88.666 84.2324 88.666C83.679 88.666 83.1865 88.5692 82.7549 88.3755C82.3288 88.1818 81.9912 87.8885 81.7422 87.4956C81.4987 87.1027 81.377 86.6047 81.377 86.0015C81.377 85.0939 81.7367 84.3966 82.4561 83.9097C83.1755 83.4227 84.2712 83.1571 85.7432 83.1128L87.312 83.0464V82.4902C87.312 81.7044 87.1432 81.1538 86.8057 80.8384C86.4681 80.5229 85.9922 80.3652 85.3779 80.3652C84.902 80.3652 84.4482 80.4344 84.0166 80.5728C83.585 80.7111 83.1755 80.8743 82.7881 81.0625L82.3647 80.0166C82.7743 79.8063 83.2446 79.6265 83.7759 79.4771C84.3071 79.3276 84.866 79.2529 85.4526 79.2529ZM87.2954 84.0176L85.9092 84.0757C84.7747 84.12 83.9751 84.3053 83.5103 84.6318C83.0454 84.9583 82.813 85.4204 82.813 86.0181C82.813 86.5382 82.9707 86.9229 83.2861 87.1719C83.6016 87.4209 84.0194 87.5454 84.5396 87.5454C85.3475 87.5454 86.0088 87.3213 86.5234 86.873C87.0381 86.4248 87.2954 85.7524 87.2954 84.856V84.0176ZM95.1294 79.2363C95.312 79.2363 95.5029 79.2474 95.7021 79.2695C95.9014 79.2861 96.0785 79.311 96.2334 79.3442L96.0591 80.6226C95.9097 80.5838 95.7437 80.5534 95.561 80.5312C95.3784 80.5091 95.2069 80.498 95.0464 80.498C94.6812 80.498 94.3353 80.5728 94.0088 80.7222C93.6878 80.866 93.4056 81.0763 93.1621 81.353C92.9186 81.6242 92.7277 81.9535 92.5894 82.3408C92.451 82.7227 92.3818 83.1488 92.3818 83.6191V88.5H90.9956V79.4023H92.1411L92.2905 81.0791H92.3486C92.5368 80.7415 92.7637 80.4344 93.0293 80.1577C93.2949 79.8755 93.6021 79.6514 93.9507 79.4854C94.3049 79.3193 94.6978 79.2363 95.1294 79.2363Z" fill="#388E3C"/>
<rect x="0.5" y="0.5" width="119" height="119" rx="7.5" stroke="#388E3C" stroke-opacity="0.45" shape-rendering="crispEdges"/>
</g>
<defs>
<filter id="filter0_d_1_447" x="0" y="0" width="128" height="128" filterUnits="userSpaceOnUse" color-interpolation-filters="sRGB">
<feFlood flood-opacity="0" result="BackgroundImageFix"/>
<feColorMatrix in="SourceAlpha" type="matrix" values="0 0 0 0 0 0 0 0 0 0 0 0 0 0 0 0 0 0 127 0" result="hardAlpha"/>
<feOffset dx="4" dy="4"/>
<feGaussianBlur stdDeviation="2"/>
<feComposite in2="hardAlpha" operator="out"/>
<feColorMatrix type="matrix" values="0 0 0 0 0 0 0 0 0 0 0 0 0 0 0 0 0 0 0.25 0"/>
<feBlend mode="normal" in2="BackgroundImageFix" result="effect1_dropShadow_1_447"/>
<feBlend mode="normal" in="SourceGraphic" in2="effect1_dropShadow_1_447" result="shape"/>
</filter>
</defs>
</svg>
