<svg width="128" height="128" viewBox="0 0 128 128" fill="none" xmlns="http://www.w3.org/2000/svg">
<g filter="url(#filter0_d_1_433)">
<rect width="120" height="120" rx="8" fill="white" shape-rendering="crispEdges"/>
<g clip-path="url(#clip0_1_433)">
<path d="M63.8953 42.9995C63.2506 44.5695 61.271 45.9607 58.3854 46.8716C55.4997 47.7826 51.9407 48.1398 48.4797 47.8658C45.0188 47.5918 41.9347 46.7088 39.8961 45.4081C37.8575 44.1074 37.0286 42.4938 37.5891 40.9171C38.1495 39.3405 40.0542 37.9277 42.8903 36.9852C45.7263 36.0426 49.2652 35.6462 52.7398 35.8818C56.2144 36.1174 59.3448 36.9661 61.4523 38.2439C63.5599 39.5217 64.4749 41.1257 63.9989 42.7081" stroke="#388E3C" stroke-width="1.51181" stroke-miterlimit="0" stroke-linecap="round"/>
<path d="M56.4863 36.3708L45.7562 47.5115" stroke="#388E3C" stroke-width="1.51181" stroke-miterlimit="0" stroke-linejoin="bevel"/>
<path d="M37.4103 41.9456V48.5342C37.4103 48.5342 39.3406 54.9942 50.7914 54.9942C62.2422 54.9942 64.1417 48.5342 64.1417 48.5342V41.9456" stroke="#388E3C" stroke-width="1.51181" stroke-miterlimit="0" stroke-linejoin="bevel"/>
<path d="M50.7914 51.6999V58.2885C50.7914 58.2885 52.7217 64.7485 64.1725 64.7485C75.6233 64.7485 77.5228 58.2885 77.5228 58.2885V51.6999" fill="white"/>
<path d="M50.7914 51.6999V58.2885C50.7914 58.2885 52.7217 64.7485 64.1725 64.7485C75.6233 64.7485 77.5228 58.2885 77.5228 58.2885V51.6999" stroke="#388E3C" stroke-width="1.51181" stroke-miterlimit="0" stroke-linejoin="bevel"/>
<path d="M77.2764 52.7537C76.6318 54.3237 74.6521 55.715 71.7665 56.6259C68.8809 57.5368 65.3218 57.894 61.8609 57.6201C58.3999 57.3461 55.3159 56.4631 53.2772 55.1624C51.2386 53.8617 50.4097 52.2481 50.9702 50.6714C51.5307 49.0947 53.4354 47.682 56.2714 46.7395C59.1075 45.7969 62.6463 45.4005 66.1209 45.6361C69.5955 45.8717 72.7259 46.7204 74.8335 47.9982C76.941 49.276 77.856 50.8799 77.38 52.4623" fill="white"/>
<path d="M77.2764 52.7537C76.6318 54.3237 74.6521 55.715 71.7665 56.6259C68.8809 57.5368 65.3218 57.894 61.8609 57.6201C58.3999 57.3461 55.3159 56.4631 53.2772 55.1624C51.2386 53.8617 50.4097 52.2481 50.9702 50.6714C51.5307 49.0947 53.4354 47.682 56.2714 46.7395C59.1075 45.7969 62.6463 45.4005 66.1209 45.6361C69.5955 45.8717 72.7259 46.7204 74.8335 47.9982C76.941 49.276 77.856 50.8799 77.38 52.4623" stroke="#388E3C" stroke-width="1.51181" stroke-miterlimit="0" stroke-linecap="round"/>
<path d="M58.9515 46.3062L70.0532 57.0848" stroke="#388E3C" stroke-width="1.51181" stroke-miterlimit="0" stroke-linejoin="bevel"/>
<path d="M79.501 36.9301C79.226 38.3895 78.3816 39.6826 77.1508 40.5294C75.9201 41.3761 74.402 41.7081 72.9259 41.4534C71.4497 41.1988 70.1343 40.378 69.2647 39.169C68.3952 37.96 68.0417 36.4601 68.2807 34.9946C68.5198 33.5291 69.3322 32.2159 70.5418 31.3398C71.7515 30.4637 73.2609 30.0952 74.7429 30.3142C76.2249 30.5332 77.5601 31.3221 78.459 32.5098C79.3579 33.6975 79.7482 35.1884 79.5451 36.6593" stroke="#388E3C" stroke-width="1.51181" stroke-miterlimit="0" stroke-linecap="round" stroke-linejoin="round"/>
<path d="M77.8199 40.1032L82.5904 44.8579" stroke="#388E3C" stroke-width="1.51181" stroke-miterlimit="0" stroke-linecap="round" stroke-linejoin="round"/>
</g>
<path d="M31.3701 88.5003H24.6133V76.3645H31.3701V77.6096H26.0244V81.5359H31.063V82.7644H26.0244V87.2552H31.3701V88.5003ZM37.6602 79.2366C38.7393 79.2366 39.5555 79.5022 40.1089 80.0335C40.6623 80.5592 40.939 81.4059 40.939 82.5735V88.5003H39.5776V82.6648C39.5776 81.9067 39.4033 81.3395 39.0547 80.9632C38.7116 80.5869 38.1831 80.3987 37.4692 80.3987C36.4621 80.3987 35.7537 80.6837 35.3442 81.2537C34.9347 81.8237 34.73 82.651 34.73 83.7356V88.5003H33.3521V79.4026H34.4644L34.6719 80.7141H34.7466C34.9403 80.3932 35.1865 80.1248 35.4854 79.909C35.7842 79.6876 36.119 79.5216 36.4897 79.4109C36.8605 79.2947 37.2507 79.2366 37.6602 79.2366ZM46.9219 88.6663C46.1029 88.6663 45.3807 88.4975 44.7554 88.1599C44.13 87.8224 43.6431 87.3077 43.2944 86.616C42.9458 85.9243 42.7715 85.0527 42.7715 84.0013C42.7715 82.9 42.9541 82.0008 43.3193 81.3035C43.6901 80.6007 44.1992 80.0805 44.8467 79.743C45.4941 79.4054 46.2301 79.2366 47.0547 79.2366C47.5085 79.2366 47.9456 79.2836 48.3662 79.3777C48.7923 79.4663 49.141 79.5797 49.4121 79.718L48.9971 80.8719C48.7204 80.7612 48.3994 80.6616 48.0342 80.573C47.6745 80.4845 47.3369 80.4402 47.0215 80.4402C46.3906 80.4402 45.8649 80.5758 45.4443 80.847C45.0293 81.1181 44.7166 81.5166 44.5063 82.0423C44.3016 82.568 44.1992 83.2154 44.1992 83.9846C44.1992 84.7207 44.2988 85.3487 44.498 85.8689C44.7028 86.3891 45.0044 86.7875 45.4028 87.0642C45.8068 87.3354 46.3104 87.471 46.9136 87.471C47.395 87.471 47.8294 87.4212 48.2168 87.3216C48.6042 87.2164 48.9556 87.0947 49.271 86.9563V88.1848C48.9666 88.3398 48.6263 88.4588 48.25 88.5418C47.8792 88.6248 47.4365 88.6663 46.9219 88.6663ZM58.7734 83.9348C58.7734 84.6819 58.6766 85.3487 58.4829 85.9353C58.2892 86.5219 58.0098 87.0172 57.6445 87.4212C57.2793 87.8251 56.8366 88.135 56.3164 88.3509C55.8018 88.5611 55.2179 88.6663 54.5649 88.6663C53.9562 88.6663 53.3973 88.5611 52.8882 88.3509C52.3846 88.135 51.9474 87.8251 51.5767 87.4212C51.2114 87.0172 50.9264 86.5219 50.7217 85.9353C50.5225 85.3487 50.4229 84.6819 50.4229 83.9348C50.4229 82.9388 50.5916 82.0921 50.9292 81.3948C51.2668 80.692 51.7482 80.158 52.3735 79.7928C53.0044 79.422 53.7542 79.2366 54.623 79.2366C55.4531 79.2366 56.1781 79.422 56.7979 79.7928C57.4232 80.1635 57.9074 80.7003 58.2505 81.4031C58.5991 82.1004 58.7734 82.9443 58.7734 83.9348ZM51.8506 83.9348C51.8506 84.6653 51.9474 85.2989 52.1411 85.8357C52.3348 86.3725 52.6336 86.7875 53.0376 87.0808C53.4416 87.3741 53.9618 87.5208 54.5981 87.5208C55.229 87.5208 55.7464 87.3741 56.1504 87.0808C56.5599 86.7875 56.8615 86.3725 57.0552 85.8357C57.2489 85.2989 57.3457 84.6653 57.3457 83.9348C57.3457 83.2099 57.2489 82.5846 57.0552 82.0589C56.8615 81.5276 56.5627 81.1181 56.1587 80.8304C55.7547 80.5426 55.2318 80.3987 54.5898 80.3987C53.6436 80.3987 52.9491 80.7114 52.5063 81.3367C52.0692 81.962 51.8506 82.8281 51.8506 83.9348ZM64.9639 79.2366C66.043 79.2366 66.8592 79.5022 67.4126 80.0335C67.966 80.5592 68.2427 81.4059 68.2427 82.5735V88.5003H66.8813V82.6648C66.8813 81.9067 66.707 81.3395 66.3584 80.9632C66.0153 80.5869 65.4868 80.3987 64.7729 80.3987C63.7658 80.3987 63.0575 80.6837 62.6479 81.2537C62.2384 81.8237 62.0337 82.651 62.0337 83.7356V88.5003H60.6558V79.4026H61.7681L61.9756 80.7141H62.0503C62.244 80.3932 62.4902 80.1248 62.7891 79.909C63.0879 79.6876 63.4227 79.5216 63.7935 79.4109C64.1642 79.2947 64.5544 79.2366 64.9639 79.2366ZM73.52 87.5374C73.7469 87.5374 73.9793 87.518 74.2173 87.4793C74.4552 87.4405 74.6489 87.3935 74.7983 87.3382V88.409C74.6379 88.4809 74.4137 88.5418 74.126 88.5916C73.8438 88.6414 73.5671 88.6663 73.2959 88.6663C72.8145 88.6663 72.3773 88.5833 71.9844 88.4173C71.5915 88.2457 71.276 87.958 71.0381 87.554C70.8057 87.15 70.6895 86.5911 70.6895 85.8772V80.4817H69.3945V79.8094L70.6978 79.2698L71.2456 77.2942H72.0757V79.4026H74.7402V80.4817H72.0757V85.8357C72.0757 86.4057 72.2057 86.8318 72.4658 87.114C72.7314 87.3963 73.0828 87.5374 73.52 87.5374ZM80.2749 79.2366C80.4575 79.2366 80.6484 79.2477 80.8477 79.2698C81.0469 79.2864 81.224 79.3113 81.3789 79.3445L81.2046 80.6228C81.0552 80.5841 80.8892 80.5537 80.7065 80.5315C80.5239 80.5094 80.3524 80.4983 80.1919 80.4983C79.8267 80.4983 79.4808 80.573 79.1543 80.7224C78.8333 80.8663 78.5511 81.0766 78.3076 81.3533C78.0641 81.6245 77.8732 81.9537 77.7349 82.3411C77.5965 82.7229 77.5273 83.149 77.5273 83.6194V88.5003H76.1411V79.4026H77.2866L77.436 81.0794H77.4941C77.6823 80.7418 77.9092 80.4347 78.1748 80.158C78.4404 79.8758 78.7476 79.6516 79.0962 79.4856C79.4504 79.3196 79.8433 79.2366 80.2749 79.2366ZM86.0005 79.2532C87.0851 79.2532 87.8903 79.4967 88.416 79.9837C88.9417 80.4707 89.2046 81.2482 89.2046 82.3162V88.5003H88.2002L87.9346 87.1555H87.8682C87.6136 87.4876 87.348 87.767 87.0713 87.9939C86.7946 88.2153 86.4736 88.3841 86.1084 88.5003C85.7487 88.611 85.306 88.6663 84.7803 88.6663C84.2269 88.6663 83.7344 88.5694 83.3027 88.3758C82.8766 88.1821 82.5391 87.8888 82.29 87.4959C82.0465 87.103 81.9248 86.6049 81.9248 86.0017C81.9248 85.0942 82.2845 84.3969 83.0039 83.9099C83.7233 83.423 84.819 83.1573 86.291 83.1131L87.8599 83.0467V82.4905C87.8599 81.7047 87.6911 81.1541 87.3535 80.8387C87.016 80.5232 86.54 80.3655 85.9258 80.3655C85.4499 80.3655 84.9961 80.4347 84.5645 80.573C84.1328 80.7114 83.7233 80.8746 83.3359 81.0628L82.9126 80.0169C83.3221 79.8066 83.7925 79.6267 84.3237 79.4773C84.855 79.3279 85.4139 79.2532 86.0005 79.2532ZM87.8433 84.0179L86.457 84.076C85.3226 84.1202 84.5229 84.3056 84.0581 84.6321C83.5933 84.9586 83.3608 85.4207 83.3608 86.0183C83.3608 86.5385 83.5186 86.9231 83.834 87.1721C84.1494 87.4212 84.5672 87.5457 85.0874 87.5457C85.8953 87.5457 86.5566 87.3216 87.0713 86.8733C87.5859 86.4251 87.8433 85.7527 87.8433 84.8562V84.0179ZM95.6772 79.2366C95.8599 79.2366 96.0508 79.2477 96.25 79.2698C96.4492 79.2864 96.6263 79.3113 96.7812 79.3445L96.6069 80.6228C96.4575 80.5841 96.2915 80.5537 96.1089 80.5315C95.9263 80.5094 95.7547 80.4983 95.5942 80.4983C95.229 80.4983 94.8831 80.573 94.5566 80.7224C94.2357 80.8663 93.9535 81.0766 93.71 81.3533C93.4665 81.6245 93.2756 81.9537 93.1372 82.3411C92.9989 82.7229 92.9297 83.149 92.9297 83.6194V88.5003H91.5435V79.4026H92.689L92.8384 81.0794H92.8965C93.0846 80.7418 93.3115 80.4347 93.5771 80.158C93.8428 79.8758 94.1499 79.6516 94.4985 79.4856C94.8527 79.3196 95.2456 79.2366 95.6772 79.2366Z" fill="#388E3C"/>
<rect x="0.5" y="0.5" width="119" height="119" rx="7.5" stroke="#388E3C" stroke-opacity="0.45" shape-rendering="crispEdges"/>
</g>
<defs>
<filter id="filter0_d_1_433" x="0" y="0" width="128" height="128" filterUnits="userSpaceOnUse" color-interpolation-filters="sRGB">
<feFlood flood-opacity="0" result="BackgroundImageFix"/>
<feColorMatrix in="SourceAlpha" type="matrix" values="0 0 0 0 0 0 0 0 0 0 0 0 0 0 0 0 0 0 127 0" result="hardAlpha"/>
<feOffset dx="4" dy="4"/>
<feGaussianBlur stdDeviation="2"/>
<feComposite in2="hardAlpha" operator="out"/>
<feColorMatrix type="matrix" values="0 0 0 0 0 0 0 0 0 0 0 0 0 0 0 0 0 0 0.25 0"/>
<feBlend mode="normal" in2="BackgroundImageFix" result="effect1_dropShadow_1_433"/>
<feBlend mode="normal" in="SourceGraphic" in2="effect1_dropShadow_1_433" result="shape"/>
</filter>
<clipPath id="clip0_1_433">
<rect width="46.6996" height="36.0006" fill="white" transform="translate(36.6502 29.4997)"/>
</clipPath>
</defs>
</svg>
