<?xml version="1.0" encoding="UTF-8" standalone="no"?>
<!-- Created with Inkscape (http://www.inkscape.org/) -->

<svg
   xml:space="preserve"
   id="svg5"
   version="1.1"
   viewBox="0 0 67.145721 44.979"
   height="44.979mm"
   width="67.145721mm"
   sodipodi:docname="home_icon.svg"
   inkscape:export-filename="home_icon.png"
   inkscape:export-xdpi="96"
   inkscape:export-ydpi="96"
   inkscape:version="1.2.1 (9c6d41e410, 2022-07-14)"
   xmlns:inkscape="http://www.inkscape.org/namespaces/inkscape"
   xmlns:sodipodi="http://sodipodi.sourceforge.net/DTD/sodipodi-0.dtd"
   xmlns="http://www.w3.org/2000/svg"
   xmlns:svg="http://www.w3.org/2000/svg"><sodipodi:namedview
     id="namedview7"
     pagecolor="#ffffff"
     bordercolor="#000000"
     borderopacity="0.25"
     inkscape:showpageshadow="2"
     inkscape:pageopacity="0.0"
     inkscape:pagecheckerboard="0"
     inkscape:deskcolor="#d1d1d1"
     inkscape:document-units="mm"
     showgrid="false"
     showguides="false"
     inkscape:zoom="1"
     inkscape:cx="148.5"
     inkscape:cy="-31"
     inkscape:window-width="1366"
     inkscape:window-height="705"
     inkscape:window-x="-8"
     inkscape:window-y="-8"
     inkscape:window-maximized="1"
     inkscape:current-layer="layer1"><sodipodi:guide
       position="38.909834,-44.315097"
       orientation="0,-1"
       id="guide13133"
       inkscape:locked="false" /><sodipodi:guide
       position="10.646159,-41.669267"
       orientation="0,-1"
       id="guide13135"
       inkscape:locked="false" /><sodipodi:guide
       position="6.71766,17.511223"
       orientation="0,-1"
       id="guide13255"
       inkscape:locked="false" /></sodipodi:namedview><defs
     id="defs2" /><g
     inkscape:label="Camada 1"
     inkscape:groupmode="layer"
     id="layer1"
     transform="translate(-37.714716,-61.861803)"><path
       style="fill:none;stroke-width:1.5;stroke-linecap:round;stroke-linejoin:round;stroke-miterlimit:0;paint-order:fill markers stroke"
       d="M 38.277085,102.18375 44.31579,78.99356 h 53.893325 l 6.213795,23.19019 z"
       id="path576"
       inkscape:export-filename="home_icon.png"
       inkscape:export-xdpi="96"
       inkscape:export-ydpi="96" /><circle
       style="opacity:0.9;fill:#ffffff;fill-opacity:0.60000002;stroke:none;stroke-width:1;stroke-linecap:round;stroke-linejoin:round;stroke-miterlimit:0;stroke-dasharray:none;stroke-opacity:1;paint-order:fill markers stroke"
       id="path23767"
       cx="71.318703"
       cy="84.351303"
       r="22.4895" /><path
       style="fill:#6fcb6f;fill-opacity:1;stroke:#000000;stroke-width:1;stroke-linecap:round;stroke-linejoin:round;stroke-miterlimit:0;stroke-dasharray:none;stroke-opacity:1;paint-order:fill markers stroke"
       d="M 91.175126,84.993849 H 50.650084 L 38.214668,102.18375 h 66.145822 z"
       id="path1860"
       sodipodi:nodetypes="ccccc" /><path
       style="fill:#717171;fill-opacity:1;stroke:none;stroke-width:1.5;stroke-linecap:round;stroke-linejoin:round;stroke-miterlimit:0;stroke-opacity:1;paint-order:fill markers stroke"
       d="m 44.158998,94.748291 3.123703,-4.158095 h 7.571053 l 4.103162,-5.128632 h 4.390744 l 7.965117,5.128632 h 23.472304 l 3.312085,4.158095 H 77.770579 l 10.676082,6.874189 H 79.313925 L 62.179939,90.590196 53.291672,101.62248 h -7.264289 l 5.499692,-6.874189 z"
       id="path13313" /><g
       style="fill:#ff3232;fill-opacity:1;stroke-width:0.188987"
       id="g21814"
       transform="matrix(1.4,0,0,1.4,61.487579,66.518855)"><path
         d="M 7,9.5 C 6.33696,9.5 5.70107,9.23661 5.23223,8.76777 4.76339,8.29893 4.5,7.66304 4.5,7 4.5,6.33696 4.76339,5.70107 5.23223,5.23223 5.70107,4.76339 6.33696,4.5 7,4.5 7.66304,4.5 8.29893,4.76339 8.76777,5.23223 9.23661,5.70107 9.5,6.33696 9.5,7 9.5,7.3283 9.43534,7.65339 9.3097,7.95671 9.18406,8.26002 8.99991,8.53562 8.76777,8.76777 8.53562,8.99991 8.26002,9.18406 7.95671,9.3097 7.65339,9.43534 7.3283,9.5 7,9.5 Z M 7,0 C 5.14348,0 3.36301,0.737498 2.05025,2.05025 0.737498,3.36301 0,5.14348 0,7 0,12.25 7,20 7,20 7,20 14,12.25 14,7 14,5.14348 13.2625,3.36301 11.9497,2.05025 10.637,0.737498 8.85652,0 7,0 Z"
         fill="#000000"
         id="path21805"
         style="fill:#ff3232;fill-opacity:1;stroke-width:0.0200012" /></g></g></svg>
