<?xml version="1.0" encoding="UTF-8" standalone="no"?>
<!-- Created with Inkscape (http://www.inkscape.org/) -->

<svg
   width="110.40041mm"
   height="72.065346mm"
   viewBox="0 0 110.40041 72.065346"
   version="1.1"
   id="svg5"
   xml:space="preserve"
   sodipodi:docname="logo.svg"
   xmlns:inkscape="http://www.inkscape.org/namespaces/inkscape"
   xmlns:sodipodi="http://sodipodi.sourceforge.net/DTD/sodipodi-0.dtd"
   xmlns="http://www.w3.org/2000/svg"
   xmlns:svg="http://www.w3.org/2000/svg"><sodipodi:namedview
     id="namedview7"
     pagecolor="#ffffff"
     bordercolor="#000000"
     borderopacity="0.25"
     inkscape:showpageshadow="2"
     inkscape:pageopacity="0.0"
     inkscape:pagecheckerboard="0"
     inkscape:deskcolor="#d1d1d1"
     inkscape:document-units="mm"
     showgrid="false"
     showguides="true"><sodipodi:guide
       position="6.5287631e-06,40.667874"
       orientation="1,0"
       id="guide12587"
       inkscape:locked="false" /><sodipodi:guide
       position="110.40035,46.085124"
       orientation="1,0"
       id="guide12589"
       inkscape:locked="false" /></sodipodi:namedview><defs
     id="defs2"><style
       id="style1739">.cls-1{fill:#101820;}</style><style
       id="style2529">.cls-1{fill:#101820;}</style></defs><g
     inkscape:label="Camada 1"
     inkscape:groupmode="layer"
     id="layer1"
     transform="translate(-64.32836,-138.66126)"><g
       id="g318"><g
         id="g2161"><g
           id="g2067"
           transform="translate(-1.0583333)"><path
             style="fill:none;stroke:#000000;stroke-width:2.3;stroke-linecap:round;stroke-linejoin:round;stroke-miterlimit:0;stroke-dasharray:none;paint-order:fill markers stroke"
             d="m 80.304202,185.20945 c 0,0 13.594097,0.40002 23.524538,4.30021 9.93044,3.9002 31.38921,-1.02682 29.50208,-7.20036 -1.25335,-4.10021 -8.09861,0.30001 -8.09861,0.30001 0,0 -5.97754,2.90015 -22.84966,-2.90015"
             id="path1323"
             sodipodi:nodetypes="csscc" /><path
             style="fill:none;stroke:#000000;stroke-width:2.3;stroke-linecap:round;stroke-linejoin:round;stroke-miterlimit:0;stroke-dasharray:none;paint-order:stroke fill markers"
             d="m 83.654999,173.21345 c 0,0 13.223571,-7.77857 20.436431,0.91929 0,0 16.335,3.96 12.09214,8.55643"
             id="path1325" /></g><path
           style="fill:none;stroke:#000000;stroke-width:2.3;stroke-linejoin:round;stroke-miterlimit:0;stroke-dasharray:none;paint-order:fill markers stroke"
           d="m 70.353591,171.20873 h 8.925444 l -4.875231,19.501 h -8.92547 z"
           id="path1256" /></g><g
         id="g2167"
         transform="translate(8.9958334,1.5874997)"><g
           id="g2079"
           transform="rotate(180,115.55979,164.57196)"><path
             style="fill:none;stroke:#000000;stroke-width:2.3;stroke-linecap:round;stroke-linejoin:round;stroke-miterlimit:0;stroke-dasharray:none;paint-order:fill markers stroke"
             d="m 80.304202,185.20945 c 0,0 13.594097,0.40002 23.524538,4.30021 9.93044,3.9002 31.38921,-1.02682 29.50208,-7.20036 -1.25335,-4.10021 -8.09861,0.30001 -8.09861,0.30001 0,0 -5.97754,2.90015 -22.84966,-2.90015"
             id="path2075"
             sodipodi:nodetypes="csscc" /><path
             style="fill:none;stroke:#000000;stroke-width:2.3;stroke-linecap:round;stroke-linejoin:round;stroke-miterlimit:0;stroke-dasharray:none;paint-order:stroke fill markers"
             d="m 83.654999,173.21345 c 0,0 13.223571,-7.77857 20.436431,0.91929 0,0 16.335,3.96 12.09214,8.55643"
             id="path2077" /></g><path
           style="fill:none;stroke:#000000;stroke-width:2.3;stroke-linejoin:round;stroke-miterlimit:0;stroke-dasharray:none;paint-order:fill markers stroke"
           d="m 155.65746,142.40298 h 8.92545 l -4.87524,19.501 h -8.92547 z"
           id="path2081" /></g><g
         style="fill:#000000;stroke-width:6.47144"
         id="g14912"
         transform="matrix(-1.0221198,0,0,1.0221198,135.95785,149.21965)"><path
           d="M 28.987,7.898 C 27.369,5.095 23.772,4.119 20.977,5.752 11.704,11.169 14.627,9.418 5.155,14.887 v 0 c -2.803,1.618 -3.764,5.207 -2.146,8.01 1.618,2.803 5.214,3.777 8.01,2.146 9.447,-5.512 6.518,-3.772 15.822,-9.135 2.804,-1.616 3.765,-5.207 2.146,-8.01 z m -2.443,7.243 -7.751,4.475 c 0.424,-0.245 0.679,-0.623 0.796,-1.089 1.068,-0.623 2.463,-1.428 5.298,-3.054 0.834,-0.478 1.459,-1.163 1.851,-1.969 v 0 c 0.654,-1.343 0.644,-2.99 -0.153,-4.376 -0.115,-0.2 -0.262,-0.368 -0.401,-0.544 0.679,2.05 -0.15,4.373 -2.097,5.489 -2.236,1.282 -3.578,2.057 -4.571,2.636 -0.417,-1.701 -1.638,-3.688 -2.945,-4.926 -1.888,1.115 -2.616,1.559 -7.348,4.271 C 7.302,17.155 6.471,19.431 7.101,21.461 7.078,21.449 7.055,21.437 7.032,21.425 6.923,21.29 6.815,21.155 6.726,20.999 5.929,19.612 5.919,17.966 6.573,16.623 v 0 c 0.392,-0.806 1.017,-1.49 1.851,-1.969 4.175,-2.393 5.228,-3.01 6.71,-3.88 -0.534,-0.23 -1.037,-0.262 -1.455,-0.017 L 21.43,6.282 c 5.215,-3.011 10.413,5.8 5.115,8.859 z"
           id="path14903"
           style="fill:#000000;stroke-width:6.47144" /></g></g><text
       xml:space="preserve"
       style="font-style:normal;font-variant:normal;font-weight:600;font-stretch:normal;font-size:19.2172px;line-height:1.25;font-family:Nunito;-inkscape-font-specification:'Nunito, Semi-Bold';font-variant-ligatures:normal;font-variant-caps:normal;font-variant-numeric:normal;font-variant-east-asian:normal;letter-spacing:0.00400358px;stroke-width:0.264583"
       x="62.714115"
       y="210.55365"
       id="text374"><tspan
         sodipodi:role="line"
         id="tspan372"
         style="font-style:normal;font-variant:normal;font-weight:600;font-stretch:normal;font-size:19.2172px;font-family:Nunito;-inkscape-font-specification:'Nunito, Semi-Bold';font-variant-ligatures:normal;font-variant-caps:normal;font-variant-numeric:normal;font-variant-east-asian:normal;stroke-width:0.264583"
         x="62.714115"
         y="210.55365">MEDICALIZE</tspan></text></g></svg>
